<svg width="224" height="224" viewBox="0 0 224 224" fill="none" xmlns="http://www.w3.org/2000/svg">
<path d="M108.622 197.949H134.673V209.892H108.622C107.038 209.892 105.519 209.263 104.4 208.143C103.28 207.023 102.65 205.504 102.65 203.921C102.65 202.337 103.28 200.818 104.4 199.698C105.519 198.578 107.038 197.949 108.622 197.949Z" fill="#EA586E"/>
<path d="M160.868 197.953V200.126H160.715C160.575 200.249 160.444 200.38 160.321 200.52C159.931 200.966 159.627 201.482 159.425 202.039C159.21 202.644 159.1 203.283 159.103 203.925C159.09 205.016 159.415 206.083 160.034 206.981C160.226 207.255 160.45 207.505 160.702 207.724H160.85V209.897H134.817C133.233 209.897 131.714 209.268 130.594 208.148C129.474 207.028 128.845 205.509 128.845 203.925C128.845 202.341 129.474 200.822 130.594 199.702C131.714 198.583 133.233 197.953 134.817 197.953H160.868Z" fill="#F6B6C0"/>
<path d="M160.72 207.724H135.395C134.385 207.724 133.416 207.323 132.702 206.609C131.988 205.895 131.587 204.926 131.587 203.916C131.587 202.906 131.988 201.938 132.702 201.223C133.416 200.509 134.385 200.108 135.395 200.108H160.716C160.576 200.231 160.444 200.362 160.322 200.502C159.931 200.948 159.627 201.464 159.426 202.021C159.21 202.626 159.101 203.265 159.103 203.907C159.09 204.998 159.416 206.065 160.035 206.963C160.231 207.244 160.461 207.5 160.72 207.724Z" fill="#F5F5F5"/>
<path d="M117.188 209.893H112.708C111.124 209.893 109.605 209.263 108.485 208.144C107.366 207.024 106.736 205.505 106.736 203.921C106.736 202.337 107.366 200.818 108.485 199.698C109.605 198.578 111.124 197.949 112.708 197.949H117.188C115.604 197.949 114.085 198.578 112.965 199.698C111.846 200.818 111.216 202.337 111.216 203.921C111.216 205.505 111.846 207.024 112.965 208.144C114.085 209.263 115.604 209.893 117.188 209.893Z" fill="#0A3B29"/>
<path d="M130.139 209.893H125.659C124.076 209.893 122.557 209.263 121.437 208.144C120.317 207.024 119.688 205.505 119.688 203.921C119.688 202.337 120.317 200.818 121.437 199.698C122.557 198.578 124.076 197.949 125.659 197.949H130.139C128.556 197.949 127.037 198.578 125.917 199.698C124.797 200.818 124.168 202.337 124.168 203.921C124.168 205.505 124.797 207.024 125.917 208.144C127.037 209.263 128.556 209.893 130.139 209.893Z" fill="#0A3B29"/>
<path d="M103.766 186.005H129.817V197.949H103.766C102.982 197.949 102.205 197.794 101.48 197.494C100.756 197.194 100.098 196.754 99.5431 196.2C98.9885 195.645 98.5486 194.987 98.2485 194.262C97.9484 193.538 97.7939 192.761 97.7939 191.977C97.7939 191.193 97.9484 190.416 98.2485 189.692C98.5486 188.967 98.9885 188.309 99.5431 187.754C100.098 187.2 100.756 186.76 101.48 186.46C102.205 186.16 102.982 186.005 103.766 186.005Z" fill="#2EA67A"/>
<path d="M156.011 186.005V188.16H155.859C155.719 188.282 155.587 188.414 155.464 188.554C155.074 189 154.77 189.515 154.568 190.073C154.353 190.678 154.244 191.316 154.246 191.959C154.233 193.049 154.558 194.117 155.178 195.014C155.369 195.288 155.593 195.538 155.845 195.758H155.993V197.931H129.955C128.371 197.931 126.852 197.302 125.733 196.182C124.613 195.062 123.983 193.543 123.983 191.959C123.983 190.375 124.613 188.856 125.733 187.736C126.852 186.616 128.371 185.987 129.955 185.987H156.006L156.011 186.005Z" fill="#B3EBD6"/>
<path d="M155.864 195.776H130.538C129.529 195.776 128.56 195.375 127.846 194.661C127.132 193.946 126.73 192.978 126.73 191.968C126.73 190.958 127.132 189.989 127.846 189.275C128.56 188.561 129.529 188.16 130.538 188.16H155.859C155.719 188.282 155.588 188.414 155.465 188.554C155.075 189 154.771 189.515 154.569 190.073C154.354 190.678 154.244 191.316 154.247 191.959C154.234 193.049 154.559 194.117 155.178 195.014C155.374 195.296 155.604 195.552 155.864 195.776Z" fill="#F5F5F5"/>
<path d="M112.332 197.949H107.852C106.268 197.949 104.749 197.32 103.629 196.2C102.509 195.08 101.88 193.561 101.88 191.977C101.88 190.393 102.509 188.874 103.629 187.754C104.749 186.634 106.268 186.005 107.852 186.005H112.332C110.748 186.005 109.229 186.634 108.109 187.754C106.989 188.874 106.36 190.393 106.36 191.977C106.36 193.561 106.989 195.08 108.109 196.2C109.229 197.32 110.748 197.949 112.332 197.949Z" fill="#0A3B29"/>
<path d="M125.283 197.949H120.803C119.219 197.949 117.7 197.32 116.58 196.2C115.46 195.08 114.831 193.561 114.831 191.977C114.831 190.393 115.46 188.874 116.58 187.754C117.7 186.634 119.219 186.005 120.803 186.005H125.283C123.699 186.005 122.18 186.634 121.06 187.754C119.94 188.874 119.311 190.393 119.311 191.977C119.311 193.561 119.94 195.08 121.06 196.2C122.18 197.32 123.699 197.949 125.283 197.949Z" fill="#0A3B29"/>
<path d="M111.552 174.061H137.603V186.005H111.552C109.968 186.005 108.449 185.376 107.329 184.256C106.209 183.136 105.58 181.617 105.58 180.033C105.58 179.249 105.735 178.472 106.035 177.748C106.335 177.023 106.775 176.365 107.329 175.81C107.884 175.256 108.542 174.816 109.267 174.516C109.991 174.216 110.768 174.061 111.552 174.061Z" fill="#EA586E"/>
<path d="M163.78 174.061V176.234H163.628C163.488 176.357 163.356 176.488 163.233 176.628C162.843 177.074 162.539 177.589 162.337 178.147C162.122 178.752 162.013 179.391 162.015 180.033C162.002 181.123 162.327 182.191 162.947 183.088C163.138 183.363 163.362 183.612 163.614 183.832H163.762V186.005H137.729C136.145 186.005 134.626 185.376 133.506 184.256C132.386 183.136 131.757 181.617 131.757 180.033C131.757 178.449 132.386 176.93 133.506 175.81C134.626 174.69 136.145 174.061 137.729 174.061H163.78Z" fill="#F6B6C0"/>
<path d="M163.636 183.832H138.306C137.296 183.832 136.328 183.431 135.613 182.717C134.899 182.003 134.498 181.034 134.498 180.024C134.498 179.014 134.899 178.046 135.613 177.332C136.328 176.618 137.296 176.216 138.306 176.216H163.627C163.487 176.339 163.355 176.471 163.233 176.611C162.842 177.057 162.538 177.572 162.337 178.129C162.121 178.735 162.012 179.373 162.014 180.015C162.001 181.106 162.327 182.173 162.946 183.071C163.143 183.353 163.375 183.608 163.636 183.832Z" fill="#F5F5F5"/>
<path d="M120.104 186.005H115.624C114.04 186.005 112.521 185.376 111.401 184.256C110.282 183.136 109.652 181.617 109.652 180.033C109.652 178.449 110.282 176.93 111.401 175.81C112.521 174.69 114.04 174.061 115.624 174.061H120.104C118.52 174.061 117.001 174.69 115.881 175.81C114.762 176.93 114.132 178.449 114.132 180.033C114.132 181.617 114.762 183.136 115.881 184.256C117.001 185.376 118.52 186.005 120.104 186.005Z" fill="#0A3B29"/>
<path d="M133.056 186.005H128.576C126.992 186.005 125.474 185.376 124.354 184.256C123.234 183.136 122.604 181.617 122.604 180.033C122.604 178.449 123.234 176.93 124.354 175.81C125.474 174.69 126.992 174.061 128.576 174.061H133.056C131.472 174.061 129.954 174.69 128.834 175.81C127.714 176.93 127.084 178.449 127.084 180.033C127.084 181.617 127.714 183.136 128.834 184.256C129.954 185.376 131.472 186.005 133.056 186.005Z" fill="#0A3B29"/>
<path d="M104.434 162.113H130.485V174.057H104.434C102.85 174.057 101.331 173.428 100.211 172.308C99.0911 171.188 98.4619 169.669 98.4619 168.085C98.4619 166.501 99.0911 164.982 100.211 163.862C101.331 162.742 102.85 162.113 104.434 162.113Z" fill="#2EA67A"/>
<path d="M156.679 162.118V164.291H156.527C156.387 164.413 156.255 164.545 156.133 164.685C155.742 165.131 155.438 165.646 155.237 166.204C155.021 166.809 154.912 167.447 154.914 168.09C154.901 169.18 155.227 170.248 155.846 171.145C156.037 171.419 156.261 171.669 156.514 171.889H156.661V174.062H130.628C129.044 174.062 127.525 173.432 126.405 172.312C125.285 171.193 124.656 169.674 124.656 168.09C124.656 166.506 125.285 164.987 126.405 163.867C127.525 162.747 129.044 162.118 130.628 162.118H156.679Z" fill="#B3EBD6"/>
<path d="M156.531 171.889H131.205C130.196 171.889 129.227 171.488 128.513 170.773C127.799 170.059 127.397 169.091 127.397 168.081C127.397 167.071 127.799 166.102 128.513 165.388C129.227 164.674 130.196 164.273 131.205 164.273H156.526C156.386 164.395 156.255 164.527 156.132 164.667C155.742 165.113 155.438 165.628 155.236 166.186C155.021 166.791 154.911 167.429 154.914 168.072C154.901 169.162 155.226 170.23 155.845 171.127C156.041 171.409 156.271 171.665 156.531 171.889Z" fill="#F5F5F5"/>
<path d="M112.999 174.057H108.519C106.935 174.057 105.416 173.428 104.296 172.308C103.176 171.188 102.547 169.669 102.547 168.085C102.547 166.501 103.176 164.982 104.296 163.862C105.416 162.742 106.935 162.113 108.519 162.113H112.999C111.415 162.113 109.896 162.742 108.776 163.862C107.656 164.982 107.027 166.501 107.027 168.085C107.027 169.669 107.656 171.188 108.776 172.308C109.896 173.428 111.415 174.057 112.999 174.057Z" fill="#0A3B29"/>
<path d="M125.951 174.057H121.471C119.887 174.057 118.368 173.428 117.248 172.308C116.128 171.188 115.499 169.669 115.499 168.085C115.499 166.501 116.128 164.982 117.248 163.862C118.368 162.742 119.887 162.113 121.471 162.113H125.951C124.367 162.113 122.848 162.742 121.728 163.862C120.608 164.982 119.979 166.501 119.979 168.085C119.979 169.669 120.608 171.188 121.728 172.308C122.848 173.428 124.367 174.057 125.951 174.057Z" fill="#0A3B29"/>
<path d="M118.46 140.17C118.46 140.17 117.313 143.356 116.176 146.469C115.096 149.413 114.021 152.293 113.936 152.32C113.761 152.383 110.352 152.62 110.352 152.62L112.041 145.39L113.447 139.395L118.46 140.17Z" fill="#F4B86A"/>
<path d="M118.46 140.17C118.46 140.17 117.313 143.356 116.175 146.469L112.054 145.39L113.46 139.395L118.46 140.17Z" fill="#0A3B29"/>
<path d="M132.85 159.488V159.73L132.675 162.069L121.381 162.351L107.148 162.705C107.148 162.705 107.148 161.809 107.269 160.465C107.498 157.965 108.165 153.839 110.208 150.528C111.783 150.778 113.385 150.819 114.971 150.649C114.971 150.649 121.341 153.48 123.635 153.718H123.774C124.939 153.933 133.33 155.456 132.85 159.488Z" fill="#0A3B29"/>
<path d="M122.811 156.513H122.752C119.633 155.706 116.563 154.721 113.555 153.565C113.528 153.554 113.503 153.538 113.482 153.517C113.461 153.496 113.444 153.471 113.433 153.444C113.421 153.417 113.415 153.388 113.415 153.358C113.415 153.329 113.421 153.299 113.432 153.272C113.443 153.245 113.459 153.22 113.48 153.199C113.501 153.178 113.526 153.161 113.553 153.15C113.58 153.138 113.609 153.132 113.639 153.132C113.669 153.132 113.698 153.138 113.725 153.149C116.715 154.298 119.768 155.276 122.869 156.079C122.917 156.096 122.958 156.129 122.985 156.173C123.012 156.217 123.023 156.269 123.016 156.32C123.009 156.371 122.985 156.418 122.948 156.453C122.91 156.488 122.862 156.509 122.811 156.513Z" fill="#2EA67A"/>
<path d="M113.232 156.046C113.404 154.708 112.705 153.517 111.672 153.384C110.639 153.252 109.662 154.229 109.491 155.566C109.32 156.904 110.018 158.096 111.051 158.228C112.085 158.36 113.061 157.383 113.232 156.046Z" fill="#EA586E"/>
<path d="M133.092 159.734C132.995 160.526 132.845 161.31 132.644 162.082L121.35 162.364C121.317 161.596 121.332 160.827 121.395 160.061C121.556 158.045 122.116 155.496 123.742 153.736C123.975 153.48 124.23 153.244 124.504 153.032C126.732 152.998 128.924 153.606 130.816 154.784C132.926 156.115 133.267 157.956 133.092 159.734Z" fill="#EA586E"/>
<path d="M133.092 159.734C132.996 160.526 132.846 161.31 132.644 162.082L121.35 162.364L107.117 162.718C107.117 162.718 107.117 161.822 107.238 160.478L121.395 160.075L132.823 159.757L133.092 159.734Z" fill="#EA586E"/>
<path d="M129.118 113.496C129.118 114.925 120.422 139.337 120.422 139.337L111.61 139.099L115.064 120.996L110.208 122.712L101.597 125.74L89.7027 129.92C89.0914 130.233 88.4562 130.496 87.8032 130.708C85.048 131.627 79.8243 132.541 75.6535 128.37C69.6995 122.416 75.3309 105.298 86.3696 105.145C95.0653 105.025 125.31 107.766 126.143 108.125C126.976 108.483 129.118 112.067 129.118 113.496Z" fill="#0E563B"/>
<path d="M117.824 114.625C116.829 116.391 115.046 121.001 115.046 121.001L110.208 122.712L117.578 114.625H117.824Z" fill="#0A3B29"/>
<path d="M101.589 125.745L89.7032 129.92C89.0919 130.233 88.4567 130.496 87.8037 130.708L91.5714 125.906L94.6447 122.47L101.589 125.745Z" fill="#0A3B29"/>
<path d="M114.831 137.5H114.778C114.749 137.493 114.722 137.48 114.699 137.462C114.675 137.445 114.655 137.422 114.64 137.397C114.625 137.372 114.615 137.344 114.611 137.314C114.607 137.285 114.609 137.255 114.616 137.227C116.587 129.459 119.508 117.672 119.49 117.031C119.473 116.39 117.896 115.029 117.56 114.863C116.614 115.078 102.466 119.043 94.9849 121.135C94.9255 121.151 94.8621 121.143 94.8088 121.112C94.7554 121.081 94.7164 121.031 94.7004 120.971C94.6844 120.912 94.6926 120.848 94.7232 120.795C94.7539 120.742 94.8045 120.703 94.8639 120.687C101.611 118.792 117.327 114.379 117.569 114.379C117.963 114.379 119.871 116.113 119.934 116.968C119.997 117.757 115.553 135.305 115.046 137.308C115.039 137.36 115.013 137.408 114.974 137.443C114.935 137.478 114.884 137.499 114.831 137.5Z" fill="#0A3B29"/>
<path d="M111.175 137.088C111.583 136.963 116.883 137.415 118.16 137.357C119.437 137.299 121.744 137.325 122.03 137.715C122.317 138.105 120.781 143.4 120.722 143.727C120.664 144.054 116.883 144.144 114.45 144.113C112.018 144.081 109.97 144.054 109.867 143.158C109.764 142.262 110.414 137.312 111.175 137.088Z" fill="#B3EBD6"/>
<path d="M67.8495 189.235L67.07 193.227L66.4204 196.56L62.4287 196.977L62.9932 191.932L63.2665 189.477L67.8495 189.235Z" fill="#F4B86A"/>
<path d="M67.8495 189.235L67.07 193.227L62.9932 191.932L63.2664 189.477L67.8495 189.235Z" fill="#0A3B29"/>
<path d="M76.4831 209.897H58.3839C58.2873 208.988 58.3008 208.07 58.4242 207.164C58.4466 206.94 58.4735 206.716 58.5049 206.452C58.5871 205.867 58.6993 205.287 58.8409 204.714C59.1724 203.302 59.6831 201.484 60.1849 199.844C60.8703 197.644 61.5647 195.758 61.8245 195.61C62.6578 195.135 66.8869 195.077 67.8412 195.973C68.7954 196.869 70.6994 200.319 70.6994 200.319C70.6994 200.319 73.5576 200.023 75.045 202.46C76.5324 204.897 76.4831 209.897 76.4831 209.897Z" fill="#0A3B29"/>
<path d="M66.6576 202.796H66.5949C62.9571 201.699 62.6883 196.972 62.7779 196.497C62.7886 196.438 62.8225 196.385 62.8721 196.351C62.9216 196.316 62.9828 196.303 63.0423 196.314C63.1017 196.324 63.1544 196.358 63.1888 196.408C63.2233 196.457 63.2366 196.519 63.2259 196.578C63.1543 196.959 63.4275 201.367 66.7338 202.366C66.7805 202.386 66.8192 202.421 66.8434 202.465C66.8677 202.51 66.876 202.562 66.8672 202.612C66.8583 202.661 66.8328 202.707 66.7947 202.741C66.7566 202.774 66.7083 202.794 66.6576 202.796Z" fill="#2EA67A"/>
<path d="M76.4831 209.897H58.3839C58.2873 208.988 58.3008 208.07 58.4242 207.164H65.5922C65.534 200.552 70.7173 200.314 70.7173 200.314C70.7173 200.314 73.5756 200.019 75.0629 202.456C76.5503 204.893 76.4831 209.897 76.4831 209.897Z" fill="#EA586E"/>
<path d="M61.9227 202.944C61.6091 204.499 60.6011 205.605 59.6827 205.422C59.4992 205.375 59.3283 205.289 59.182 205.169C59.0356 205.049 58.9175 204.898 58.8359 204.727C59.1675 203.316 59.6782 201.497 60.1799 199.857C60.379 199.772 60.5991 199.749 60.8116 199.79C61.7479 199.96 62.2363 201.376 61.9227 202.944Z" fill="#EA586E"/>
<path d="M68.3242 106.888C68.3242 106.888 67.0743 113.496 66.8369 116.476C66.5994 119.455 65.6855 154.345 65.6855 154.345C65.6855 154.345 63.9383 160.774 63.7009 163.713C63.4634 166.651 62.5898 186.113 62.5898 186.113L69.2606 185.638C69.2606 185.638 79.345 154.515 82.6782 144.511C86.0113 134.508 91.571 125.933 91.571 125.933C91.571 125.933 93.6228 112.417 94.1111 106.879C95.0609 96.0691 72.0785 88.3277 68.3242 106.888Z" fill="#0E563B"/>
<path d="M91.5667 126.143C91.5357 126.15 91.5036 126.15 91.4726 126.143C91.4288 126.124 91.3926 126.09 91.3692 126.048C91.3458 126.006 91.3365 125.958 91.3427 125.91L93.8828 106.857C93.8906 106.797 93.9216 106.744 93.969 106.707C94.0165 106.67 94.0766 106.654 94.136 106.662C94.1954 106.67 94.2493 106.701 94.2858 106.748C94.3224 106.796 94.3386 106.856 94.3308 106.915L91.8848 125.247L94.4339 122.403C95.5494 116.659 97.0233 101.794 97.0368 101.642C97.0427 101.583 97.072 101.528 97.1182 101.49C97.1644 101.453 97.2237 101.435 97.2832 101.441C97.3426 101.447 97.3972 101.476 97.435 101.522C97.4728 101.568 97.4907 101.628 97.4848 101.687C97.4848 101.839 95.984 116.829 94.864 122.546C94.8562 122.586 94.8376 122.623 94.8102 122.653L91.7324 126.09C91.7098 126.109 91.6835 126.124 91.655 126.133C91.6265 126.142 91.5965 126.146 91.5667 126.143Z" fill="#0A3B29"/>
<path d="M64.3375 182.278H64.3151C64.2857 182.275 64.257 182.266 64.2309 182.252C64.2048 182.238 64.1817 182.219 64.1629 182.196C64.1442 182.174 64.1302 182.147 64.1217 182.119C64.1132 182.09 64.1104 182.061 64.1135 182.031C64.1987 181.202 66.1878 161.661 66.8015 159.215C67.4153 156.769 67.9977 153.216 68.0067 153.216C68.0067 153.073 68.5622 136.192 68.6383 130.368C68.7145 124.544 68.365 112.869 68.3606 112.753C68.3594 112.723 68.364 112.694 68.3741 112.666C68.3843 112.638 68.3998 112.613 68.4198 112.591C68.4398 112.57 68.4638 112.552 68.4905 112.54C68.5173 112.528 68.5462 112.521 68.5756 112.52C68.6347 112.518 68.692 112.54 68.7355 112.58C68.7789 112.62 68.8051 112.676 68.8086 112.735C68.8086 112.851 69.167 124.557 69.0863 130.368C69.0057 136.178 68.4546 153.068 68.4502 153.216C68.4502 153.279 67.8812 156.854 67.254 159.3C66.6268 161.746 64.566 181.848 64.566 182.054C64.566 182.083 64.5601 182.113 64.5485 182.14C64.537 182.168 64.5201 182.193 64.4988 182.214C64.4775 182.235 64.4523 182.251 64.4246 182.262C64.3969 182.273 64.3673 182.278 64.3375 182.278Z" fill="#0A3B29"/>
<path d="M61.896 183.761C61.2643 183.895 60.7043 189.477 60.8835 190.369C61.0627 191.26 64.2793 191.56 65.5875 191.619C66.8299 191.643 68.0648 191.42 69.2208 190.964C69.8166 190.669 71.4249 183.819 71.3622 183.523C71.2995 183.227 62.7203 183.581 61.896 183.761Z" fill="#B3EBD6"/>
<path d="M124.037 65.5021C123.881 66.4563 121.735 69.9462 120.785 70.5018C120.261 70.8109 114.898 71.1379 108.805 70.9498C104.818 70.8826 100.842 70.4855 96.92 69.7626C96.145 69.6013 95.4147 69.4176 94.7427 69.2205C86.4861 66.761 87.9959 53.0253 101.095 55.2474C101.543 55.328 112.605 57.5501 112.605 57.5501L111.493 52.071L114.661 52.1562L120.306 52.3085C120.306 52.3085 124.199 64.5523 124.037 65.5021Z" fill="#EA586E"/>
<path d="M108.805 70.9633C104.818 70.8961 100.842 70.4991 96.92 69.7761C96.3242 67.8766 96.1629 65.8427 96.472 65.1841C97.1037 63.9163 100.083 62.7246 100.083 62.7246L108.805 70.9633Z" fill="#0A3B29"/>
<path d="M119.235 52.8638L112.604 57.5454L111.493 52.0664L114.661 52.1515C116.977 52.5099 119.235 52.8638 119.235 52.8638Z" fill="#0A3B29"/>
<path d="M119.235 66.5012C119.181 66.5017 119.129 66.4826 119.088 66.4474C116.09 63.8804 112.887 58.7642 112.851 58.7149C112.82 58.6644 112.81 58.6035 112.823 58.5455C112.837 58.4876 112.873 58.4373 112.923 58.4058C112.974 58.3743 113.034 58.3642 113.092 58.3776C113.15 58.3911 113.201 58.427 113.232 58.4775C113.264 58.5268 116.431 63.5847 119.379 66.0935C119.419 66.1214 119.449 66.1619 119.464 66.2086C119.48 66.2553 119.479 66.3057 119.463 66.3521C119.446 66.3984 119.415 66.4381 119.374 66.465C119.333 66.492 119.284 66.5047 119.235 66.5012Z" fill="#F6B6C0"/>
<path d="M110.127 49.0695C110.033 49.3741 110.306 54.5485 110.364 54.786C110.423 55.0234 114.947 56.1569 117.631 55.7985C120.314 55.4401 121.977 53.8317 122.039 53.4151C122.102 52.9985 120.373 48.2362 120.194 48.1153C118.487 47.7611 116.755 47.5424 115.015 47.4612C113.639 47.4612 110.364 48.2945 110.127 49.0695Z" fill="#2EA67A"/>
<path d="M110.979 45.4182C111.323 46.6576 111.587 47.9175 111.772 49.1904C111.772 49.1904 113.913 49.943 115.423 49.8669C116.323 49.8185 117.185 49.4843 117.882 48.9126L115.342 44.2669C115.342 44.2669 115.302 39.5449 114.894 38.4429C114.487 37.3408 113.94 36.1401 113.94 36.1401L107.789 37.2512C107.789 37.2512 108.085 40.8038 108.085 41.8477C108.085 42.8915 110.979 45.4182 110.979 45.4182Z" fill="#F4B86A"/>
<path d="M108.689 104.321C108.689 104.796 107.694 106.382 106.664 106.741C105.634 107.099 99.4378 109.361 88.9591 109.599C78.4804 109.836 66.6891 107.336 66.6891 107.336C66.6891 107.336 65.7348 106.741 66.0932 104.716C66.4516 102.691 68.1988 99.6398 67.7239 92.1716C67.6971 91.7684 67.6791 91.3025 67.6791 90.8007C67.6388 87.2167 68.1002 81.2359 68.6602 75.4119C69.4756 66.8999 70.4971 58.6926 70.4971 58.6926C74.1232 55.9812 78.3172 54.1278 82.7633 53.2718C90.6615 52.7207 100.589 55.1758 100.589 55.1758C104.953 69.7044 104.173 95.787 104.594 97.2564C105.015 98.7258 106.185 99.9444 106.462 100.428C106.74 100.912 106.7 102.413 106.7 102.413C106.7 102.413 108.689 103.846 108.689 104.321Z" fill="#EA586E"/>
<path d="M103.278 70.4031C103.222 70.4034 103.168 70.3829 103.127 70.3456C103.085 70.3083 103.059 70.2569 103.054 70.2015C102.646 65.6716 101.897 61.1788 100.814 56.7615C100.799 56.7021 100.808 56.6392 100.84 56.5867C100.871 56.5342 100.922 56.4964 100.982 56.4815C101.041 56.4667 101.104 56.476 101.156 56.5075C101.209 56.539 101.247 56.5901 101.262 56.6495C102.342 61.0896 103.086 65.6048 103.488 70.1567C103.491 70.1861 103.488 70.2159 103.48 70.2443C103.471 70.2726 103.457 70.299 103.439 70.3219C103.42 70.3449 103.397 70.3638 103.371 70.3778C103.345 70.3917 103.316 70.4003 103.287 70.4031H103.264H103.278Z" fill="#F6B6C0"/>
<path d="M75.7705 72.5759C75.5868 72.6386 70.063 85.3215 67.6841 90.8095C67.6438 87.2255 68.1052 81.2447 68.6652 75.4207L75.7705 72.5759Z" fill="#0A3B29"/>
<path d="M92.3147 104.545C87.4595 104.535 82.613 104.135 77.8219 103.349C77.7925 103.344 77.7643 103.334 77.7389 103.318C77.7135 103.303 77.6915 103.282 77.674 103.258C77.6565 103.234 77.644 103.207 77.637 103.178C77.6301 103.149 77.629 103.119 77.6337 103.089C77.6384 103.06 77.6489 103.032 77.6645 103.006C77.6801 102.981 77.7005 102.959 77.7247 102.941C77.7488 102.924 77.7761 102.911 77.8051 102.904C77.8341 102.898 77.8641 102.896 77.8935 102.901C94.2948 105.562 105.11 102.932 105.222 102.901C105.251 102.894 105.281 102.893 105.311 102.898C105.341 102.902 105.37 102.913 105.396 102.929C105.421 102.945 105.444 102.965 105.462 102.99C105.479 103.014 105.492 103.042 105.499 103.071C105.506 103.101 105.508 103.131 105.503 103.161C105.498 103.191 105.488 103.22 105.472 103.246C105.456 103.271 105.435 103.294 105.411 103.312C105.386 103.329 105.358 103.342 105.329 103.349C105.257 103.367 100.41 104.545 92.3147 104.545Z" fill="#F6B6C0"/>
<path d="M73.2299 107.247C73.1936 107.246 73.1579 107.237 73.1259 107.22C73.0939 107.203 73.0665 107.178 73.0462 107.148C71.7022 105.146 72.0785 103.595 72.5982 101.454C73.0978 99.6907 73.3983 97.8769 73.4942 96.0466C73.7271 90.1958 73.4942 80.6579 73.4942 80.5593C73.4936 80.5299 73.4988 80.5006 73.5095 80.4732C73.5202 80.4458 73.5362 80.4208 73.5566 80.3996C73.577 80.3784 73.6014 80.3614 73.6283 80.3496C73.6553 80.3378 73.6843 80.3314 73.7137 80.3308C73.7721 80.3329 73.8277 80.3564 73.8699 80.3969C73.9121 80.4374 73.9378 80.492 73.9422 80.5503C73.9422 80.6444 74.1796 90.2002 73.9422 96.0646C73.8497 97.9246 73.5492 99.7684 73.0462 101.562C72.5131 103.667 72.1502 105.056 73.4091 106.893C73.4328 106.926 73.4469 106.965 73.45 107.006C73.453 107.047 73.4449 107.087 73.4264 107.124C73.408 107.16 73.3799 107.191 73.3453 107.213C73.3106 107.234 73.2707 107.246 73.2299 107.247Z" fill="#F6B6C0"/>
<path d="M87.8973 50.624C86.2621 50.5613 83.6413 50.6822 83.6413 50.6822L80.8145 55.0592C80.8145 55.0592 83.8519 57.4112 86.9162 57.8592L89.7431 55.1712L92.0055 57.4918C93.1021 56.6773 94.1191 55.7608 95.0429 54.7546L92.9597 51.511C92.9597 51.511 89.5057 50.6912 87.8973 50.624Z" fill="#2EA67A"/>
<path d="M70.336 58.7865C64.2387 62.7737 54.6157 84.9676 54.535 87.6645C54.4544 90.3615 60.0947 103.224 60.0947 103.224L67.5091 97.637L64.7002 88.229C64.7002 88.229 70.2598 80.613 75.815 73.9378C81.3702 67.2626 76.1242 54.9919 70.336 58.7865Z" fill="#EA586E"/>
<path d="M70.0536 81.3435C70.0113 81.3442 69.9696 81.3328 69.9334 81.3107C69.8973 81.2886 69.8681 81.2567 69.8493 81.2187C69.8306 81.1807 69.823 81.1382 69.8274 81.0961C69.8319 81.0539 69.8482 81.0139 69.8744 80.9806C71.9397 78.2926 73.8796 75.8914 75.6357 73.7858C77.5666 71.4696 78.3237 68.2082 77.7637 64.8258C77.2888 62.084 75.9717 59.7679 74.3007 58.7867C74.2507 58.7559 74.2148 58.7067 74.2008 58.6496C74.1867 58.5926 74.1956 58.5323 74.2256 58.4818C74.2556 58.4313 74.3042 58.3946 74.3609 58.3795C74.4177 58.3645 74.4781 58.3724 74.5292 58.4015C76.3212 59.4498 77.71 61.8824 78.2072 64.7496C78.812 68.244 78.0012 71.6309 75.9672 74.0501C74.2111 76.1557 72.2802 78.5704 70.2149 81.2181C70.1999 81.2503 70.1775 81.2785 70.1494 81.3003C70.1214 81.3221 70.0885 81.3369 70.0536 81.3435Z" fill="#F6B6C0"/>
<path d="M63.6603 88.4442C63.6262 88.4444 63.5925 88.4367 63.5617 88.4218C61.5905 87.4362 57.9841 88.1172 57.9483 88.1217C57.8889 88.1329 57.8274 88.1202 57.7774 88.0861C57.7275 88.0521 57.693 87.9996 57.6817 87.9402C57.6705 87.8808 57.6832 87.8193 57.7173 87.7694C57.7513 87.7194 57.8038 87.6849 57.8632 87.6737C58.0155 87.6423 61.6533 86.9569 63.7633 88.0097C63.817 88.0269 63.8621 88.0638 63.8898 88.1129C63.9175 88.162 63.9256 88.2197 63.9126 88.2745C63.8996 88.3294 63.8664 88.3773 63.8197 88.4088C63.7729 88.4402 63.716 88.4529 63.6603 88.4442Z" fill="#F6B6C0"/>
<path d="M69.8518 100.468C69.8966 100.831 69.2783 102.26 68.3062 103.573C67.8535 104.218 67.312 104.795 66.6979 105.289C64.8476 106.718 61.7699 107.377 61.5145 107.314C61.2591 107.251 58.8265 103.981 58.6562 102.668C58.6562 102.668 59.5522 98.4434 62.2402 96.2975C64.9282 94.1516 67.6611 95.0431 67.8358 95.5225C68.0105 96.0018 69.7935 99.9308 69.8518 100.468Z" fill="#2EA67A"/>
<path d="M68.3063 103.573C67.8536 104.218 67.3122 104.796 66.698 105.289C64.8478 106.718 61.77 107.377 61.5146 107.314C61.5146 107.314 63.7546 101.217 68.3063 103.573Z" fill="#0A3B29"/>
<path d="M63.2617 104.832C63.2617 104.832 64.6505 101.499 67.0742 101.458L71.2809 108.367C71.2809 108.367 69.6144 111.382 67.9075 112.735L67.3923 109.72C67.3923 109.72 64.2563 106.36 63.2617 104.832Z" fill="#F4B86A"/>
<path d="M67.5138 113.254C67.4682 113.254 67.4238 113.239 67.3866 113.213C67.3494 113.187 67.3211 113.15 67.3055 113.107C67.2899 113.064 67.2878 113.017 67.2994 112.973C67.311 112.929 67.3358 112.89 67.3704 112.86C68.8659 111.515 70.1337 109.937 71.1247 108.187C71.1381 108.16 71.157 108.136 71.1802 108.116C71.2034 108.096 71.2303 108.081 71.2594 108.072C71.2885 108.063 71.3191 108.061 71.3494 108.064C71.3797 108.067 71.409 108.076 71.4355 108.091C71.462 108.106 71.4852 108.126 71.5037 108.151C71.5222 108.175 71.5355 108.203 71.5429 108.232C71.5503 108.262 71.5516 108.292 71.5467 108.322C71.5418 108.353 71.5308 108.381 71.5144 108.407C70.4992 110.207 69.1928 111.827 67.6482 113.201C67.6106 113.233 67.5633 113.252 67.5138 113.254Z" fill="#0A3B29"/>
<path d="M90.1507 46.2291V51.8336L89.3175 52.2816C88.0452 52.158 86.8354 51.6712 85.832 50.8793C85.832 50.8793 86.0112 44.9568 86.0112 44.8672H86.056L90.1507 46.2291Z" fill="#F4B86A"/>
<path d="M90.1514 46.2293V49.9387C86.6435 49.9387 86.1194 46.3009 86.0566 44.8853L90.1514 46.2293Z" fill="#0A3B29"/>
<path d="M83.1491 40.768C83.1491 40.768 85.6444 48.9261 91.0025 47.9808C96.3606 47.0355 93.7532 31.7274 88.0367 32.8563C82.3203 33.9853 81.7827 36.5613 83.1491 40.768Z" fill="#F4B86A"/>
<path d="M84.3404 42.1613L85.1737 41.7133C85.1737 41.7133 84.7257 40.1632 84.2777 38.528C83.8297 36.8928 84.9363 35.9968 86.0697 36.624C86.0697 36.624 86.6969 34.9261 88.1843 35.2576C89.6716 35.5891 90.59 41.4221 94.5504 40.6336C98.5107 39.8451 97.5296 35.3069 97.5296 35.3069C97.5296 35.3069 96.3692 36.9734 94.9088 36.3462C93.4483 35.719 94.5862 31.4182 93.5648 28.2822C92.5433 25.1462 84.551 23.744 80.8908 34.6169C80.8908 34.6169 78.1536 34.5363 77.3741 36.9779C76.5945 39.4195 79.5469 45.8438 86.2489 46.2336C85.3094 45.234 84.5405 44.0868 83.9731 42.8377L84.3404 42.1613Z" fill="#072E20"/>
<path d="M83.9688 41.2161C83.9688 41.2161 82.7771 39.6437 81.2808 40.6158C79.7845 41.588 81.7288 44.7598 85.3935 43.4427L83.9688 41.2161Z" fill="#F4B86A"/>
<path d="M84.3273 42.8512C84.2925 42.8512 84.2582 42.8431 84.2271 42.8275C84.196 42.812 84.169 42.7894 84.1481 42.7616C83.0102 41.2473 81.6976 41.5117 81.6841 41.5117C81.6547 41.5178 81.6244 41.5182 81.5948 41.5126C81.5653 41.5071 81.5371 41.4957 81.512 41.4793C81.4868 41.4629 81.4651 41.4417 81.4481 41.4168C81.4312 41.392 81.4193 41.3641 81.4131 41.3347C81.4069 41.3053 81.4066 41.2749 81.4121 41.2454C81.4177 41.2159 81.429 41.1877 81.4454 41.1625C81.4619 41.1374 81.4831 41.1157 81.5079 41.0987C81.5327 41.0817 81.5606 41.0698 81.59 41.0637C81.6572 41.0637 83.1984 40.7366 84.5065 42.4793C84.5357 42.5124 84.5544 42.5533 84.5604 42.5969C84.5664 42.6406 84.5594 42.685 84.5403 42.7247C84.5211 42.7644 84.4907 42.7976 84.4529 42.8201C84.415 42.8426 84.3713 42.8534 84.3273 42.8512Z" fill="#0A3B29"/>
<path d="M82.9832 43.0394C82.9473 43.0396 82.9119 43.0312 82.8799 43.0148C82.8479 42.9984 82.8204 42.9746 82.7995 42.9453C82.6579 42.7124 82.583 42.4451 82.583 42.1725C82.583 41.9 82.6579 41.6326 82.7995 41.3997C82.8281 41.3475 82.8762 41.3086 82.9333 41.2918C82.9904 41.275 83.0519 41.2816 83.1042 41.3101C83.1564 41.3386 83.1953 41.3868 83.2121 41.4439C83.2289 41.501 83.2223 41.5625 83.1938 41.6148C83.0967 41.7773 83.0454 41.9631 83.0454 42.1524C83.0454 42.3417 83.0967 42.5275 83.1938 42.69C83.2182 42.7254 83.2318 42.7672 83.2331 42.8102C83.2344 42.8532 83.2233 42.8957 83.2011 42.9325C83.1789 42.9694 83.1465 42.9991 83.1079 43.018C83.0692 43.037 83.026 43.0444 82.9832 43.0394Z" fill="#0A3B29"/>
<path d="M85.9844 40.1319C85.9844 40.1319 86.4324 38.2727 87.8346 38.6132C87.816 38.5144 87.8334 38.4123 87.8835 38.3252C87.9336 38.2381 88.0132 38.1718 88.1079 38.1383C88.4394 38.0532 88.7127 39.0836 88.7127 39.0836C87.7423 39.247 86.8145 39.6035 85.9844 40.1319Z" fill="#0A3B29"/>
<path d="M93.2913 39.2718C93.2913 39.2718 92.794 37.5963 91.9204 38.2952C91.9016 38.2204 91.8616 38.1527 91.8051 38.1002C91.7487 38.0478 91.6782 38.0128 91.6023 37.9995C91.2215 38.0219 91.3738 39.0165 91.3738 39.0165C92.0239 38.8946 92.6958 38.9841 93.2913 39.2718Z" fill="#0A3B29"/>
<path d="M92.556 41.7226C92.9441 41.6449 93.1809 41.1925 93.0847 40.7122C92.9885 40.2318 92.5959 39.9054 92.2077 39.9831C91.8196 40.0608 91.5828 40.5132 91.679 40.9936C91.7752 41.4739 92.1678 41.8004 92.556 41.7226Z" fill="#0A3B29"/>
<path d="M92.5165 40.7028C92.6208 40.6819 92.6884 40.5804 92.6676 40.4761C92.6467 40.3717 92.5452 40.3041 92.4408 40.325C92.3365 40.3459 92.2689 40.4474 92.2898 40.5517C92.3107 40.656 92.4121 40.7237 92.5165 40.7028Z" fill="#F5F5F5"/>
<path d="M90.8858 44.1684H90.8186C90.7892 44.1672 90.7603 44.1603 90.7336 44.1479C90.7068 44.1356 90.6828 44.1181 90.6628 44.0965C90.6428 44.0748 90.6273 44.0495 90.6172 44.0218C90.607 43.9942 90.6024 43.9648 90.6036 43.9354C90.6071 43.8764 90.6333 43.821 90.6767 43.7809C90.7202 43.7408 90.7774 43.7191 90.8366 43.7204C90.8679 43.7204 91.6385 43.7473 91.7326 43.2186C91.7438 43.1887 91.7468 43.1563 91.7413 43.1247C91.7358 43.0932 91.7219 43.0638 91.7012 43.0394C91.454 42.9216 91.1733 42.8947 90.9082 42.9633C90.8507 42.9738 90.7913 42.9615 90.7427 42.9288C90.6942 42.8962 90.6603 42.8458 90.6484 42.7885L90.2945 41.0906C90.2826 41.0312 90.2948 40.9695 90.3284 40.9191C90.362 40.8687 90.4143 40.8337 90.4737 40.8218C90.5331 40.8099 90.5948 40.8221 90.6452 40.8557C90.6956 40.8894 90.7306 40.9416 90.7425 41.001L91.0516 42.4973C91.2204 42.4673 91.3935 42.4716 91.5606 42.5101C91.7276 42.5486 91.8852 42.6204 92.0238 42.7213C92.0975 42.7961 92.151 42.8883 92.1792 42.9894C92.2074 43.0905 92.2094 43.1972 92.185 43.2993C92.0506 43.9892 91.3114 44.1684 90.8858 44.1684Z" fill="#0A3B29"/>
<path d="M87.1355 41.664C87.0907 41.6643 87.0469 41.6511 87.0097 41.6262C86.9725 41.6014 86.9436 41.5659 86.9267 41.5244C86.9098 41.483 86.9057 41.4374 86.915 41.3936C86.9243 41.3498 86.9465 41.3098 86.9787 41.2787C87.2674 41.0285 87.6264 40.8736 88.0064 40.8351C88.3865 40.7966 88.7692 40.8765 89.1022 41.0637C89.1307 41.0755 89.1564 41.0931 89.1777 41.1153C89.199 41.1375 89.2155 41.1639 89.2262 41.1928C89.2369 41.2217 89.2415 41.2525 89.2398 41.2832C89.238 41.314 89.2299 41.344 89.216 41.3715C89.2021 41.399 89.1827 41.4233 89.159 41.443C89.1352 41.4626 89.1077 41.4772 89.0781 41.4857C89.0485 41.4942 89.0175 41.4966 88.9869 41.4925C88.9564 41.4885 88.927 41.4783 88.9006 41.4624C88.6501 41.3189 88.3615 41.2557 88.0739 41.2813C87.7863 41.3069 87.5135 41.4202 87.2923 41.6057C87.2495 41.6447 87.1933 41.6655 87.1355 41.664Z" fill="#0A3B29"/>
<path d="M91.7147 45.6959C91.7147 45.6959 90.1288 47.3311 88.4219 45.3062L91.7147 45.6959Z" fill="#F5F5F5"/>
<path d="M100.352 44.3072L97.8837 44.3341C97.8837 44.3341 95.796 42.4301 97.7045 39.8093L99.6309 39.3389C100.251 39.905 100.644 40.6772 100.737 41.5117C100.803 42.4601 100.672 43.4118 100.352 44.3072Z" fill="#0E754F"/>
<path d="M100.352 44.3072C99.7778 44.0685 99.2978 43.6476 98.9861 43.1092C98.6745 42.5709 98.5484 41.945 98.6275 41.328C98.7061 40.5651 99.0615 39.8574 99.6265 39.3389C100.247 39.905 100.64 40.6772 100.733 41.5117C100.8 42.4598 100.67 43.4115 100.352 44.3072Z" fill="#0A3B29"/>
<path d="M99.5682 39.9391L119.316 35.5308L119.764 42.2776L99.7967 43.5096C99.7967 43.5096 98.3362 41.6056 99.5682 39.9391Z" fill="#0E754F"/>
<path d="M129.329 43.1154C129.329 43.1154 124.58 43.3483 121.166 43.4872C119.244 43.5723 117.748 43.6261 117.748 43.5902C117.748 43.5544 113.716 39.1102 116.946 33.9717L120.082 33.2594L128.276 31.3867L129.329 43.1154Z" fill="#0E754F"/>
<path d="M121.166 43.4874C119.244 43.5725 117.748 43.6262 117.748 43.5904C117.748 43.5546 113.716 39.1104 116.946 33.9718L120.082 33.2595C119.043 35.392 117.416 40.1005 121.166 43.4874Z" fill="#0A3B29"/>
<path d="M144.776 43.2767C144.776 43.2767 138.132 43.6037 133.352 43.7964C130.664 43.9173 128.567 43.989 128.567 43.9442C128.567 43.8188 122.9 37.6722 127.447 30.5042L131.815 29.5052L143.28 26.8799L144.776 43.2767Z" fill="#0E754F"/>
<path d="M133.352 43.7966C130.664 43.9175 128.567 43.9892 128.567 43.9444C128.567 43.819 122.9 37.6724 127.447 30.5044L131.815 29.5054C130.368 32.4443 128.128 39.0567 133.352 43.7966Z" fill="#0A3B29"/>
<path d="M150.712 43.8682L145.076 44.3162C145.076 44.3162 142.218 39.993 141.94 35.3024C141.662 30.6119 143.41 25.3434 143.41 25.3434L149.565 24.3892C150.584 27.4624 151.186 30.6581 151.357 33.8912C151.411 37.2289 151.196 40.5654 150.712 43.8682Z" fill="#0A3B29"/>
<path d="M150.712 43.8681C149.118 40.9211 148.141 37.6805 147.84 34.3436C147.437 29.4963 149.565 24.3801 149.565 24.3801C149.565 24.3801 151.59 29.0259 151.746 33.8643C151.776 37.2271 151.429 40.5826 150.712 43.8681Z" fill="#B3EBD6"/>
<path d="M107.762 36.0684C107.762 36.0684 106.996 37.6946 106.996 38.1426C106.996 38.5906 107.354 40.0466 107.919 40.4632C108.1 40.5795 108.309 40.644 108.524 40.6495C108.739 40.655 108.951 40.6015 109.138 40.4946C109.53 40.6244 109.944 40.6746 110.356 40.6424C110.584 40.554 110.803 40.4445 111.01 40.3154C111.359 40.4097 111.724 40.4295 112.081 40.3736C112.343 40.2813 112.584 40.1399 112.793 39.957C113.052 40.143 113.374 40.2187 113.689 40.1676C114.048 40.0197 114.254 38.6488 114.375 37.8156C114.496 36.9823 114.227 35.6428 113.989 35.3426C113.752 35.0424 112.887 35.253 112.887 35.253C112.59 35.0621 112.244 34.9607 111.89 34.9607C111.537 34.9607 111.191 35.0621 110.894 35.253C110.894 35.253 109.702 34.7154 108.99 35.6204C108.766 35.5281 108.516 35.523 108.289 35.6059C108.062 35.6888 107.874 35.8538 107.762 36.0684Z" fill="#F4B86A"/>
<path d="M108.604 36.2119C108.604 36.2119 108.479 36.4852 108.349 36.8256C108.205 37.1741 108.117 37.543 108.089 37.9188C108.101 38.1356 108.143 38.3497 108.214 38.5549C108.399 39.0989 108.616 39.6314 108.864 40.1498C108.892 40.199 108.938 40.2358 108.992 40.2528C109.046 40.2697 109.104 40.2656 109.155 40.2412C109.206 40.2167 109.246 40.1739 109.267 40.1212C109.288 40.0685 109.288 40.0099 109.267 39.9572L109.151 39.7063C109.048 39.4733 108.891 39.1149 108.761 38.7655C108.698 38.5908 108.64 38.416 108.6 38.2682C108.565 38.1561 108.544 38.0403 108.537 37.9232C108.567 37.5998 108.646 37.2827 108.77 36.9824C108.828 36.8212 108.891 36.6733 108.936 36.5703L109.012 36.4045C109.037 36.3505 109.039 36.2887 109.019 36.2328C108.998 36.177 108.956 36.1316 108.902 36.1066C108.848 36.0817 108.786 36.0792 108.73 36.0998C108.674 36.1204 108.629 36.1623 108.604 36.2164V36.2119Z" fill="#0A3B29"/>
<path d="M110.365 35.9878C110.365 35.9878 110.239 36.261 110.109 36.6015C109.966 36.95 109.878 37.3189 109.85 37.6946C109.862 37.9115 109.904 38.1256 109.975 38.3308C110.159 38.8746 110.374 39.4072 110.62 39.9257C110.648 39.9749 110.694 40.0117 110.748 40.0287C110.802 40.0456 110.86 40.0415 110.911 40.017C110.963 39.9926 111.003 39.9498 111.023 39.8971C111.044 39.8444 111.044 39.7858 111.023 39.733L110.907 39.4822C110.804 39.2492 110.647 38.8908 110.517 38.5414C110.454 38.3666 110.396 38.1919 110.356 38.0441C110.322 37.9319 110.3 37.8162 110.293 37.6991C110.323 37.3757 110.402 37.0585 110.526 36.7583C110.584 36.597 110.647 36.4492 110.692 36.3462L110.768 36.1804C110.78 36.1536 110.787 36.1247 110.789 36.0952C110.79 36.0658 110.785 36.0364 110.775 36.0087C110.765 35.981 110.749 35.9557 110.729 35.934C110.709 35.9123 110.685 35.8948 110.658 35.8825C110.631 35.8701 110.603 35.8632 110.573 35.862C110.544 35.8608 110.514 35.8655 110.487 35.8757C110.459 35.8859 110.434 35.9014 110.412 35.9214C110.39 35.9414 110.373 35.9655 110.36 35.9922L110.365 35.9878Z" fill="#0A3B29"/>
<path d="M112.448 35.7639C112.448 35.7639 112.309 36.0282 112.17 36.3687C112.012 36.7118 111.909 37.0777 111.865 37.4529C111.867 37.665 111.897 37.876 111.955 38.0801C112.117 38.6301 112.312 39.1701 112.537 39.6973C112.561 39.752 112.605 39.795 112.661 39.8168C112.716 39.8387 112.778 39.8376 112.833 39.8138C112.888 39.7901 112.931 39.7455 112.952 39.6901C112.974 39.6346 112.973 39.5728 112.949 39.5181L112.842 39.2628C112.748 39.0253 112.604 38.6625 112.488 38.3041C112.43 38.1249 112.38 37.9501 112.345 37.8023C112.314 37.6882 112.298 37.5709 112.295 37.4529C112.338 37.1306 112.429 36.8165 112.564 36.521C112.631 36.3597 112.694 36.2164 112.743 36.1133L112.824 35.9476C112.837 35.9214 112.846 35.8928 112.848 35.8634C112.851 35.8341 112.847 35.8045 112.838 35.7764C112.829 35.7483 112.815 35.7223 112.796 35.6998C112.777 35.6773 112.754 35.6587 112.728 35.6452C112.701 35.6316 112.673 35.6234 112.643 35.6209C112.614 35.6184 112.585 35.6218 112.556 35.6307C112.528 35.6396 112.502 35.654 112.48 35.673C112.457 35.6921 112.439 35.7153 112.425 35.7415L112.448 35.7639Z" fill="#0A3B29"/>
<path d="M108.079 38.7878C107.328 39.7047 106.651 40.6799 106.054 41.7043C105.857 42.1523 108.259 44.2445 109.052 44.6432C109.678 44.9386 110.321 45.1974 110.978 45.4182C110.978 45.4182 112.586 44.6432 112.586 43.0752C112.586 41.5072 108.657 41.0502 108.657 41.0502C108.657 41.0502 109.41 38.1741 108.079 38.7878Z" fill="#F4B86A"/>
<path d="M54.862 24.4159C51.7259 24.4159 55.9372 17.1807 60.462 20.0435C60.462 20.0435 60.3813 16.0787 63.7951 15.7606C67.2088 15.4425 68.7589 18.686 68.7768 20.0435C69.899 19.8532 71.0499 19.9222 72.1413 20.2451C74.3813 21.038 73.781 24.4115 71.3887 24.4115H54.862V24.4159Z" fill="#B3EBD6"/>
<path d="M162.677 60.2067C159.541 60.2067 163.753 52.9715 168.277 55.8342C168.277 55.8342 168.197 51.8694 171.61 51.5514C175.024 51.2333 176.574 54.4768 176.592 55.8342C177.714 55.644 178.865 55.713 179.957 56.0358C182.197 56.8288 181.596 60.2022 179.204 60.2022H162.677V60.2067Z" fill="#B3EBD6"/>
<path d="M116.852 84.3226C117.839 84.3226 118.64 83.5223 118.64 82.5351C118.64 81.5479 117.839 80.7476 116.852 80.7476C115.865 80.7476 115.064 81.5479 115.064 82.5351C115.064 83.5223 115.865 84.3226 116.852 84.3226Z" fill="#2EA67A"/>
<path d="M138.23 132.075C138.789 132.075 139.243 131.622 139.243 131.063C139.243 130.503 138.789 130.05 138.23 130.05C137.671 130.05 137.218 130.503 137.218 131.063C137.218 131.622 137.671 132.075 138.23 132.075Z" fill="#2EA67A"/>
<path d="M180.687 85.0348C181.607 85.0348 182.354 84.2886 182.354 83.3682C182.354 82.4478 181.607 81.7017 180.687 81.7017C179.767 81.7017 179.021 82.4478 179.021 83.3682C179.021 84.2886 179.767 85.0348 180.687 85.0348Z" fill="#2EA67A"/>
<path d="M71.7203 39.5404C72.6407 39.5404 73.3868 38.7943 73.3868 37.8738C73.3868 36.9534 72.6407 36.2073 71.7203 36.2073C70.7999 36.2073 70.0537 36.9534 70.0537 37.8738C70.0537 38.7943 70.7999 39.5404 71.7203 39.5404Z" fill="#2EA67A"/>
<path d="M103.277 26.6784C104.527 26.6784 105.539 25.6655 105.539 24.416C105.539 23.1665 104.527 22.1536 103.277 22.1536C102.028 22.1536 101.015 23.1665 101.015 24.416C101.015 25.6655 102.028 26.6784 103.277 26.6784Z" fill="#2EA67A"/>
<path d="M168.103 122.595C168.043 122.595 167.987 122.572 167.945 122.53C167.902 122.488 167.879 122.431 167.879 122.371V120.364C167.879 120.305 167.902 120.248 167.945 120.206C167.987 120.164 168.043 120.14 168.103 120.14C168.162 120.14 168.219 120.164 168.261 120.206C168.303 120.248 168.327 120.305 168.327 120.364V122.371C168.327 122.431 168.303 122.488 168.261 122.53C168.219 122.572 168.162 122.595 168.103 122.595Z" fill="#2EA67A"/>
<path d="M171.476 123.961H169.469C169.41 123.961 169.353 123.938 169.311 123.896C169.269 123.854 169.245 123.797 169.245 123.737C169.245 123.678 169.269 123.621 169.311 123.579C169.353 123.537 169.41 123.513 169.469 123.513H171.476C171.536 123.513 171.593 123.537 171.635 123.579C171.677 123.621 171.7 123.678 171.7 123.737C171.7 123.797 171.677 123.854 171.635 123.896C171.593 123.938 171.536 123.961 171.476 123.961Z" fill="#2EA67A"/>
<path d="M168.103 127.335C168.043 127.335 167.987 127.311 167.945 127.269C167.902 127.227 167.879 127.17 167.879 127.111V125.104C167.879 125.044 167.902 124.988 167.945 124.945C167.987 124.903 168.043 124.88 168.103 124.88C168.162 124.88 168.219 124.903 168.261 124.945C168.303 124.988 168.327 125.044 168.327 125.104V127.111C168.327 127.17 168.303 127.227 168.261 127.269C168.219 127.311 168.162 127.335 168.103 127.335Z" fill="#2EA67A"/>
<path d="M166.737 123.961H164.73C164.67 123.961 164.613 123.938 164.571 123.896C164.529 123.854 164.506 123.797 164.506 123.737C164.506 123.678 164.529 123.621 164.571 123.579C164.613 123.537 164.67 123.513 164.73 123.513H166.737C166.796 123.513 166.853 123.537 166.895 123.579C166.937 123.621 166.961 123.678 166.961 123.737C166.961 123.797 166.937 123.854 166.895 123.896C166.853 123.938 166.796 123.961 166.737 123.961Z" fill="#2EA67A"/>
<path d="M114.414 93.5065C114.355 93.5065 114.298 93.4829 114.256 93.4409C114.214 93.3989 114.19 93.342 114.19 93.2825V91.2755C114.19 91.2161 114.214 91.1591 114.256 91.1171C114.298 91.0751 114.355 91.0515 114.414 91.0515C114.474 91.0515 114.531 91.0751 114.573 91.1171C114.615 91.1591 114.638 91.2161 114.638 91.2755V93.2825C114.638 93.342 114.615 93.3989 114.573 93.4409C114.531 93.4829 114.474 93.5065 114.414 93.5065Z" fill="#2EA67A"/>
<path d="M117.789 94.8728H115.782C115.722 94.8728 115.665 94.8492 115.623 94.8072C115.581 94.7652 115.558 94.7082 115.558 94.6488C115.558 94.5894 115.581 94.5324 115.623 94.4904C115.665 94.4484 115.722 94.4248 115.782 94.4248H117.789C117.848 94.4248 117.905 94.4484 117.947 94.4904C117.989 94.5324 118.013 94.5894 118.013 94.6488C118.013 94.7082 117.989 94.7652 117.947 94.8072C117.905 94.8492 117.848 94.8728 117.789 94.8728Z" fill="#2EA67A"/>
<path d="M114.414 98.2509C114.355 98.2509 114.298 98.2273 114.256 98.1853C114.214 98.1433 114.19 98.0863 114.19 98.0269V96.0199C114.19 95.9605 114.214 95.9035 114.256 95.8615C114.298 95.8195 114.355 95.7959 114.414 95.7959C114.474 95.7959 114.531 95.8195 114.573 95.8615C114.615 95.9035 114.638 95.9605 114.638 96.0199V98.0269C114.638 98.0863 114.615 98.1433 114.573 98.1853C114.531 98.2273 114.474 98.2509 114.414 98.2509Z" fill="#2EA67A"/>
<path d="M113.044 94.8728H111.036C110.977 94.8728 110.92 94.8492 110.878 94.8072C110.836 94.7652 110.812 94.7082 110.812 94.6488C110.812 94.5894 110.836 94.5324 110.878 94.4904C110.92 94.4484 110.977 94.4248 111.036 94.4248H113.044C113.103 94.4248 113.16 94.4484 113.202 94.4904C113.244 94.5324 113.268 94.5894 113.268 94.6488C113.268 94.7082 113.244 94.7652 113.202 94.8072C113.16 94.8492 113.103 94.8728 113.044 94.8728Z" fill="#2EA67A"/>
<path d="M58.5804 48.4602C58.521 48.4602 58.4641 48.4366 58.4221 48.3946C58.38 48.3526 58.3564 48.2956 58.3564 48.2362V46.2291C58.3564 46.1697 58.38 46.1127 58.4221 46.0707C58.4641 46.0287 58.521 46.0051 58.5804 46.0051C58.6399 46.0051 58.6968 46.0287 58.7388 46.0707C58.7809 46.1127 58.8045 46.1697 58.8045 46.2291V48.2362C58.8045 48.2956 58.7809 48.3526 58.7388 48.3946C58.6968 48.4366 58.6399 48.4602 58.5804 48.4602Z" fill="#2EA67A"/>
<path d="M61.9537 49.8267H59.9467C59.8872 49.8267 59.8303 49.8031 59.7883 49.761C59.7463 49.719 59.7227 49.6621 59.7227 49.6027C59.7227 49.5433 59.7463 49.4863 59.7883 49.4443C59.8303 49.4023 59.8872 49.3787 59.9467 49.3787H61.9537C62.0131 49.3787 62.0701 49.4023 62.1121 49.4443C62.1541 49.4863 62.1777 49.5433 62.1777 49.6027C62.1777 49.6621 62.1541 49.719 62.1121 49.761C62.0701 49.8031 62.0131 49.8267 61.9537 49.8267Z" fill="#2EA67A"/>
<path d="M58.5804 53.1999C58.521 53.1999 58.4641 53.1763 58.4221 53.1343C58.38 53.0923 58.3564 53.0353 58.3564 52.9759V50.9689C58.3564 50.9095 58.38 50.8525 58.4221 50.8105C58.4641 50.7685 58.521 50.7449 58.5804 50.7449C58.6399 50.7449 58.6968 50.7685 58.7388 50.8105C58.7809 50.8525 58.8045 50.9095 58.8045 50.9689V52.9759C58.8045 53.0353 58.7809 53.0923 58.7388 53.1343C58.6968 53.1763 58.6399 53.1999 58.5804 53.1999Z" fill="#2EA67A"/>
<path d="M57.2144 49.8267H55.2074C55.148 49.8267 55.091 49.8031 55.049 49.761C55.007 49.719 54.9834 49.6621 54.9834 49.6027C54.9834 49.5433 55.007 49.4863 55.049 49.4443C55.091 49.4023 55.148 49.3787 55.2074 49.3787H57.2144C57.2739 49.3787 57.3308 49.4023 57.3728 49.4443C57.4148 49.4863 57.4384 49.5433 57.4384 49.6027C57.4384 49.6621 57.4148 49.719 57.3728 49.761C57.3308 49.8031 57.2739 49.8267 57.2144 49.8267Z" fill="#2EA67A"/>
<path d="M131.501 55.9775L145.017 56.2732C145.433 56.4259 145.876 56.4889 146.318 56.458C146.759 56.4271 147.19 56.303 147.58 56.094L158.179 52.6399L155.321 77.5308L145.196 83.2473C145.196 83.2473 144.78 84.6764 142.396 84.318L127.451 89.8553L131.501 55.9775Z" fill="#2EA67A"/>
<path d="M127.868 56.5734L131.501 55.9775L127.451 89.8553L123.997 89.4387L127.868 56.5734Z" fill="#B3EBD6"/>
<path d="M145.25 82.4812C145.192 82.4756 145.138 82.447 145.1 82.4017C145.062 82.3564 145.044 82.2981 145.049 82.2393L147.324 56.6765C147.331 56.6182 147.36 56.5648 147.405 56.5273C147.45 56.4898 147.508 56.471 147.566 56.4749C147.625 56.4805 147.679 56.5091 147.717 56.5544C147.755 56.5997 147.773 56.658 147.768 56.7168L145.492 82.2796C145.487 82.3383 145.458 82.3924 145.413 82.4301C145.367 82.4679 145.309 82.4862 145.25 82.4812Z" fill="#0A3B29"/>
<path d="M142.491 83.3279C142.461 83.3251 142.433 83.3165 142.407 83.3025C142.381 83.2886 142.357 83.2696 142.339 83.2467C142.32 83.2238 142.306 83.1974 142.297 83.169C142.289 83.1407 142.286 83.1109 142.289 83.0815L144.838 57.1468C144.845 57.0877 144.875 57.0336 144.921 56.996C144.967 56.9583 145.026 56.9401 145.085 56.9452C145.114 56.948 145.143 56.9566 145.169 56.9705C145.195 56.9844 145.218 57.0034 145.237 57.0263C145.256 57.0492 145.27 57.0756 145.278 57.104C145.287 57.1324 145.29 57.1621 145.286 57.1916L142.737 83.1263C142.735 83.1558 142.726 83.1844 142.712 83.2105C142.698 83.2366 142.679 83.2597 142.656 83.2785C142.633 83.2972 142.607 83.3112 142.578 83.3197C142.55 83.3282 142.52 83.331 142.491 83.3279Z" fill="#0A3B29"/>
<path d="M149.605 60.4441L149.067 66.752L154.753 64.6688L155.496 58.5984L149.605 60.4441Z" fill="#B3EBD6"/>
<path d="M149.009 72.3386C148.979 72.3442 148.949 72.344 148.92 72.3379C148.891 72.3318 148.863 72.32 148.838 72.3031C148.813 72.2863 148.792 72.2647 148.776 72.2397C148.759 72.2146 148.748 72.1866 148.742 72.1572C148.737 72.1278 148.737 72.0976 148.743 72.0682C148.749 72.0389 148.761 72.0111 148.778 71.9863C148.795 71.9616 148.816 71.9404 148.841 71.924C148.866 71.9076 148.894 71.8962 148.924 71.8906L153.628 69.9553C153.681 69.939 153.738 69.9433 153.789 69.9671C153.839 69.9909 153.879 70.0326 153.9 70.084C153.921 70.1355 153.923 70.1931 153.904 70.2455C153.885 70.2978 153.847 70.3413 153.798 70.3674L149.094 72.3028C149.068 72.3205 149.039 72.3327 149.009 72.3386Z" fill="#0A3B29"/>
<path d="M173.658 83.5205H149.52C148.82 83.5205 148.252 84.0881 148.252 84.7883V101.781C148.252 102.481 148.82 103.049 149.52 103.049H173.658C174.358 103.049 174.926 102.481 174.926 101.781V84.7883C174.926 84.0881 174.358 83.5205 173.658 83.5205Z" fill="#B3EBD6"/>
<path d="M170.576 89.8821H162.024C161.606 89.8821 161.267 90.2211 161.267 90.6392V90.7333C161.267 91.1514 161.606 91.4904 162.024 91.4904H170.576C170.994 91.4904 171.333 91.1514 171.333 90.7333V90.6392C171.333 90.2211 170.994 89.8821 170.576 89.8821Z" fill="#2EA67A"/>
<path d="M170.576 94.1965H162.024C161.606 94.1965 161.267 94.5355 161.267 94.9536V95.0477C161.267 95.4659 161.606 95.8048 162.024 95.8048H170.576C170.994 95.8048 171.333 95.4659 171.333 95.0477V94.9536C171.333 94.5355 170.994 94.1965 170.576 94.1965Z" fill="#2EA67A"/>
<path d="M170.576 98.5151H165.63C165.212 98.5151 164.873 98.8541 164.873 99.2722V99.3663C164.873 99.7845 165.212 100.123 165.63 100.123H170.576C170.994 100.123 171.333 99.7845 171.333 99.3663V99.2722C171.333 98.8541 170.994 98.5151 170.576 98.5151Z" fill="#2EA67A"/>
<path d="M163.565 87.5572C163.976 87.5572 164.309 87.2242 164.309 86.8135C164.309 86.4028 163.976 86.0698 163.565 86.0698C163.154 86.0698 162.821 86.4028 162.821 86.8135C162.821 87.2242 163.154 87.5572 163.565 87.5572Z" fill="#2EA67A"/>
<path d="M167.078 87.5572C167.488 87.5572 167.821 87.2242 167.821 86.8135C167.821 86.4028 167.488 86.0698 167.078 86.0698C166.667 86.0698 166.334 86.4028 166.334 86.8135C166.334 87.2242 166.667 87.5572 167.078 87.5572Z" fill="#2EA67A"/>
<path d="M170.589 87.5572C171 87.5572 171.333 87.2242 171.333 86.8135C171.333 86.4028 171 86.0698 170.589 86.0698C170.179 86.0698 169.846 86.4028 169.846 86.8135C169.846 87.2242 170.179 87.5572 170.589 87.5572Z" fill="#2EA67A"/>
<path d="M138.486 87.3599C138.447 87.3604 138.409 87.3509 138.375 87.3322C138.341 87.3136 138.312 87.2864 138.292 87.2535C138.272 87.2206 138.26 87.1829 138.259 87.1443C138.258 87.1056 138.266 87.0673 138.284 87.0329C138.481 86.6476 138.611 86.4326 138.611 86.4326C138.642 86.3826 138.691 86.3467 138.748 86.3327C138.805 86.3186 138.865 86.3275 138.916 86.3575C138.966 86.3875 139.003 86.4361 139.018 86.4928C139.033 86.5496 139.025 86.61 138.996 86.6611C138.996 86.6611 138.871 86.8716 138.683 87.239C138.664 87.2752 138.636 87.3056 138.601 87.3269C138.566 87.3482 138.526 87.3596 138.486 87.3599Z" fill="#2EA67A"/>
<path d="M155.586 111.633C155.344 111.633 155.102 111.624 154.86 111.606C154.802 111.601 154.747 111.574 154.709 111.529C154.67 111.485 154.651 111.427 154.654 111.368C154.66 111.31 154.688 111.256 154.732 111.218C154.776 111.18 154.833 111.16 154.892 111.162C155.326 111.19 155.761 111.19 156.195 111.162C156.255 111.159 156.313 111.179 156.358 111.218C156.402 111.258 156.429 111.313 156.433 111.373C156.436 111.432 156.416 111.491 156.377 111.535C156.337 111.58 156.282 111.607 156.222 111.61C156.01 111.625 155.798 111.633 155.586 111.633ZM157.535 111.444C157.476 111.45 157.416 111.432 157.37 111.395C157.324 111.357 157.294 111.302 157.289 111.243C157.283 111.183 157.3 111.124 157.338 111.078C157.376 111.032 157.431 111.002 157.49 110.996C157.741 110.947 157.992 110.884 158.238 110.817L158.758 110.66C158.817 110.642 158.882 110.648 158.937 110.677C158.992 110.706 159.033 110.756 159.051 110.815C159.07 110.874 159.064 110.939 159.035 110.994C159.006 111.049 158.956 111.09 158.897 111.108L158.364 111.27C158.108 111.341 157.844 111.409 157.58 111.458H157.535V111.444ZM153.552 111.444H153.507C153.062 111.357 152.622 111.241 152.19 111.099C152.131 111.081 152.081 111.04 152.052 110.985C152.023 110.93 152.017 110.865 152.036 110.806C152.054 110.747 152.095 110.697 152.15 110.668C152.205 110.639 152.27 110.633 152.329 110.651C152.743 110.788 153.165 110.899 153.593 110.983C153.653 110.988 153.708 111.017 153.747 111.064C153.785 111.11 153.804 111.169 153.799 111.229C153.793 111.289 153.764 111.345 153.718 111.383C153.672 111.422 153.612 111.441 153.552 111.435V111.444ZM160.071 110.656C160.011 110.668 159.95 110.656 159.899 110.622C159.849 110.588 159.814 110.536 159.802 110.477C159.79 110.417 159.802 110.356 159.836 110.305C159.869 110.255 159.922 110.22 159.981 110.208C160.389 110.033 160.787 109.841 161.159 109.635C161.212 109.606 161.273 109.599 161.33 109.616C161.358 109.625 161.385 109.638 161.408 109.657C161.431 109.675 161.45 109.698 161.464 109.724C161.478 109.75 161.487 109.778 161.49 109.808C161.493 109.837 161.491 109.867 161.482 109.895C161.474 109.923 161.46 109.95 161.442 109.973C161.423 109.996 161.4 110.015 161.374 110.029C160.977 110.246 160.569 110.444 160.151 110.62C160.127 110.637 160.1 110.65 160.071 110.656ZM151.017 110.625C150.986 110.631 150.953 110.631 150.922 110.625C150.511 110.429 150.113 110.206 149.731 109.957C149.684 109.924 149.652 109.873 149.642 109.817C149.631 109.761 149.642 109.702 149.673 109.654C149.704 109.606 149.753 109.571 149.808 109.558C149.864 109.544 149.923 109.552 149.973 109.581C150.338 109.818 150.718 110.03 151.111 110.217C151.141 110.244 151.164 110.278 151.177 110.317C151.189 110.356 151.191 110.397 151.182 110.436C151.172 110.476 151.153 110.512 151.124 110.542C151.096 110.571 151.06 110.592 151.021 110.602L151.017 110.625ZM162.405 109.37C162.357 109.371 162.31 109.356 162.271 109.328C162.233 109.299 162.204 109.26 162.19 109.214C162.175 109.169 162.175 109.12 162.191 109.074C162.206 109.029 162.236 108.99 162.275 108.963C162.632 108.712 162.975 108.442 163.301 108.152C163.345 108.112 163.404 108.091 163.463 108.095C163.523 108.098 163.579 108.125 163.619 108.17C163.659 108.214 163.679 108.273 163.676 108.332C163.672 108.392 163.645 108.448 163.601 108.488C163.262 108.783 162.906 109.058 162.535 109.312C162.497 109.336 162.454 109.349 162.409 109.348L162.405 109.37ZM148.79 109.169C148.736 109.169 148.683 109.15 148.642 109.115C148.299 108.813 147.98 108.485 147.688 108.134C147.669 108.111 147.655 108.085 147.646 108.057C147.637 108.029 147.634 107.999 147.637 107.97C147.64 107.94 147.648 107.912 147.662 107.886C147.676 107.86 147.694 107.837 147.717 107.818C147.74 107.799 147.766 107.785 147.794 107.776C147.822 107.767 147.852 107.764 147.881 107.767C147.91 107.77 147.939 107.778 147.965 107.792C147.991 107.806 148.014 107.824 148.033 107.847C148.307 108.181 148.606 108.492 148.929 108.779C148.955 108.809 148.972 108.846 148.979 108.886C148.986 108.925 148.982 108.966 148.968 109.004C148.954 109.041 148.93 109.074 148.899 109.099C148.867 109.124 148.83 109.141 148.79 109.146V109.169ZM164.389 107.592C164.346 107.592 164.304 107.58 164.267 107.557C164.231 107.533 164.202 107.5 164.184 107.461C164.166 107.422 164.159 107.378 164.166 107.335C164.172 107.292 164.191 107.252 164.219 107.22C164.506 106.891 164.772 106.546 165.017 106.185C165.033 106.16 165.054 106.14 165.079 106.123C165.103 106.107 165.131 106.096 165.16 106.09C165.189 106.085 165.218 106.085 165.247 106.091C165.276 106.096 165.303 106.108 165.328 106.124C165.352 106.141 165.373 106.162 165.389 106.187C165.406 106.211 165.417 106.239 165.423 106.268C165.428 106.297 165.428 106.326 165.422 106.355C165.416 106.384 165.405 106.411 165.388 106.436C165.133 106.812 164.855 107.173 164.555 107.515C164.532 107.535 164.506 107.55 164.478 107.559C164.449 107.568 164.419 107.572 164.389 107.569V107.592ZM147.101 107.072C147.061 107.073 147.022 107.062 146.987 107.043C146.953 107.023 146.924 106.994 146.904 106.96C146.677 106.559 146.489 106.138 146.344 105.701C146.328 105.645 146.334 105.586 146.362 105.534C146.389 105.483 146.435 105.445 146.49 105.427C146.545 105.409 146.605 105.413 146.657 105.438C146.709 105.463 146.749 105.508 146.769 105.562C146.906 105.971 147.081 106.366 147.294 106.74C147.312 106.774 147.322 106.812 147.321 106.851C147.321 106.889 147.31 106.927 147.291 106.961C147.271 106.994 147.244 107.022 147.211 107.041C147.177 107.061 147.14 107.071 147.101 107.072ZM146.272 104.554C146.221 104.556 146.171 104.54 146.13 104.509C146.089 104.478 146.06 104.434 146.048 104.384C146.018 104.121 146.003 103.856 146.003 103.591V103.533C146.003 103.351 146.003 103.174 146.003 103.004C146.04 103.004 146.077 102.992 146.106 102.97C146.136 102.948 146.158 102.917 146.169 102.881C146.18 102.846 146.179 102.808 146.167 102.773C146.155 102.738 146.132 102.707 146.102 102.686C146.095 102.658 146.093 102.628 146.097 102.599C146.101 102.569 146.111 102.541 146.126 102.516C146.141 102.491 146.161 102.468 146.184 102.451C146.208 102.433 146.235 102.42 146.263 102.413C146.683 102.298 147.092 102.148 147.486 101.965C147.54 101.945 147.599 101.945 147.651 101.967C147.704 101.989 147.746 102.03 147.77 102.082C147.793 102.134 147.796 102.193 147.777 102.247C147.759 102.301 147.72 102.346 147.67 102.372C147.252 102.558 146.819 102.708 146.375 102.82C146.401 102.843 146.422 102.871 146.435 102.903C146.448 102.935 146.454 102.97 146.451 103.004C146.451 103.165 146.451 103.336 146.451 103.51L146.227 103.56H146.451C146.452 103.807 146.467 104.054 146.496 104.299C146.503 104.358 146.485 104.416 146.448 104.463C146.411 104.509 146.358 104.538 146.299 104.545H146.272V104.554ZM144.064 103.125H143.678C143.649 103.124 143.62 103.117 143.593 103.105C143.566 103.092 143.542 103.075 143.522 103.053C143.503 103.032 143.487 103.006 143.477 102.979C143.467 102.951 143.462 102.922 143.463 102.892C143.464 102.862 143.47 102.833 143.482 102.806C143.495 102.779 143.512 102.755 143.534 102.735C143.556 102.715 143.581 102.699 143.609 102.689C143.637 102.679 143.667 102.675 143.696 102.677H144.073C144.381 102.677 144.689 102.661 144.995 102.628C145.055 102.621 145.114 102.639 145.161 102.676C145.208 102.713 145.238 102.768 145.244 102.827C145.251 102.887 145.233 102.946 145.196 102.993C145.158 103.039 145.104 103.069 145.045 103.076C144.704 103.125 144.382 103.139 144.064 103.143V103.125ZM142.366 102.95H142.321C141.872 102.854 141.433 102.718 141.008 102.543C140.978 102.534 140.951 102.518 140.927 102.498C140.903 102.478 140.884 102.452 140.871 102.424C140.858 102.396 140.85 102.365 140.85 102.334C140.849 102.303 140.855 102.272 140.866 102.243C140.878 102.214 140.896 102.188 140.919 102.166C140.941 102.145 140.968 102.128 140.998 102.118C141.027 102.107 141.058 102.103 141.089 102.105C141.121 102.107 141.151 102.116 141.178 102.131C141.578 102.295 141.992 102.422 142.415 102.511C142.475 102.518 142.53 102.548 142.568 102.595C142.606 102.642 142.623 102.702 142.617 102.762C142.61 102.822 142.58 102.877 142.533 102.915C142.486 102.953 142.426 102.97 142.366 102.964V102.95ZM139.915 101.929C139.871 101.93 139.827 101.917 139.79 101.893C139.406 101.638 139.049 101.345 138.723 101.019C138.681 100.977 138.658 100.92 138.658 100.86C138.658 100.801 138.681 100.744 138.723 100.701C138.766 100.659 138.823 100.636 138.882 100.636C138.942 100.636 138.999 100.659 139.041 100.701C139.347 101.005 139.682 101.278 140.041 101.517C140.098 101.533 140.146 101.572 140.174 101.624C140.203 101.676 140.209 101.737 140.193 101.795C140.176 101.852 140.138 101.9 140.086 101.928C140.033 101.957 139.972 101.963 139.915 101.947V101.929ZM146.429 101.902H146.38C146.322 101.888 146.272 101.852 146.241 101.802C146.21 101.751 146.201 101.691 146.214 101.633C146.314 101.177 146.477 100.737 146.698 100.325C146.727 100.273 146.776 100.234 146.833 100.218C146.891 100.201 146.952 100.209 147.005 100.238C147.057 100.267 147.096 100.316 147.112 100.373C147.128 100.431 147.121 100.492 147.092 100.545C146.888 100.919 146.737 101.32 146.644 101.736C146.635 101.787 146.608 101.833 146.569 101.866C146.53 101.9 146.481 101.919 146.429 101.92V101.902ZM148.745 101.709C148.699 101.709 148.654 101.695 148.616 101.668C148.579 101.641 148.55 101.603 148.535 101.559C148.52 101.515 148.518 101.468 148.531 101.424C148.544 101.379 148.57 101.34 148.606 101.311C148.88 101.11 149.099 100.843 149.242 100.536C149.264 100.48 149.282 100.423 149.296 100.365C149.304 100.336 149.317 100.308 149.335 100.284C149.353 100.26 149.375 100.239 149.401 100.223C149.427 100.208 149.456 100.197 149.486 100.193C149.516 100.189 149.547 100.19 149.576 100.197C149.606 100.205 149.633 100.218 149.658 100.236C149.682 100.254 149.703 100.277 149.718 100.303C149.734 100.329 149.744 100.357 149.749 100.387C149.753 100.417 149.752 100.448 149.744 100.477C149.725 100.553 149.701 100.628 149.673 100.701C149.502 101.082 149.237 101.412 148.902 101.66C148.88 101.682 148.855 101.699 148.826 101.711C148.798 101.723 148.767 101.728 148.736 101.727L148.745 101.709ZM138.033 100.061C137.998 100.061 137.962 100.052 137.93 100.036C137.898 100.02 137.871 99.9959 137.85 99.9667C137.588 99.5919 137.357 99.1964 137.16 98.784C137.139 98.7312 137.139 98.6726 137.16 98.6199C137.181 98.5672 137.221 98.5244 137.272 98.5C137.323 98.4755 137.381 98.4714 137.435 98.4883C137.489 98.5053 137.535 98.5421 137.563 98.5913C137.75 98.9819 137.969 99.3565 138.217 99.7113C138.245 99.7451 138.263 99.7864 138.268 99.8302C138.273 99.8739 138.265 99.9182 138.245 99.9574C138.225 99.9966 138.194 100.029 138.155 100.051C138.117 100.072 138.073 100.082 138.029 100.079L138.033 100.061ZM147.777 99.671C147.729 99.6709 147.682 99.6551 147.644 99.6261C147.605 99.5971 147.577 99.5564 147.563 99.5101C147.55 99.4637 147.551 99.4142 147.568 99.3689C147.585 99.3237 147.616 99.285 147.657 99.2588C147.871 99.1113 148.118 99.0186 148.377 98.9889C148.635 98.9593 148.897 98.9935 149.139 99.0886C149.193 99.1135 149.235 99.1589 149.256 99.2148C149.277 99.2707 149.274 99.3324 149.249 99.3865C149.224 99.4406 149.179 99.4825 149.123 99.5031C149.067 99.5237 149.005 99.5212 148.951 99.4963C148.777 99.4327 148.589 99.4125 148.405 99.4375C148.221 99.4625 148.045 99.5319 147.894 99.6396C147.859 99.6677 147.817 99.6849 147.773 99.6889L147.777 99.671ZM136.882 97.664C136.834 97.664 136.787 97.6482 136.748 97.6191C136.709 97.5901 136.681 97.5492 136.667 97.5027C136.539 97.0622 136.443 96.613 136.38 96.1587C136.376 96.1293 136.378 96.0993 136.385 96.0706C136.393 96.0418 136.406 96.0148 136.424 95.9911C136.442 95.9674 136.464 95.9474 136.49 95.9324C136.515 95.9173 136.544 95.9074 136.573 95.9033C136.602 95.8992 136.632 95.9009 136.661 95.9084C136.69 95.9158 136.717 95.9289 136.741 95.9467C136.764 95.9646 136.784 95.987 136.799 96.0126C136.814 96.0382 136.824 96.0665 136.828 96.096C136.889 96.5261 136.98 96.9513 137.102 97.3683C137.118 97.4253 137.112 97.4866 137.083 97.5387C137.054 97.5908 137.006 97.6294 136.949 97.646L136.882 97.664ZM136.501 95.0297C136.443 95.0297 136.386 95.0067 136.345 94.9657C136.303 94.9247 136.279 94.8688 136.277 94.8102V94.6444C136.277 94.2591 136.277 93.856 136.336 93.4528C136.342 93.3945 136.371 93.3411 136.416 93.3036C136.461 93.2661 136.519 93.2473 136.577 93.2511C136.636 93.2568 136.69 93.2854 136.728 93.3307C136.766 93.376 136.784 93.4343 136.779 93.4931C136.743 93.8828 136.725 94.2681 136.725 94.64V94.8012C136.726 94.8306 136.721 94.8599 136.71 94.8873C136.699 94.9147 136.683 94.9397 136.663 94.9609C136.643 94.9822 136.618 94.9992 136.591 95.011C136.564 95.0228 136.535 95.0291 136.506 95.0297H136.501ZM136.743 92.3731H136.703C136.645 92.3622 136.593 92.3288 136.56 92.2801C136.526 92.2314 136.513 92.1714 136.524 92.1132C136.604 91.6652 136.707 91.2396 136.828 90.7961C136.836 90.7667 136.849 90.7391 136.868 90.7148C136.886 90.6906 136.909 90.6702 136.935 90.6548C136.961 90.6394 136.99 90.6293 137.02 90.6251C137.051 90.6209 137.081 90.6227 137.111 90.6304C137.14 90.638 137.168 90.6514 137.192 90.6697C137.216 90.688 137.237 90.7109 137.252 90.7371C137.267 90.7634 137.277 90.7923 137.282 90.8224C137.286 90.8525 137.284 90.8832 137.276 90.9126C137.16 91.3606 137.057 91.7772 136.981 92.1984C136.972 92.2537 136.943 92.3038 136.899 92.3387C136.855 92.3735 136.799 92.3906 136.743 92.3865V92.3731ZM137.442 89.7971C137.406 89.7971 137.371 89.7884 137.339 89.7718C137.307 89.7552 137.28 89.7311 137.259 89.7017C137.238 89.6723 137.225 89.6383 137.22 89.6026C137.215 89.567 137.219 89.5307 137.232 89.4969C137.379 89.0758 137.545 88.6547 137.72 88.238C137.745 88.1856 137.789 88.1448 137.843 88.1241C137.897 88.1035 137.957 88.1045 138.01 88.1271C138.063 88.1497 138.106 88.1921 138.129 88.2454C138.151 88.2986 138.153 88.3586 138.132 88.4128C137.957 88.8204 137.796 89.2326 137.653 89.6448C137.64 89.6914 137.613 89.7327 137.575 89.7626C137.537 89.7925 137.49 89.8093 137.442 89.8105V89.7971Z" fill="#2EA67A"/>
<path d="M165.908 105.316C165.87 105.316 165.832 105.307 165.798 105.288C165.764 105.27 165.735 105.242 165.715 105.209C165.695 105.177 165.683 105.139 165.682 105.1C165.68 105.062 165.689 105.023 165.707 104.989C165.823 104.76 165.917 104.541 165.993 104.393C166.004 104.364 166.021 104.338 166.042 104.316C166.063 104.294 166.089 104.277 166.117 104.265C166.145 104.254 166.176 104.248 166.206 104.248C166.237 104.249 166.267 104.255 166.295 104.268C166.323 104.281 166.348 104.299 166.369 104.321C166.389 104.344 166.405 104.371 166.415 104.399C166.425 104.428 166.429 104.459 166.426 104.489C166.424 104.52 166.415 104.55 166.401 104.577C166.325 104.747 166.231 104.953 166.11 105.19C166.092 105.228 166.063 105.26 166.027 105.282C165.992 105.304 165.95 105.316 165.908 105.316Z" fill="#2EA67A"/>
<path d="M165.312 104.196L167.104 104.89C167.144 104.906 167.187 104.911 167.23 104.905C167.272 104.899 167.313 104.882 167.347 104.856C167.381 104.83 167.408 104.795 167.425 104.756C167.442 104.716 167.449 104.673 167.444 104.631L167.22 102.489C167.215 102.443 167.198 102.398 167.169 102.362C167.14 102.325 167.102 102.296 167.058 102.28C167.014 102.264 166.967 102.26 166.921 102.269C166.875 102.279 166.833 102.3 166.799 102.332L165.24 103.779C165.209 103.808 165.185 103.843 165.172 103.883C165.158 103.923 165.155 103.966 165.162 104.007C165.169 104.049 165.186 104.088 165.213 104.121C165.239 104.154 165.273 104.18 165.312 104.196Z" fill="#2EA67A"/>
</svg>
