<svg width="24" height="24" viewBox="0 0 24 24" fill="none" xmlns="http://www.w3.org/2000/svg">
<path fill-rule="evenodd" clip-rule="evenodd" d="M0 12C0 5.37258 5.37258 0 12 0C18.6274 0 24 5.37258 24 12C24 18.6274 18.6274 24 12 24C5.37258 24 0 18.6274 0 12Z" fill="#0454A9"/>
<path d="M8.65899 7.41135C8.64134 6.6102 8.06844 6 7.13813 6C6.20781 6 5.59961 6.6102 5.59961 7.41135C5.59961 8.1959 6.18984 8.82367 7.10282 8.82367H7.1202C8.06844 8.82367 8.65899 8.1959 8.65899 7.41135Z" fill="white"/>
<path d="M8.47988 9.93896H5.76042V18.1098H8.47988V9.93896Z" fill="white"/>
<path d="M15.1562 9.74707C16.9457 9.74707 18.2873 10.9151 18.2873 13.4249L18.2872 18.1098H15.5679V13.7384C15.5679 12.6404 15.1743 11.8911 14.1899 11.8911C13.4386 11.8911 12.9911 12.3962 12.7945 12.8841C12.7226 13.0589 12.705 13.3025 12.705 13.5467V18.11H9.98517C9.98517 18.11 10.021 10.7059 9.98517 9.93915H12.705V11.0965C13.0659 10.5401 13.7123 9.74707 15.1562 9.74707Z" fill="white"/>
</svg>
