<svg width="24" height="24" viewBox="0 0 24 24" fill="none" xmlns="http://www.w3.org/2000/svg">
<circle cx="12" cy="12" r="12" fill="#E60019"/>
<path d="M7.66853 19.7311C7.42741 20.7693 7.52102 22.2258 7.62598 23.1747C7.62598 23.1747 7.87347 23.2728 8.03433 23.3295C8.19427 23.3858 8.44718 23.464 8.44718 23.464C8.93508 22.6669 9.66692 21.3607 9.93782 20.3183C10.0839 19.7566 10.6853 17.4661 10.6853 17.4661C11.0767 18.2121 12.2199 18.8447 13.4368 18.8447C17.0549 18.8447 19.6632 15.516 19.6632 11.3803C19.6632 7.41624 16.428 4.44922 12.2653 4.44922C7.08702 4.44922 4.33691 7.92682 4.33691 11.7122C4.33691 13.4708 5.273 15.6635 6.77074 16.3613C6.99908 16.4662 7.12106 16.4194 7.17354 16.1996C7.21325 16.0337 7.41607 15.2182 7.50684 14.8395C7.53521 14.7175 7.52102 14.614 7.42316 14.4948C6.92675 13.8935 6.53104 12.7872 6.53104 11.7562C6.53104 9.10966 8.53511 6.54826 11.949 6.54826C14.8977 6.54826 16.9613 8.55654 16.9613 11.43C16.9613 14.6764 15.3217 16.9258 13.1886 16.9258C12.0114 16.9258 11.1292 15.9528 11.4114 14.7572C11.7504 13.3304 12.4057 11.7916 12.4057 10.7619C12.4057 9.84007 11.9107 9.07137 10.8881 9.07137C9.68253 9.07137 8.71666 10.3166 8.71666 11.9859C8.71666 13.0482 9.07549 13.7673 9.07549 13.7673C9.07549 13.7673 7.88553 18.795 7.66853 19.7311Z" fill="white"/>
</svg>
