<svg width="720" height="720" viewBox="0 0 720 720" fill="none" xmlns="http://www.w3.org/2000/svg">
<path d="M406.08 661.824H559.195C559.359 661.824 559.517 661.759 559.633 661.643C559.749 661.527 559.814 661.369 559.814 661.205C559.814 661.041 559.749 660.883 559.633 660.767C559.517 660.651 559.359 660.586 559.195 660.586H406.08C405.916 660.586 405.758 660.651 405.642 660.767C405.526 660.883 405.461 661.041 405.461 661.205C405.461 661.369 405.526 661.527 405.642 661.643C405.758 661.759 405.916 661.824 406.08 661.824Z" fill="#0A4C33"/>
<path d="M416.635 669.499H477.604C477.769 669.499 477.926 669.434 478.042 669.318C478.158 669.202 478.224 669.044 478.224 668.88C478.224 668.716 478.158 668.558 478.042 668.442C477.926 668.326 477.769 668.261 477.604 668.261H416.649C416.485 668.259 416.327 668.322 416.209 668.437C416.092 668.552 416.025 668.709 416.023 668.873C416.021 669.037 416.084 669.195 416.199 669.313C416.314 669.43 416.471 669.497 416.635 669.499Z" fill="#0A4C33"/>
<path d="M61.4453 661.824H214.56C214.725 661.824 214.882 661.759 214.998 661.643C215.114 661.527 215.18 661.369 215.18 661.205C215.18 661.041 215.114 660.883 214.998 660.767C214.882 660.651 214.725 660.586 214.56 660.586H61.4453C61.2811 660.586 61.1235 660.651 61.0074 660.767C60.8913 660.883 60.826 661.041 60.826 661.205C60.826 661.369 60.8913 661.527 61.0074 661.643C61.1235 661.759 61.2811 661.824 61.4453 661.824Z" fill="#0A4C33"/>
<path d="M131.515 669.499H192.484C192.649 669.499 192.806 669.434 192.922 669.318C193.038 669.202 193.104 669.044 193.104 668.88C193.104 668.716 193.038 668.558 192.922 668.442C192.806 668.326 192.649 668.261 192.484 668.261H131.529C131.365 668.259 131.207 668.322 131.089 668.437C130.972 668.552 130.905 668.709 130.903 668.873C130.901 669.037 130.964 669.195 131.079 669.313C131.194 669.43 131.35 669.497 131.515 669.499Z" fill="#0A4C33"/>
<path d="M611.28 655.2C611.28 655.2 612 632.16 608.04 623.52C604.08 614.88 599.76 588.96 591.84 579.96C583.92 570.96 571.68 544.32 568.8 515.88C565.92 487.44 560.16 446.04 544.32 446.4C528.48 446.76 531.72 484.92 525.6 500.76C519.48 516.6 511.92 522.36 512.64 549.72C513.36 577.08 485.64 585 483.12 610.56L479.88 655.2H611.28Z" fill="#5E3D12"/>
<path d="M594.72 655.2C594.72 655.2 595.08 635.76 586.44 617.76C577.8 599.76 582.12 582.84 576.36 567.72C570.6 552.6 581.025 523.958 568.44 512.352C555.854 500.746 544.68 526.666 543.24 550.8C541.8 574.934 528.84 575.64 526.68 597.24C524.52 618.84 513.36 619.949 505.8 632.894C498.24 645.84 499.32 655.2 499.32 655.2H594.72Z" fill="#7C5017"/>
<path d="M221.4 668.88H397.44L383.04 633.96C383.04 633.96 381.226 626.256 379.642 618.927C378.624 614.744 377.836 610.509 377.28 606.24C376.822 604.769 376.127 603.383 375.221 602.136C371.132 595.455 361.786 582.437 355.234 573.437C351.13 567.821 348.12 563.76 348.12 563.76L323.813 562.939C311.026 562.493 297.634 561.139 294.812 561.082H294.351C287.613 559.996 280.955 558.461 274.421 556.488C269.352 554.947 265.32 553.695 265.32 553.695L246.96 561.975C246.96 561.975 247.148 563.631 247.45 566.295L249.12 581.155C250.042 589.464 250.92 597.456 250.92 597.96C250.92 599.04 221.4 668.88 221.4 668.88Z" fill="#ED9017"/>
<path d="M296.885 668.88H317.117C318.557 660.83 320.487 651.154 321.437 648.36C323.237 643.32 336.917 631.8 341.237 630C345.125 628.373 373.277 620.914 379.599 618.926C378.595 614.743 377.821 610.508 377.28 606.24C376.822 604.769 376.127 603.383 375.221 602.136C364.464 604.152 344.535 608.083 337.32 610.92C327.24 614.88 309.6 633.6 305.64 639.72C303.293 643.349 299.52 657.763 296.885 668.88Z" fill="#C67C1B"/>
<path d="M247.449 566.222L249.12 581.155C260.431 578.819 271.427 575.155 281.88 570.24C286.401 568.022 290.909 564.221 294.84 561.082H294.379C287.641 559.995 280.983 558.461 274.449 556.488C266.218 561.563 257.025 564.877 247.449 566.222Z" fill="#C67C1B"/>
<path d="M246.054 668.88H264.961C270.231 653.227 279.058 628.445 284.343 621C292.263 609.84 314.943 587.16 325.383 582.48C332.079 579.485 346.033 575.741 355.177 573.437C351.073 567.821 348.063 563.76 348.063 563.76L323.756 562.939C311.098 566.87 297.346 572.155 291.543 577.8C279.663 589.32 262.383 612.36 258.063 624.96C255.558 632.434 250.086 653.213 246.054 668.88Z" fill="#C67C1B"/>
<path d="M546.97 159.912C546.97 159.912 553.234 174.312 556.676 179.769C560.117 185.227 555.596 187.329 544.594 175.665C533.592 164.001 509.847 137.462 497.981 126.461C486.116 115.459 476.18 110.707 476.828 104.861C477.476 99.0141 485.885 107.021 492.149 109.829C498.413 112.637 505.311 112.205 515.189 115.589C525.068 118.973 524.895 124.43 525.269 130.478C525.644 136.526 529.157 136.094 535.191 134.798C541.224 133.502 551.29 137.909 546.97 159.912Z" fill="#FFC897"/>
<path d="M364.997 141.12C362.117 144.461 320.083 102.845 301.723 86.8318C283.363 70.819 262.267 58.3199 257.976 51.6815C253.685 45.0431 275.169 55.1951 279.072 56.3759C282.974 57.5567 286.488 51.6815 297.792 54.4175C309.096 57.1535 306.777 66.1391 308.736 68.0831C310.694 70.0271 323.971 67.3054 331.387 73.9438C338.803 80.5822 334.123 90.7342 335.707 94.2622C337.291 97.7902 347.817 97.3871 352.497 102.081C357.177 106.776 354.456 110.721 352.109 117.705C349.762 124.689 369.288 136.022 364.997 141.12Z" fill="#FFC897"/>
<path d="M221.16 170.04C207.905 170.04 197.16 159.295 197.16 146.04C197.16 132.785 207.905 122.04 221.16 122.04C234.415 122.04 245.16 132.785 245.16 146.04C245.16 159.295 234.415 170.04 221.16 170.04Z" fill="#ED9016"/>
<path d="M237.773 286.56C242.093 286.56 235.786 279.187 231.653 272.88C227.521 266.573 229.133 257.587 222.293 255.427C215.453 253.267 211.133 249.307 212.026 241.214C212.919 233.122 209.506 217.814 192.226 221.774C192.226 221.774 190.239 214.042 181.239 215.654C172.239 217.267 161.799 209.722 154.412 205.042C147.025 200.362 146.492 203.069 152.065 208.642C157.637 214.214 202.321 254.16 213.481 264.24C224.641 274.32 235.613 286.56 237.773 286.56Z" fill="#FFC897"/>
<path d="M189.244 572.4C189.244 572.4 165.124 609.235 170.524 661.205H182.303C182.303 661.205 200.404 619.56 189.244 572.4Z" fill="#2EA67A"/>
<path d="M176.155 661.824C176.303 661.822 176.445 661.767 176.556 661.669C176.667 661.572 176.739 661.437 176.76 661.291L187.085 591.451C187.109 591.289 187.069 591.123 186.972 590.991C186.874 590.859 186.729 590.77 186.566 590.745C186.404 590.721 186.238 590.761 186.106 590.859C185.974 590.956 185.886 591.102 185.861 591.264L175.536 661.104C175.511 661.266 175.552 661.432 175.649 661.564C175.746 661.696 175.892 661.785 176.054 661.809H176.141L176.155 661.824Z" fill="#0C4832"/>
<path d="M146.621 547.675C146.621 547.675 136.325 594.231 167.501 661.191H179.295C179.295 661.191 179.295 607.435 146.621 547.675Z" fill="#0C4832"/>
<path d="M173.145 661.824H173.289C173.369 661.805 173.444 661.771 173.51 661.723C173.577 661.676 173.633 661.615 173.676 661.546C173.719 661.476 173.747 661.399 173.76 661.318C173.773 661.237 173.769 661.155 173.75 661.075L152.928 571.795C152.911 571.715 152.878 571.638 152.831 571.571C152.783 571.504 152.723 571.447 152.653 571.403C152.583 571.36 152.504 571.332 152.423 571.32C152.342 571.308 152.258 571.313 152.179 571.334C152.099 571.353 152.024 571.387 151.958 571.435C151.892 571.483 151.835 571.543 151.793 571.613C151.75 571.682 151.721 571.76 151.708 571.841C151.696 571.921 151.699 572.004 151.718 572.083L172.541 661.363C172.576 661.496 172.654 661.614 172.764 661.697C172.873 661.781 173.008 661.825 173.145 661.824Z" fill="#115C40"/>
<path d="M104.486 547.675C104.486 547.675 97.9196 598.551 158.616 661.191H170.409C170.409 661.191 162.144 596.16 104.486 547.675Z" fill="#0E754F"/>
<path d="M164.246 661.824C164.341 661.846 164.439 661.846 164.534 661.824C164.679 661.748 164.788 661.617 164.836 661.46C164.885 661.303 164.87 661.134 164.793 660.989L117.821 571.709C117.785 571.633 117.735 571.564 117.673 571.508C117.61 571.452 117.537 571.409 117.457 571.382C117.378 571.355 117.293 571.344 117.21 571.351C117.126 571.358 117.044 571.381 116.97 571.42C116.896 571.46 116.83 571.513 116.777 571.579C116.724 571.644 116.685 571.719 116.662 571.8C116.64 571.881 116.634 571.966 116.645 572.049C116.655 572.132 116.683 572.213 116.726 572.285L163.699 661.565C163.76 661.651 163.843 661.72 163.939 661.766C164.035 661.811 164.14 661.831 164.246 661.824Z" fill="#0A3B29"/>
<path d="M151.2 661.205C151.2 661.205 135.605 638.41 122.875 638.165C110.146 637.92 118.8 651.6 118.8 651.6C118.8 651.6 109.901 647.035 104.271 648.72C98.6402 650.405 104.271 656.885 104.271 656.885C104.271 656.885 89.5105 653.53 95.2706 661.205H151.2Z" fill="#0A4C33"/>
<path d="M101.217 631.08C106.977 631.08 110.75 642.067 104.27 640.8C97.7901 639.533 95.4573 631.08 101.217 631.08Z" fill="#0A4C33"/>
<path d="M90.7201 645.034C94.6225 644.011 99.1153 650.794 94.5073 651.082C89.8994 651.37 86.8754 646.056 90.7201 645.034Z" fill="#0A4C33"/>
<path d="M197.553 382.766C197.553 382.766 202.765 374.126 211.319 369.806L214.473 372.413C214.473 372.413 201.513 388.166 199.799 406.973L197.553 382.766Z" fill="#944112"/>
<path d="M153.72 364.32C166.013 374.273 176.279 386.494 183.96 400.32C185.732 414.72 187.301 428.775 188.28 439.632C191.045 473.76 210.24 653.012 210.24 653.012H223.776C223.776 653.012 200.636 398.405 198.476 382.565C196.316 366.725 193.32 331.748 193.32 331.748L168.956 317.794C168.956 317.794 172.325 327.356 174.14 333.634C175.004 336.6 177.581 353.074 180.346 373.205L161.453 354.485L153.72 364.32Z" fill="#9F661A"/>
<path d="M161.453 354.427C161.453 354.427 154.786 354.614 153.706 364.334C153.72 364.32 162.634 363.427 161.453 354.427Z" fill="#944112"/>
<path d="M193.319 331.748C193.319 331.748 184.766 333.274 182.246 332.367C179.726 331.46 168.955 317.794 168.955 317.794L193.319 331.748Z" fill="#944112"/>
<path d="M202.564 539.424H202.68C202.76 539.41 202.837 539.38 202.906 539.336C202.975 539.293 203.035 539.236 203.081 539.169C203.128 539.102 203.161 539.026 203.179 538.946C203.196 538.867 203.198 538.784 203.184 538.704C203.184 538.401 197.668 507.643 197.193 495.1C196.833 485.352 197.02 457.66 197.193 442.843C197.193 438.206 197.193 434.635 197.193 432.964C197.193 428.299 196.012 420.004 194.644 410.515C193.867 405.129 193.075 399.556 192.384 393.955C190.483 378.504 187.372 337.564 187.344 337.147C187.332 336.983 187.256 336.83 187.132 336.722C187.007 336.614 186.845 336.559 186.681 336.571C186.517 336.582 186.364 336.659 186.256 336.783C186.148 336.907 186.094 337.069 186.105 337.233C186.105 337.651 189.244 378.604 191.145 394.099C191.836 399.715 192.585 405.288 193.406 410.673C194.76 420.177 195.94 428.371 195.94 432.95C195.94 434.62 195.94 438.177 195.94 442.814C195.825 457.675 195.638 485.352 195.94 495.129C196.416 507.744 201.888 538.589 201.945 538.891C201.966 539.04 202.041 539.176 202.154 539.274C202.268 539.372 202.414 539.425 202.564 539.424Z" fill="#944112"/>
<path d="M214.012 573.192H214.098C214.261 573.167 214.407 573.079 214.504 572.947C214.601 572.814 214.642 572.649 214.617 572.486C214.617 572.011 207.691 524.822 205.473 506.318C203.255 487.814 200.548 437.976 200.519 437.472C200.508 437.309 200.435 437.157 200.314 437.047C200.193 436.937 200.035 436.877 199.871 436.882C199.79 436.885 199.71 436.905 199.636 436.94C199.563 436.974 199.497 437.023 199.442 437.083C199.387 437.143 199.344 437.214 199.317 437.29C199.289 437.367 199.277 437.448 199.281 437.53C199.281 438.034 202.017 487.93 204.249 506.448C206.481 524.966 213.321 572.17 213.393 572.688C213.42 572.832 213.497 572.961 213.61 573.053C213.724 573.145 213.866 573.194 214.012 573.192Z" fill="#944112"/>
<path d="M211.204 651.701C211.364 651.701 211.517 651.64 211.632 651.53C211.748 651.42 211.816 651.27 211.824 651.11C211.924 649.224 214.2 604.598 211.824 591.25C209.938 580.295 208.736 569.234 208.224 558.13C208.253 557.969 208.218 557.804 208.127 557.669C208.035 557.534 207.894 557.441 207.734 557.41C207.655 557.393 207.574 557.392 207.495 557.407C207.417 557.422 207.341 557.452 207.274 557.496C207.207 557.541 207.15 557.598 207.105 557.664C207.06 557.731 207.029 557.806 207.014 557.885C206.74 559.224 208.224 578.045 210.614 591.48C213.004 604.915 210.614 650.606 210.614 651.067C210.61 651.149 210.622 651.23 210.65 651.306C210.677 651.383 210.72 651.453 210.775 651.514C210.83 651.574 210.896 651.623 210.97 651.657C211.043 651.692 211.123 651.712 211.204 651.715V651.701Z" fill="#944112"/>
<path d="M478.556 396L490.493 404.467C490.493 404.467 500.156 435.845 428.156 434.895C356.156 433.944 311.4 392.299 318.413 360.562L338.213 353.189L478.556 396Z" fill="#0C4832"/>
<path d="M381.844 337.925C381.844 337.925 289.684 392.4 287.279 395.525C284.875 398.65 281.275 414.72 281.275 418.09C281.275 421.459 323.755 498.975 323.755 498.975C323.755 498.975 341.51 495.375 341.51 494.655C341.51 493.935 321.825 420.019 321.825 420.019C321.825 420.019 391.665 407.779 424.065 390.744C456.465 373.709 431.035 316.325 381.844 337.925Z" fill="#115C40"/>
<path d="M331.92 492.134H332.122C332.276 492.082 332.403 491.971 332.476 491.825C332.548 491.68 332.561 491.511 332.51 491.357L310.666 425.837C310.621 425.707 310.535 425.595 310.421 425.52C308.001 423.995 305.696 422.296 303.523 420.437C307.363 420.211 311.215 420.284 315.043 420.653C315.18 420.663 315.317 420.628 315.432 420.552C315.546 420.477 315.633 420.365 315.677 420.235C315.722 420.105 315.722 419.963 315.678 419.833C315.634 419.703 315.547 419.591 315.432 419.515C311.112 416.635 304.085 411.523 303.437 409.737C304.114 408.888 311.962 409.205 318.859 410.083C318.965 410.095 319.071 410.08 319.169 410.039C319.268 409.999 319.354 409.935 319.421 409.853C319.489 409.769 319.534 409.67 319.551 409.564C319.569 409.457 319.559 409.349 319.522 409.248C318.946 407.707 317.606 403.373 318.312 401.803C320.011 399.974 362.534 382.464 390.701 371.16C390.854 371.099 390.976 370.979 391.041 370.828C391.105 370.677 391.108 370.506 391.046 370.353C390.985 370.201 390.866 370.078 390.715 370.014C390.564 369.949 390.393 369.947 390.24 370.008C373.349 376.79 318.24 399.067 317.189 401.285C316.368 403.113 317.448 406.915 318.038 408.715C313.718 408.211 303.883 407.275 302.458 409.017C302.332 409.172 302.249 409.358 302.219 409.555C302.188 409.753 302.211 409.955 302.285 410.141C303.063 412.286 309.485 416.923 312.855 419.241C306.274 418.838 302.688 418.997 302.141 419.731C302.061 419.836 302.009 419.961 301.991 420.092C301.974 420.223 301.99 420.357 302.04 420.48C302.53 421.718 307.685 425.189 309.528 426.413L331.301 491.731C331.347 491.856 331.432 491.962 331.544 492.035C331.655 492.108 331.787 492.142 331.92 492.134Z" fill="#ED9016"/>
<path d="M340.085 493.315L345.01 520.2C345.01 520.2 333.735 522.605 333.735 522.245C333.735 521.885 325.44 497.16 325.44 497.16L340.085 493.315Z" fill="#FFC897"/>
<path d="M278.035 554.083C278.222 557.482 278.64 560.16 278.64 560.16L318.398 562.752C319.233 559.253 320.702 556.358 323.28 556.805C325.857 557.251 326.606 559.814 326.722 562.997L350.035 564.365C350.035 564.365 350.467 561.643 350.942 557.165C351.95 547.776 353.117 530.698 350.755 515.405C343.204 514.08 335.47 514.192 327.96 515.736C325.423 516.326 322.967 517.22 320.645 518.4C320.645 518.4 323.885 529.315 323.525 530.395C323.165 531.475 308.52 538.2 301.68 539.395C301.075 539.51 300.441 539.582 299.793 539.64C293.27 540.158 285.393 538.085 280.915 540.605C277.92 542.261 277.733 548.971 278.035 554.083Z" fill="#0C4832"/>
<path d="M302.862 545.544C304.964 545.544 327.442 538.027 330.898 535.118C331.084 534.992 331.24 534.828 331.357 534.637C331.474 534.446 331.548 534.232 331.575 534.01C331.575 532.57 330.222 524.707 329.084 518.429C329.079 518.341 329.056 518.255 329.016 518.177C328.976 518.099 328.919 518.03 328.851 517.976C328.782 517.921 328.702 517.882 328.617 517.86C328.532 517.839 328.443 517.836 328.357 517.851C328.27 517.867 328.188 517.9 328.116 517.95C328.043 518 327.982 518.064 327.936 518.139C327.891 518.214 327.862 518.298 327.851 518.385C327.84 518.472 327.848 518.561 327.874 518.645C329.444 527.285 330.351 532.93 330.351 534.01C329.444 535.824 305.569 544.32 302.991 544.32C302.991 544.32 302.674 543.989 301.724 542.16C301.693 542.078 301.646 542.004 301.584 541.942C301.523 541.879 301.449 541.831 301.368 541.799C301.286 541.768 301.199 541.754 301.112 541.759C301.024 541.763 300.939 541.786 300.861 541.826C300.784 541.866 300.715 541.922 300.661 541.99C300.606 542.058 300.566 542.137 300.545 542.222C300.523 542.306 300.519 542.395 300.534 542.481C300.548 542.567 300.581 542.649 300.63 542.722C301.782 544.954 302.314 545.458 302.818 545.602H302.905L302.862 545.544Z" fill="#EF9827"/>
<path d="M278.035 554.083C278.222 557.482 278.64 560.16 278.64 560.16L318.398 562.752C319.234 559.253 320.702 556.358 323.28 556.805C325.858 557.251 326.606 559.814 326.722 562.997L350.035 564.365C350.035 564.365 350.467 561.643 350.942 557.165L278.035 554.083Z" fill="#115C40"/>
<path d="M344.879 483.84C344.879 483.84 322.919 487.915 311.212 490.507L320.63 508.09C329.975 508.609 339.329 507.218 348.119 504L344.879 483.84Z" fill="#0A4C33"/>
<path d="M476.711 577.08L477.071 608.587H464.111L463.031 577.267L476.711 577.08Z" fill="#FFC897"/>
<path d="M452.405 649.613C452.405 649.613 455.429 651.859 459.259 654.509C459.432 652.45 459.734 650.52 460.325 650.52C461.174 650.52 461.462 653.89 461.549 656.078C465.869 658.958 470.477 661.838 472.939 662.76C478.152 664.56 507.499 662.947 507.499 662.947C507.499 662.947 507.874 659.923 508.003 655.978C508.205 650.534 507.917 643.349 505.512 639.907C501.365 633.96 491.112 633.6 491.112 633.6C491.112 633.6 483.365 616.867 483.019 615.053C482.674 613.238 485.179 604.08 485.179 604.08C475.778 602.031 466.097 601.602 456.552 602.813L458.712 613.44C458.712 613.44 455.443 628.142 453.355 642.398C452.995 644.846 452.664 647.266 452.405 649.613Z" fill="#0C4832"/>
<path d="M481.392 637.099C481.553 637.1 481.708 637.038 481.824 636.926C483.826 635.369 486.26 634.469 488.794 634.349C488.943 634.316 489.074 634.23 489.163 634.106C489.252 633.982 489.293 633.83 489.277 633.679C489.261 633.527 489.189 633.387 489.076 633.285C488.963 633.182 488.817 633.125 488.664 633.125C486.152 633.311 483.729 634.133 481.623 635.515L472.723 615.715C475.571 615.173 478.486 615.076 481.363 615.427C481.519 615.434 481.671 615.383 481.79 615.283C481.909 615.183 481.986 615.042 482.006 614.888C482.026 614.734 481.987 614.578 481.898 614.451C481.808 614.324 481.674 614.236 481.522 614.203C478.24 613.813 474.917 613.968 471.687 614.664C471.595 614.682 471.508 614.72 471.433 614.776C471.358 614.832 471.297 614.904 471.254 614.988C471.211 615.071 471.187 615.163 471.185 615.256C471.183 615.35 471.201 615.443 471.24 615.528L480.787 636.768C480.827 636.859 480.889 636.94 480.966 637.003C481.044 637.065 481.136 637.108 481.234 637.128H481.392V637.099Z" fill="#EF9827"/>
<path d="M452.405 649.613C452.405 649.613 455.429 651.859 459.259 654.509C459.432 652.45 459.734 650.52 460.325 650.52C461.174 650.52 461.462 653.89 461.549 656.078C465.869 658.958 470.477 661.838 472.939 662.76C478.152 664.56 507.499 662.947 507.499 662.947C507.499 662.947 507.873 659.923 508.003 655.978C499.363 656.539 477.072 657.864 474.883 657C472.694 656.136 459.216 646.589 453.283 642.398C452.995 644.846 452.664 647.266 452.405 649.613Z" fill="#115C40"/>
<path d="M471.845 385.92C471.845 385.92 475.69 473.285 477.605 496.8C479.52 520.315 480.082 579.845 480.082 579.845C480.082 579.845 461.837 580.81 461.362 579.37C460.887 577.93 438.725 503.05 437.76 492.97C436.796 482.89 401.76 403.214 396.476 374.89C391.191 346.565 457.92 316.8 471.845 385.92Z" fill="#115C40"/>
<path d="M464.112 573.552C464.274 573.534 464.422 573.453 464.524 573.326C464.627 573.199 464.675 573.037 464.659 572.875C461.88 547.877 453.715 523.411 451.483 517.061C453.009 517.867 455.126 518.789 456.177 518.328C456.36 518.25 456.52 518.127 456.643 517.971C456.767 517.815 456.849 517.631 456.883 517.435C457.243 515.621 453.168 507.211 451.958 504.778C460.944 492.883 460.425 491.818 460.253 491.472C460.08 491.126 459.504 490.032 447.393 493.142C431.28 413.942 422.913 372.83 422.913 372.83C422.904 372.745 422.876 372.663 422.833 372.589C422.789 372.515 422.731 372.451 422.662 372.401C422.593 372.351 422.514 372.315 422.43 372.297C422.346 372.279 422.26 372.279 422.176 372.296C422.092 372.312 422.012 372.347 421.942 372.396C421.872 372.445 421.813 372.509 421.769 372.582C421.724 372.655 421.696 372.737 421.685 372.822C421.673 372.907 421.68 372.993 421.704 373.075C421.704 373.075 430.099 414.475 446.299 494.035C446.315 494.117 446.348 494.196 446.395 494.265C446.442 494.334 446.502 494.393 446.573 494.438C446.645 494.483 446.726 494.513 446.81 494.525C446.894 494.538 446.98 494.533 447.062 494.51C450.967 493.363 454.967 492.573 459.014 492.149C458.438 493.704 454.507 499.349 450.734 504.346C450.674 504.443 450.643 504.555 450.643 504.67C450.643 504.784 450.674 504.896 450.734 504.994C453.341 510.206 455.918 516.197 455.717 517.19C455.285 517.464 452.837 516.499 450.705 515.16C450.595 515.09 450.466 515.057 450.336 515.066C450.206 515.074 450.081 515.123 449.981 515.206C449.88 515.289 449.809 515.402 449.776 515.528C449.743 515.654 449.751 515.787 449.798 515.909C449.899 516.197 460.267 544.262 463.464 573.005C463.482 573.161 463.559 573.305 463.679 573.407C463.8 573.508 463.955 573.56 464.112 573.552Z" fill="#ED9016"/>
<path d="M486.071 567.72L451.684 568.267L456.004 589.335L482.644 589.882C482.644 589.882 484.631 576.547 486.071 567.72Z" fill="#0A4C33"/>
<path d="M509.039 178.805C509.039 178.805 524.404 198.245 520.804 223.445C517.204 248.645 500.644 256.81 500.644 256.81C500.644 256.81 438.004 240.97 421.919 240.97C405.834 240.97 380.404 246.01 380.404 246.01C380.404 246.01 372.484 224.409 372.959 208.814C373.434 193.219 384.479 180.734 385.199 180.734C385.919 180.734 410.874 184.089 433.914 185.529C456.954 186.969 509.039 178.805 509.039 178.805Z" fill="#0A3B29"/>
<path d="M497.52 253.512C497.623 253.512 497.726 253.486 497.817 253.436C497.908 253.386 497.985 253.314 498.041 253.227C498.096 253.139 498.129 253.039 498.137 252.935C498.144 252.832 498.125 252.728 498.081 252.634C490.42 236.333 488.088 223.114 490.881 212.199C493.963 200.333 504.417 188.568 507.038 185.746C508.867 189.504 516.556 205.791 517.017 215.122C517.536 225.591 507.441 242.251 502.329 243.835C502.11 243.903 501.877 243.91 501.654 243.857C501.431 243.804 501.227 243.692 501.062 243.533C497.692 240.783 496.152 224.741 496.828 218.031C497.548 210.831 503.913 200.477 505.555 200.031C506.995 200.621 511.79 215.021 511.79 219.053C511.79 222.322 505.022 229.968 503.28 230.861C502.156 229.839 500.803 220.003 501.667 216.691C502.237 214.806 503.193 213.06 504.475 211.565C505.521 214.064 506.167 216.713 506.39 219.413C506.39 219.577 506.455 219.735 506.571 219.851C506.687 219.967 506.845 220.032 507.009 220.032C507.173 220.032 507.331 219.967 507.447 219.851C507.563 219.735 507.628 219.577 507.628 219.413C507.336 216.223 506.528 213.101 505.238 210.168C505.197 210.075 505.135 209.994 505.056 209.931C504.976 209.868 504.883 209.826 504.784 209.807C504.684 209.789 504.582 209.795 504.485 209.825C504.389 209.856 504.301 209.909 504.23 209.981C502.494 211.788 501.206 213.978 500.472 216.375C499.694 219.355 500.63 230.155 502.502 231.811C502.649 231.956 502.835 232.054 503.037 232.095C503.239 232.136 503.448 232.117 503.64 232.042C505.598 231.264 513.028 222.999 513.028 219.082C513.028 215.928 508.795 201.053 506.246 199.123C506.109 199.001 505.945 198.913 505.767 198.868C505.589 198.823 505.402 198.822 505.224 198.864C502.79 199.527 496.296 210.859 495.59 217.944C494.985 224.021 496.195 241.2 500.27 244.527C500.594 244.815 500.987 245.014 501.411 245.105C501.835 245.196 502.276 245.175 502.689 245.045C508.233 243.317 518.803 226.224 518.241 215.079C517.694 204.279 508.161 185.213 507.729 184.407C507.684 184.319 507.619 184.243 507.539 184.185C507.459 184.127 507.366 184.09 507.268 184.075C507.172 184.059 507.074 184.066 506.981 184.096C506.888 184.126 506.804 184.179 506.736 184.248C506.606 184.378 493.257 198.029 489.657 211.882C486.777 223.085 489.11 236.592 496.857 253.167C496.915 253.288 497.011 253.388 497.13 253.451C497.25 253.513 497.387 253.535 497.52 253.512Z" fill="#0E754F"/>
<path d="M486.504 246.96C486.504 246.96 491.76 334.238 490.507 348.912C489.254 363.586 438.667 366.538 438.667 366.538V242.266L486.504 246.96Z" fill="#0C4832"/>
<path d="M457.013 333.187C458.966 335.534 460.77 338.001 462.413 340.574C463.133 342.201 490.493 404.482 490.493 404.482C490.493 404.482 468.893 419.241 429.653 412.589C390.413 405.936 365.386 377.496 347.573 367.776C329.76 358.056 318.413 360.576 318.413 360.576C318.413 360.576 347.026 340.243 360.346 331.776L457.013 333.187Z" fill="#E18711"/>
<path d="M453.845 393.739C454.009 393.739 454.166 393.674 454.283 393.558C454.399 393.442 454.464 393.284 454.464 393.12C454.464 392.956 454.399 392.798 454.283 392.682C454.166 392.566 454.009 392.501 453.845 392.501C434.812 390.713 416.735 383.333 401.889 371.29C377.769 351.23 364.176 350.294 363.6 350.266C363.436 350.266 363.278 350.331 363.162 350.447C363.046 350.563 362.981 350.721 362.981 350.885C362.981 351.049 363.046 351.207 363.162 351.323C363.278 351.439 363.436 351.504 363.6 351.504C363.729 351.504 377.409 352.498 401.155 372.24C416.209 384.454 434.543 391.935 453.845 393.739Z" fill="#9F661A"/>
<path d="M445.925 372.614C446.076 372.61 446.221 372.551 446.331 372.447C446.442 372.344 446.51 372.204 446.525 372.053C446.539 371.903 446.497 371.752 446.408 371.63C446.319 371.508 446.188 371.422 446.04 371.39C445.781 371.39 419.976 365.99 399.96 354.657C399.889 354.615 399.81 354.587 399.728 354.575C399.646 354.563 399.562 354.568 399.482 354.59C399.402 354.611 399.327 354.648 399.261 354.699C399.196 354.75 399.141 354.813 399.101 354.886C399.06 354.958 399.035 355.038 399.025 355.12C399.016 355.202 399.024 355.286 399.048 355.365C399.071 355.445 399.111 355.519 399.164 355.583C399.216 355.646 399.282 355.699 399.355 355.737C419.602 367.171 445.593 372.557 445.853 372.6H445.982L445.925 372.614Z" fill="#9F661A"/>
<path d="M394.012 157.953C394.012 157.953 397.569 156.427 398.462 156.197C398.718 156.136 398.985 156.147 399.235 156.228C399.486 156.309 399.709 156.457 399.881 156.656C400.053 156.855 400.168 157.097 400.212 157.356C400.256 157.615 400.229 157.882 400.132 158.126C399.498 159.206 391.362 162.576 391.132 162.763C390.902 162.95 387.302 166.68 387.172 166.68C387.042 166.68 382.218 166.809 382.218 166.68C382.218 166.55 394.012 157.953 394.012 157.953Z" fill="#E18711"/>
<path d="M379.613 171.835C382.172 171.946 384.736 171.888 387.288 171.662C388.483 171.302 392.573 166.738 393.163 166.262C393.754 165.787 397.066 163.987 397.368 163.21C397.671 162.432 395.511 161.654 392.861 163.454C391.507 164.435 390.012 165.202 388.426 165.73L383.386 166.45L379.613 171.835Z" fill="#FFC897"/>
<path d="M367.084 195.595L380.649 171.72C380.649 171.72 383.529 170.525 384.134 169.445C384.739 168.365 388.454 162.72 388.454 162.72C388.454 162.72 399.729 157.262 400.392 156.6C401.054 155.938 400.752 153.187 397.627 154.627C394.502 156.067 383.889 159.365 382.089 160.862C380.289 162.36 372.902 170.338 372.902 170.338L353.16 189.058L367.084 195.595Z" fill="#FFC897"/>
<path d="M385.56 203.4L362.635 214.805L367.92 199.685L344.405 196.33C344.405 196.33 320.169 237.614 319.449 242.165C318.729 246.715 320.169 259.92 322.805 261.85C325.44 263.779 363.6 260.294 384.84 253.814C406.08 247.334 416.16 194.4 385.56 203.4Z" fill="#ED9016"/>
<path d="M339.293 246.139C339.397 246.138 339.498 246.111 339.589 246.061C339.679 246.011 339.756 245.939 339.811 245.851C345.986 236.567 352.718 227.665 359.971 219.197C360.065 219.071 360.108 218.915 360.091 218.759C360.074 218.603 359.999 218.459 359.88 218.357C359.761 218.254 359.608 218.201 359.451 218.207C359.294 218.213 359.146 218.279 359.035 218.39C351.78 226.907 345.047 235.857 338.875 245.189C338.79 245.328 338.763 245.496 338.801 245.655C338.839 245.814 338.938 245.952 339.077 246.038C339.142 246.086 339.215 246.12 339.293 246.139Z" fill="#FFE6C9"/>
<path d="M357.119 247.579C357.284 247.579 357.441 247.514 357.557 247.398C357.673 247.282 357.738 247.124 357.738 246.96C357.952 240.31 358.563 233.679 359.567 227.102C359.87 224.856 360.071 223.373 360.071 222.782C360.071 222.618 360.006 222.461 359.89 222.344C359.774 222.228 359.616 222.163 359.452 222.163C359.288 222.163 359.13 222.228 359.014 222.344C358.898 222.461 358.833 222.618 358.833 222.782C358.833 223.229 358.617 224.841 358.343 226.872C357.329 233.506 356.714 240.195 356.5 246.902C356.492 246.988 356.502 247.075 356.53 247.157C356.557 247.239 356.601 247.314 356.66 247.378C356.718 247.442 356.789 247.492 356.868 247.527C356.947 247.562 357.033 247.579 357.119 247.579Z" fill="#FFE6C9"/>
<path d="M367.085 209.16C367.085 209.16 371.045 199.685 371.405 198.605C371.765 197.525 363.37 189.245 358.2 187.56C353.03 185.875 342.36 193.565 341.525 194.515C340.123 197.115 338.882 199.798 337.81 202.55L339.725 204.35L340.92 202.435C340.92 202.435 349.2 200.52 353.635 200.75C358.07 200.981 364.91 208.195 364.91 208.195L364.075 210.355L367.085 209.16Z" fill="#9F661A"/>
<path d="M362.722 206.712C362.847 206.713 362.97 206.675 363.074 206.605C363.178 206.534 363.258 206.433 363.303 206.316C363.348 206.199 363.357 206.071 363.328 205.948C363.298 205.826 363.233 205.716 363.139 205.632C360.461 203.213 356.63 200.304 353.678 200.146C350.045 200.189 346.425 200.609 342.878 201.398C342.793 201.408 342.711 201.436 342.637 201.479C342.563 201.522 342.499 201.581 342.449 201.65C342.399 201.719 342.363 201.798 342.345 201.882C342.327 201.966 342.326 202.052 342.343 202.136C342.36 202.22 342.395 202.3 342.444 202.37C342.493 202.44 342.556 202.499 342.63 202.543C342.703 202.587 342.785 202.616 342.87 202.627C342.955 202.638 343.041 202.632 343.123 202.608C346.566 201.837 350.079 201.427 353.606 201.384C355.637 201.499 358.733 203.328 362.246 206.554C362.31 206.612 362.385 206.656 362.467 206.683C362.549 206.71 362.636 206.72 362.722 206.712Z" fill="#FFE6C9"/>
<path d="M458.813 321.84L460.973 334.44C460.973 334.44 427.493 347.4 400.305 346.68C373.118 345.96 357.105 332.467 357.105 332.467L358.905 320.415C390.441 333.864 423.864 333.403 458.813 321.84Z" fill="#ED9016"/>
<path d="M352.8 309.6C352.44 311.4 358.92 322.56 358.92 322.56C367.685 326.476 376.771 329.627 386.078 331.978C388.483 332.583 390.96 333.13 393.48 333.591C399.288 334.737 405.201 335.264 411.12 335.16C434.88 334.44 462.24 322.56 462.24 322.56C462.24 322.56 457.92 292.32 459.36 278.28C460.8 264.24 462.96 215.453 462.96 215.453L437.76 198.893C423.72 190.253 416.88 194.573 406.627 196.733C399.437 198.386 392.392 200.615 385.56 203.4C385.56 203.4 379.08 240.84 376.2 256.32C373.32 271.8 362.52 292.32 362.52 292.32C362.52 292.32 363.6 298.44 363.6 299.52C363.6 300.6 353.16 307.8 352.8 309.6Z" fill="#ED9016"/>
<path d="M409.263 335.808H411.149C427.954 335.304 446.53 329.242 456.106 325.728C456.242 325.659 456.347 325.542 456.402 325.4C456.456 325.259 456.457 325.102 456.404 324.959C456.351 324.817 456.247 324.699 456.112 324.629C455.978 324.558 455.822 324.539 455.674 324.576C446.17 328.118 427.738 334.123 411.121 334.656C405.245 334.76 399.375 334.238 393.61 333.101C391.22 332.669 388.743 332.122 386.252 331.502C378.086 329.426 370.087 326.745 362.319 323.482C362.243 323.441 362.159 323.417 362.073 323.41C361.987 323.404 361.901 323.416 361.82 323.445C361.738 323.474 361.664 323.519 361.601 323.579C361.539 323.638 361.489 323.71 361.456 323.789C361.423 323.869 361.407 323.954 361.408 324.041C361.41 324.127 361.43 324.212 361.466 324.29C361.503 324.368 361.555 324.438 361.62 324.494C361.685 324.551 361.761 324.594 361.844 324.619C369.66 327.885 377.708 330.566 385.921 332.64C388.441 333.274 390.946 333.821 393.365 334.267C398.606 335.266 403.928 335.782 409.263 335.808Z" fill="#FFE6C9"/>
<path d="M402.063 196.07C402.305 196.481 402.446 196.943 402.474 197.419C402.501 197.895 402.415 198.371 402.221 198.806C398.679 206.77 380.953 246.931 371.045 273.845C371.045 273.845 369.721 258.97 370.801 251.05C371.881 243.13 378.375 216.072 384.221 202.09C384.311 201.873 384.412 201.662 384.524 201.456C385.263 200.116 386.466 199.091 387.908 198.576L398.434 194.818C399.09 194.571 399.812 194.562 400.474 194.79C401.137 195.019 401.699 195.472 402.063 196.07Z" fill="#0A3B29"/>
<path d="M425.348 252.619C425.495 252.617 425.638 252.562 425.748 252.465C425.859 252.367 425.932 252.233 425.952 252.087C427.392 241.891 431.568 224.957 431.612 224.727C431.64 224.645 431.652 224.559 431.646 224.473C431.639 224.387 431.615 224.303 431.575 224.227C431.534 224.151 431.478 224.084 431.41 224.031C431.342 223.978 431.264 223.939 431.18 223.918C431.097 223.897 431.009 223.894 430.924 223.908C430.839 223.923 430.758 223.955 430.686 224.002C430.614 224.05 430.553 224.112 430.507 224.185C430.46 224.257 430.429 224.339 430.416 224.424C430.416 224.597 426.327 240.941 424.815 251.251L423.648 251.122C424.196 248.242 426.428 236.722 428.285 229.68C428.311 229.6 428.321 229.515 428.313 229.432C428.305 229.348 428.281 229.266 428.24 229.192C428.2 229.118 428.145 229.053 428.079 229.001C428.013 228.949 427.936 228.911 427.855 228.89C427.774 228.868 427.689 228.863 427.605 228.876C427.522 228.888 427.442 228.917 427.37 228.962C427.299 229.006 427.237 229.065 427.189 229.134C427.141 229.203 427.107 229.281 427.09 229.363C424.944 237.485 422.338 251.41 422.309 251.554C422.293 251.637 422.294 251.723 422.312 251.806C422.33 251.89 422.365 251.968 422.415 252.037C422.465 252.106 422.529 252.164 422.602 252.207C422.676 252.25 422.757 252.278 422.842 252.288L425.276 252.562L425.348 252.619Z" fill="#FFE6C9"/>
<path d="M425.333 252C425.333 252 426.226 262.527 425.607 263.16C424.987 263.794 419.573 263.434 419.314 262.527C419.055 261.619 422.914 251.727 422.914 251.727L425.333 252Z" fill="#115C40"/>
<path d="M395.683 249.192C395.829 249.191 395.97 249.138 396.08 249.043C396.191 248.948 396.265 248.817 396.288 248.674C397.625 241.301 399.37 234.008 401.515 226.829C401.547 226.749 401.561 226.664 401.558 226.579C401.555 226.493 401.534 226.41 401.497 226.333C401.46 226.256 401.407 226.187 401.342 226.132C401.277 226.076 401.202 226.034 401.12 226.009C401.038 225.984 400.952 225.977 400.867 225.987C400.782 225.997 400.7 226.024 400.627 226.067C400.553 226.11 400.489 226.168 400.439 226.237C400.388 226.307 400.353 226.385 400.335 226.469C398.231 233.509 396.506 240.657 395.165 247.882L393.999 247.723C394.848 243.922 399.197 224.539 401.962 216.677C402.017 216.522 402.009 216.352 401.939 216.203C401.868 216.055 401.742 215.94 401.587 215.885C401.433 215.83 401.262 215.838 401.114 215.908C400.965 215.978 400.851 216.105 400.795 216.259C397.714 225.029 392.688 247.939 392.645 248.098C392.626 248.181 392.625 248.268 392.641 248.352C392.658 248.436 392.691 248.515 392.74 248.586C392.789 248.656 392.852 248.716 392.924 248.76C392.997 248.805 393.079 248.835 393.163 248.846L395.583 249.178H395.669L395.683 249.192Z" fill="#FFE6C9"/>
<path d="M395.683 248.573C395.683 248.573 396.317 259.128 395.683 259.733C395.05 260.338 389.65 259.848 389.405 258.941C389.16 258.034 393.278 248.242 393.278 248.242L395.683 248.573Z" fill="#115C40"/>
<path d="M386.078 331.978C388.483 332.582 390.96 333.13 393.48 333.59L403.084 317.52C403.084 317.52 397.324 298.8 397.44 298.44C397.555 298.08 405.604 289.44 405.604 289.44C405.604 289.44 404.524 279.245 404.64 276.595C404.755 273.946 411.206 243.864 411.235 242.64C411.35 238.45 412.315 231.725 409.19 238.565C406.065 245.405 399.24 274.435 399.24 276.12C399.24 277.805 399.715 287.755 399.715 287.755C399.715 287.755 390.96 295.315 390.96 296.035C390.96 296.755 396.604 316.685 396.604 316.685L386.078 331.978Z" fill="#FFDCB5"/>
<path d="M418.853 319.09C426.167 319.076 433.452 318.186 440.554 316.44C440.696 316.387 440.814 316.284 440.885 316.151C440.956 316.017 440.975 315.862 440.94 315.715C440.904 315.568 440.816 315.439 440.692 315.352C440.568 315.266 440.417 315.227 440.266 315.245C397.628 325.613 370.052 301.939 369.778 301.695C369.719 301.632 369.648 301.583 369.569 301.55C369.49 301.517 369.405 301.501 369.319 301.502C369.234 301.503 369.149 301.523 369.071 301.558C368.994 301.594 368.924 301.645 368.867 301.709C368.81 301.773 368.767 301.848 368.741 301.93C368.714 302.011 368.705 302.097 368.713 302.183C368.722 302.268 368.748 302.35 368.79 302.425C368.832 302.5 368.889 302.565 368.957 302.616C369.188 302.832 388.138 319.09 418.853 319.09Z" fill="#FFE6C9"/>
<path d="M423.604 304.214C423.753 304.202 423.892 304.136 423.997 304.03C424.101 303.923 424.163 303.782 424.172 303.633C424.181 303.485 424.135 303.338 424.044 303.219C423.953 303.101 423.823 303.02 423.676 302.99C423.403 302.99 396.504 299.549 381.657 291.297C381.515 291.223 381.348 291.207 381.194 291.253C381.04 291.3 380.91 291.404 380.831 291.544C380.753 291.685 380.732 291.85 380.773 292.006C380.814 292.161 380.915 292.295 381.052 292.377C396.1 300.744 423.244 304.171 423.518 304.214H423.59H423.604Z" fill="#FFE6C9"/>
<path d="M457.675 216.965C457.675 216.965 467.884 202.435 468 201.6C468.115 200.765 461.044 187.805 459.115 186.365C457.185 184.925 435.355 180.72 424.8 180.13C414.244 179.539 402.364 183.37 401.284 183.845C400.204 184.32 394.2 188.41 393.724 191.29C393.249 194.17 392.76 217.685 392.76 217.685L457.675 216.965Z" fill="#ED9016"/>
<path d="M432.806 213.926C432.901 213.926 432.995 213.903 433.08 213.861C433.164 213.818 433.238 213.757 433.296 213.681C433.901 212.889 448.214 194.27 449.064 193.075C449.132 192.957 449.168 192.823 449.168 192.686C449.168 192.55 449.132 192.416 449.064 192.297C448.157 190.296 430.416 186.206 426.24 185.746C421.416 185.213 411.134 189.23 406.958 190.987L406.757 191.074C406.267 191.275 405.749 191.477 406.555 211.118C406.557 211.2 406.575 211.281 406.609 211.356C406.643 211.43 406.692 211.497 406.752 211.553C406.813 211.608 406.884 211.65 406.962 211.677C407.039 211.704 407.121 211.715 407.203 211.709C407.284 211.705 407.364 211.685 407.438 211.651C407.512 211.616 407.578 211.567 407.633 211.507C407.687 211.447 407.73 211.377 407.757 211.3C407.785 211.223 407.797 211.142 407.793 211.061C407.52 204.494 407.217 193.882 407.491 192.11C416.001 188.554 422.971 186.624 426.125 186.984C431.597 187.574 445.651 191.304 447.725 192.744C445.665 195.523 432.36 212.803 432.23 212.99C432.172 213.088 432.141 213.199 432.142 213.312C432.143 213.426 432.174 213.537 432.234 213.633C432.293 213.73 432.378 213.808 432.479 213.86C432.58 213.912 432.693 213.935 432.806 213.926Z" fill="#FFE6C9"/>
<path d="M440.093 203.4C440.093 203.4 427.133 196.027 422.986 195.48C418.838 194.933 407.146 198.864 407.146 198.864L407.923 243.907C407.932 244.12 408.006 244.325 408.135 244.494C408.264 244.663 408.442 244.789 408.645 244.853C408.848 244.918 409.066 244.918 409.269 244.855C409.472 244.791 409.651 244.666 409.781 244.498L440.093 203.4Z" fill="#0A3B29"/>
<path d="M450.058 202.118C449.356 202.182 448.681 202.422 448.095 202.814C447.509 203.206 447.03 203.74 446.703 204.365C443.146 211.133 432.836 234.302 438.236 266.169C444.716 304.329 463.681 318.485 463.681 318.485V293.04C463.681 293.04 453.356 272.635 453.356 252.475C453.356 235.742 461.29 220.795 463.983 216.129C464.549 215.155 464.734 214.006 464.502 212.904C464.274 211.802 463.648 210.823 462.745 210.153L452.982 202.953C452.15 202.345 451.129 202.054 450.102 202.133L450.058 202.118Z" fill="#0A3B29"/>
<path d="M410.572 266.112C410.654 266.112 410.736 266.095 410.812 266.063C410.888 266.031 410.957 265.984 411.015 265.925C411.073 265.866 411.118 265.796 411.148 265.72C411.178 265.643 411.193 265.561 411.191 265.478C411.191 265.349 411.018 251.755 411.551 245.203C411.562 245.056 411.52 244.91 411.433 244.791C411.346 244.673 411.219 244.589 411.076 244.555L407.116 243.662C406.975 243.63 406.827 243.649 406.698 243.715C406.569 243.78 406.467 243.889 406.41 244.022C403.753 250.543 401.69 257.29 400.247 264.182C400.219 264.321 400.239 264.466 400.305 264.592C400.37 264.717 400.477 264.817 400.607 264.873C400.722 264.873 403.588 266.097 410.557 266.184L410.572 266.112ZM410.269 245.635C409.852 251.553 409.909 262.166 409.938 264.859C407.112 264.874 404.295 264.526 401.557 263.822C402.944 257.388 404.871 251.083 407.317 244.973L410.269 245.635Z" fill="#FFE6C9"/>
<path d="M411.48 252.187C408.908 251.751 406.378 251.091 403.92 250.214C401.874 255.016 400.362 260.029 399.413 265.162C403.543 265.927 407.728 266.35 411.927 266.429C411.927 266.429 411.567 256.954 411.48 252.187Z" fill="#115C40"/>
<path d="M462.959 215.467C462.959 215.467 511.012 266.587 522.172 284.587C522.172 284.587 510.825 308.707 502.545 318.974L480.397 305.482L485.97 285.682L457.17 273.442C457.17 273.442 446.874 240.005 462.959 215.467Z" fill="#ED9016"/>
<path d="M500.069 287.122C504.949 287.139 509.804 286.421 514.469 284.991C514.614 284.934 514.732 284.824 514.8 284.684C514.867 284.544 514.88 284.383 514.834 284.234C514.789 284.085 514.689 283.959 514.555 283.88C514.42 283.802 514.261 283.776 514.109 283.81C506.164 286.204 497.742 286.546 489.629 284.803C489.398 284.745 489.162 284.706 488.924 284.688C488.76 284.688 488.602 284.753 488.486 284.87C488.37 284.986 488.305 285.143 488.305 285.307C488.305 285.472 488.37 285.629 488.486 285.745C488.602 285.861 488.76 285.927 488.924 285.927L489.413 286.027C492.92 286.749 496.49 287.116 500.069 287.122Z" fill="#FFE6C9"/>
<path d="M507.772 319.147C507.772 319.147 502.3 311.04 495.345 307.814C489.888 305.277 483.886 304.134 477.878 304.488L473.371 317.174C473.371 317.174 479.491 324.734 484.531 327.974C489.571 331.214 502.171 330.854 502.171 330.854L507.772 319.147Z" fill="#9F661A"/>
<path d="M503.007 314.078C503.127 314.076 503.245 314.039 503.345 313.971C503.444 313.902 503.522 313.806 503.568 313.695C503.614 313.583 503.626 313.46 503.603 313.342C503.58 313.223 503.523 313.114 503.439 313.027C501.182 310.667 498.531 308.718 495.605 307.267C491.253 305.27 486.563 304.112 481.781 303.854C481.617 303.854 481.459 303.92 481.343 304.036C481.227 304.152 481.162 304.309 481.162 304.474C481.162 304.638 481.227 304.795 481.343 304.912C481.459 305.028 481.617 305.093 481.781 305.093C486.403 305.341 490.937 306.46 495.144 308.391C497.917 309.792 500.426 311.663 502.56 313.92C502.682 314.03 502.843 314.087 503.007 314.078Z" fill="#FFE6C9"/>
<path d="M495.994 324.633C495.994 324.633 488.261 316.181 478.901 316.181C473.169 327.931 466.829 339.375 459.908 350.467L465.481 360.547C476.273 349.118 486.458 337.13 495.994 324.633Z" fill="#FFC897"/>
<path d="M458.194 345.6C458.194 345.6 463.507 355.867 471.787 370.987L466.2 375.667C466.2 375.667 455.04 363.427 449.453 348.494L458.194 345.6Z" fill="#F1A848"/>
<path d="M443.131 149.875C445.359 147.938 448.009 146.55 450.87 145.82C453.73 145.09 456.721 145.038 459.605 145.67C470.045 147.585 472.925 157.392 465.84 163.411C459.879 168.48 462.96 174.124 468.49 173.563C468.965 173.512 469.446 173.58 469.889 173.762C470.331 173.943 470.721 174.232 471.024 174.602C471.327 174.972 471.533 175.412 471.624 175.882C471.714 176.352 471.686 176.836 471.543 177.292C470.563 180.576 467.539 184.291 458.755 183.945C443.275 183.34 442.31 166.55 452.88 162.1C463.45 157.651 457.445 149.86 445.565 154.54L443.131 149.875Z" fill="#115C40"/>
<path d="M438.595 149.285C438.595 149.285 445.075 147.24 446.76 150.25C448.444 153.259 448.444 157.09 440.884 156.845L438.595 149.285Z" fill="#EF9827"/>
<path d="M416.635 183.125L417.24 192.47L418.205 207.245C427.205 210.355 430.2 204.48 430.2 204.48L427.68 182.592L427.363 179.885L416.635 183.125Z" fill="#FFC897"/>
<path d="M416.635 183.125L417.24 192.47C423.389 190.757 426.427 185.386 427.637 182.592L427.32 179.885L416.635 183.125Z" fill="#115C40"/>
<path d="M408.182 154.267C406.796 157.807 406.73 161.727 407.995 165.312C410.039 171.317 414.417 153.619 414.417 153.619L408.182 154.267Z" fill="#115C40"/>
<path d="M433.916 161.755C432.849 167.717 431.284 173.58 429.236 179.28C426.471 186.12 416.996 188.251 412.921 186.926C408.846 185.602 403.921 167.515 410.286 154.08C416.65 140.645 436.926 145.325 433.916 161.755Z" fill="#FFC897"/>
<path d="M434.635 171L427.795 170.395C428.307 167.423 428.428 164.398 428.155 161.395C427.55 158.155 422.395 157.435 421.675 153.475C420.955 149.515 421.43 145.08 429.479 146.39C437.529 147.701 440.524 158.76 434.635 171Z" fill="#115C40"/>
<path d="M407.044 155.765C414.651 156.29 422.145 157.885 429.307 160.503C433.439 161.966 437.434 163.792 441.244 165.96C441.244 165.96 443.044 156.24 441.835 150.725C440.625 145.21 427.68 138.715 420.004 139.075H419.515C412.099 140.127 407.044 155.765 407.044 155.765Z" fill="#0A4C33"/>
<path d="M407.045 155.765C414.651 156.29 422.146 157.885 429.307 160.502C429.567 156.182 429.883 148.118 429.12 145.31C428.501 143.035 424.8 140.112 419.515 139.118C412.099 140.126 407.045 155.765 407.045 155.765Z" fill="#EF9827"/>
<path d="M430.689 161.006C427.337 157.385 423.723 154.016 419.875 150.926C415.699 147.974 405 146.001 393.71 147.571L407.03 155.736C407.03 155.736 420.768 156.398 430.689 161.006Z" fill="#0A4C33"/>
<path d="M429.12 171.36C429.545 169.205 430.679 167.255 432.341 165.819C434.004 164.384 436.099 163.546 438.293 163.44C439.926 163.393 441.543 163.77 442.987 164.534C449.352 167.89 443.462 181.93 427.752 177.739L429.12 171.36Z" fill="#FFC897"/>
<path d="M430.157 175.68C430.244 175.68 430.329 175.654 430.401 175.606C430.473 175.557 430.528 175.487 430.56 175.406C434.276 166.45 441.087 168.206 441.389 168.322C441.5 168.352 441.618 168.338 441.718 168.281C441.818 168.224 441.891 168.13 441.922 168.019C441.952 167.908 441.938 167.79 441.881 167.69C441.824 167.59 441.73 167.517 441.619 167.486C441.533 167.486 433.772 165.384 429.754 175.075C429.711 175.18 429.711 175.298 429.754 175.403C429.797 175.508 429.88 175.592 429.984 175.637L430.157 175.68Z" fill="#0C4832"/>
<path d="M436.68 175.176H436.795C436.85 175.161 436.901 175.135 436.946 175.1C436.991 175.065 437.029 175.022 437.057 174.972C437.085 174.923 437.103 174.868 437.11 174.812C437.117 174.755 437.113 174.698 437.097 174.643C436.546 172.735 435.773 170.899 434.793 169.171C434.732 169.073 434.635 169.004 434.523 168.979C434.411 168.953 434.293 168.973 434.196 169.034C434.098 169.095 434.029 169.192 434.004 169.305C433.978 169.417 433.998 169.534 434.059 169.632C434.997 171.293 435.741 173.057 436.277 174.888C436.306 174.971 436.361 175.044 436.433 175.095C436.505 175.147 436.591 175.175 436.68 175.176Z" fill="#0C4832"/>
<path d="M424.426 165.24C424.426 165.24 422.986 161.093 419.818 162.23C419.818 162.23 419.703 160.301 418.925 160.185C418.147 160.07 417.917 163.526 417.917 163.526C420.18 163.655 422.393 164.238 424.426 165.24Z" fill="#115C40"/>
<path d="M408.196 164.563C408.196 164.563 408.657 160.646 410.586 162.057C410.586 162.057 410.471 160.156 410.903 160.142C411.897 160.142 411.796 163.512 411.796 163.512C410.509 163.422 409.232 163.795 408.196 164.563Z" fill="#115C40"/>
<path d="M414 176.169C414.099 176.173 414.196 176.142 414.275 176.082C414.354 176.022 414.41 175.937 414.433 175.841C414.457 175.745 414.447 175.643 414.405 175.554C414.363 175.464 414.291 175.392 414.202 175.349C413.554 175.017 411.84 173.909 411.797 172.843C411.754 171.777 413.827 168.149 414.418 167.285C414.483 167.189 414.507 167.072 414.485 166.958C414.464 166.845 414.398 166.745 414.303 166.68C414.207 166.615 414.09 166.591 413.976 166.612C413.863 166.634 413.763 166.7 413.698 166.795C413.698 166.795 410.818 171.115 410.919 172.872C411.019 174.629 413.511 175.968 413.799 176.126C413.861 176.157 413.931 176.172 414 176.169Z" fill="#115C40"/>
<path d="M412.315 179.698C413.204 180.562 414.202 181.307 415.282 181.915C417.067 182.866 419.141 183.182 419.947 180.302C420.228 179.227 420.349 178.116 420.307 177.005C420.307 177.005 418.147 179.093 412.315 179.698Z" fill="#115C40"/>
<path d="M415.282 181.915C417.067 182.866 419.141 183.183 419.947 180.303C419.098 180.2 418.237 180.293 417.429 180.572C416.621 180.851 415.886 181.311 415.282 181.915Z" fill="white"/>
<path d="M419.904 171.302C418.989 171.302 418.248 170.387 418.248 169.258C418.248 168.128 418.989 167.213 419.904 167.213C420.818 167.213 421.56 168.128 421.56 169.258C421.56 170.387 420.818 171.302 419.904 171.302Z" fill="#115C40"/>
<path d="M419.545 168.969C419.306 168.969 419.113 168.776 419.113 168.537C419.113 168.299 419.306 168.105 419.545 168.105C419.783 168.105 419.977 168.299 419.977 168.537C419.977 168.776 419.783 168.969 419.545 168.969Z" fill="white"/>
<path d="M410.184 171.302C409.269 171.302 408.528 170.387 408.528 169.258C408.528 168.128 409.269 167.213 410.184 167.213C411.098 167.213 411.84 168.128 411.84 169.258C411.84 170.387 411.098 171.302 410.184 171.302Z" fill="#115C40"/>
<path d="M409.824 168.969C409.585 168.969 409.392 168.776 409.392 168.537C409.392 168.299 409.585 168.105 409.824 168.105C410.062 168.105 410.256 168.299 410.256 168.537C410.256 168.776 410.062 168.969 409.824 168.969Z" fill="white"/>
</svg>
