<svg width="117" height="148" viewBox="0 0 117 148" fill="none" xmlns="http://www.w3.org/2000/svg">
<path d="M57.9385 104.779L77.9516 147.698L94.2132 132.799L116.081 129.919L96.6092 88.1612C80.8399 88.0266 67.9902 93.16 58.7295 104.779" fill="#60ABFB"/>
<path d="M58.7292 104.779L38.7161 147.698L22.4545 132.799L0.586914 129.919L20.0585 88.1612C39.494 86.6924 52.6539 91.9439 58.7292 104.779Z" fill="#60ABFB"/>
<path d="M58.3334 104.779C87.2675 104.779 110.722 81.3228 110.722 52.3903C110.722 23.4578 87.2675 0 58.3334 0C41.074 35.7463 39.6987 70.7377 58.3334 104.779Z" fill="#489EFA"/>
<path d="M58.334 104.779C29.3998 104.779 5.94531 81.3228 5.94531 52.3903C5.94531 23.4578 29.3998 0 58.334 0V104.725" fill="#6BB1FB"/>
<path d="M48.1229 89.2936C47.9719 89.2936 47.8177 89.2722 47.665 89.2296C27.3532 83.3446 15.6112 62.0334 21.4945 41.7199C21.7456 40.8485 22.6548 40.348 23.5278 40.6007C24.3976 40.8518 24.8998 41.7626 24.6471 42.634C19.2692 61.2079 30.0036 80.6959 48.5791 86.0754C49.4489 86.3281 49.9511 87.2389 49.6984 88.1087C49.4899 88.8275 48.8335 89.2936 48.1229 89.2936Z" fill="#033C79"/>
<path d="M93.5964 64.2423C93.4454 64.2423 93.2911 64.2209 93.1402 64.1766C92.2704 63.9239 91.7682 63.0147 92.0193 62.1433C94.627 53.1452 93.5718 43.6712 89.0522 35.4657C84.531 27.2602 77.087 21.3063 68.0889 18.7003C67.2191 18.4492 66.7169 17.5384 66.968 16.667C67.2207 15.7972 68.1299 15.2966 69.0013 15.5477C78.8413 18.3967 86.9828 24.9085 91.9258 33.882C96.8704 42.8555 98.0224 53.2157 95.1735 63.0557C94.9651 63.7762 94.3103 64.2423 93.5964 64.2423Z" fill="#033C79"/>
<path d="M67.9681 77.1314H51.2897C49.3434 77.1314 47.7614 75.5478 47.7614 73.6031V68.1809C47.7614 66.2346 49.3434 64.6525 51.2897 64.6525H53.1425C53.2787 64.6525 53.3887 64.5426 53.3887 64.4064V51.765C52.2186 52.0571 50.909 51.7092 50.0359 50.8345L46.2023 47.0026C44.8271 45.6273 44.8271 43.3889 46.2023 42.0136L59.8447 28.3712C60.8556 27.3587 62.3622 27.0584 63.6882 27.6065C65.0125 28.1546 65.8675 29.4347 65.8675 30.8657V64.4064C65.8675 64.5426 65.9775 64.6525 66.1121 64.6525H67.9665C69.9128 64.6525 71.4932 66.2346 71.4932 68.1809V73.6031C71.4965 75.5478 69.9145 77.1314 67.9681 77.1314Z" fill="#033C79"/>
</svg>
