<svg width="116" height="148" viewBox="0 0 116 148" fill="none" xmlns="http://www.w3.org/2000/svg">
<path d="M57.6055 104.779L77.6186 147.698L93.8802 132.799L115.748 129.919L96.2762 88.1612C80.5069 88.0266 67.6572 93.16 58.3965 104.779" fill="#E75A0B"/>
<path d="M58.3962 104.779L38.3831 147.698L22.1215 132.799L0.253906 129.919L19.7255 88.1612C39.161 86.6924 52.3209 91.9439 58.3962 104.779Z" fill="#E75A0B"/>
<path d="M58.0003 104.779C86.9345 104.779 110.389 81.3228 110.389 52.3903C110.389 23.4578 86.9345 0 58.0003 0C40.741 35.7463 39.3657 70.7377 58.0003 104.779Z" fill="#FA772D"/>
<path d="M58.001 104.779C29.0668 104.779 5.6123 81.3228 5.6123 52.3903C5.6123 23.4578 29.0668 0 58.001 0V104.725" fill="#FF9551"/>
<path d="M47.7899 89.2936C47.6389 89.2936 47.4847 89.2722 47.332 89.2296C27.0202 83.3446 15.2782 62.0334 21.1615 41.7199C21.4126 40.8485 22.3218 40.348 23.1948 40.6007C24.0646 40.8518 24.5668 41.7626 24.314 42.634C18.9362 61.2079 29.6706 80.6959 48.2461 86.0754C49.1159 86.3281 49.6181 87.2389 49.3653 88.1087C49.1569 88.8275 48.5005 89.2936 47.7899 89.2936Z" fill="#BC4E11"/>
<path d="M93.2634 64.2423C93.1124 64.2423 92.9581 64.2209 92.8072 64.1766C91.9374 63.9239 91.4352 63.0147 91.6863 62.1433C94.294 53.1452 93.2388 43.6712 88.7192 35.4657C84.198 27.2602 76.754 21.3063 67.7559 18.7003C66.8861 18.4492 66.3839 17.5384 66.635 16.667C66.8877 15.7972 67.7969 15.2966 68.6683 15.5477C78.5083 18.3967 86.6498 24.9085 91.5928 33.882C96.5374 42.8555 97.6894 53.2157 94.8405 63.0557C94.632 63.7762 93.9773 64.2423 93.2634 64.2423Z" fill="#BC4E11"/>
<path d="M67.6351 77.1314H50.9567C49.0104 77.1314 47.4284 75.5478 47.4284 73.6031V68.1809C47.4284 66.2346 49.0104 64.6525 50.9567 64.6525H52.8095C52.9457 64.6525 53.0557 64.5426 53.0557 64.4064V51.765C51.8856 52.0571 50.576 51.7092 49.7029 50.8345L45.8693 47.0026C44.4941 45.6273 44.4941 43.3889 45.8693 42.0136L59.5117 28.3712C60.5226 27.3587 62.0292 27.0584 63.3552 27.6065C64.6795 28.1546 65.5345 29.4347 65.5345 30.8657V64.4064C65.5345 64.5426 65.6445 64.6525 65.7791 64.6525H67.6335C69.5798 64.6525 71.1602 66.2346 71.1602 68.1809V73.6031C71.1635 75.5478 69.5815 77.1314 67.6351 77.1314Z" fill="#BC4E11"/>
</svg>
