<svg width="117" height="148" viewBox="0 0 117 148" fill="none" xmlns="http://www.w3.org/2000/svg">
<path d="M58.2715 104.779L78.2846 147.698L94.5462 132.799L116.414 129.919L96.9422 88.1612C81.1729 88.0266 68.3232 93.16 59.0625 104.779" fill="#ED6C80"/>
<path d="M59.0622 104.779L39.0491 147.698L22.7875 132.799L0.919922 129.919L20.3915 88.1612C39.827 86.6924 52.9869 91.9439 59.0622 104.779Z" fill="#ED6C80"/>
<path d="M58.6664 104.779C87.6005 104.779 111.055 81.3228 111.055 52.3903C111.055 23.4578 87.6005 0 58.6664 0C41.407 35.7463 40.0317 70.7377 58.6664 104.779Z" fill="#EA586E"/>
<path d="M58.667 104.779C29.7328 104.779 6.27832 81.3228 6.27832 52.3903C6.27832 23.4578 29.7328 0 58.667 0V104.725" fill="#F18D9C"/>
<path d="M48.4559 89.2936C48.3049 89.2936 48.1507 89.2722 47.998 89.2296C27.6862 83.3446 15.9442 62.0334 21.8275 41.7199C22.0786 40.8485 22.9878 40.348 23.8608 40.6007C24.7306 40.8518 25.2328 41.7626 24.9801 42.634C19.6022 61.2079 30.3366 80.6959 48.9121 86.0754C49.7819 86.3281 50.2841 87.2389 50.0314 88.1087C49.8229 88.8275 49.1665 89.2936 48.4559 89.2936Z" fill="#C61933"/>
<path d="M93.9294 64.2423C93.7784 64.2423 93.6242 64.2209 93.4732 64.1766C92.6034 63.9239 92.1012 63.0147 92.3523 62.1433C94.96 53.1452 93.9048 43.6712 89.3852 35.4657C84.864 27.2602 77.42 21.3063 68.4219 18.7003C67.5521 18.4492 67.0499 17.5384 67.301 16.667C67.5537 15.7972 68.4629 15.2966 69.3343 15.5477C79.1743 18.3967 87.3158 24.9085 92.2588 33.882C97.2034 42.8555 98.3554 53.2157 95.5065 63.0557C95.2981 63.7762 94.6433 64.2423 93.9294 64.2423Z" fill="#C61933"/>
<path d="M68.3011 77.1314H51.6227C49.6764 77.1314 48.0944 75.5478 48.0944 73.6031V68.1809C48.0944 66.2346 49.6764 64.6525 51.6227 64.6525H53.4755C53.6117 64.6525 53.7217 64.5426 53.7217 64.4064V51.765C52.5516 52.0571 51.242 51.7092 50.3689 50.8345L46.5353 47.0026C45.1601 45.6273 45.1601 43.3889 46.5353 42.0136L60.1777 28.3712C61.1887 27.3587 62.6952 27.0584 64.0212 27.6065C65.3455 28.1546 66.2005 29.4347 66.2005 30.8657V64.4064C66.2005 64.5426 66.3105 64.6525 66.4451 64.6525H68.2995C70.2458 64.6525 71.8262 66.2346 71.8262 68.1809V73.6031C71.8295 75.5478 70.2475 77.1314 68.3011 77.1314Z" fill="#C61933"/>
</svg>
