<svg width="1440" height="485" viewBox="0 0 1440 485" fill="none" xmlns="http://www.w3.org/2000/svg">
<path d="M34.8 57.5528L0 36.9079V485H1440V67.8752L1405.2 62.714C1371.6 57.5528 1303.2 47.2304 1234.8 73.0365C1208.85 82.6565 1183.08 97.297 1157.4 111.878C1114.2 136.412 1071.3 160.777 1028.4 160.777C977.1 160.777 925.8 125.939 874.5 91.1008C857.4 79.488 840.3 67.8753 823.2 57.5528C754.8 16.2631 685.2 -4.38179 616.8 0.779423C548.4 5.94064 480 36.9079 411.6 67.8752C343.2 98.8426 274.8 129.81 205.2 124.649C136.8 119.487 68.4 78.1977 34.8 57.5528Z" fill="#FFE6C9"/>
</svg>
