<svg width="665" height="720" viewBox="0 0 665 720" fill="none" xmlns="http://www.w3.org/2000/svg">
<path d="M322.472 636.264H399.812V674.654H322.472C317.77 674.654 313.261 672.632 309.936 669.032C306.611 665.433 304.743 660.55 304.743 655.459C304.743 650.368 306.611 645.486 309.936 641.886C313.261 638.286 317.77 636.264 322.472 636.264Z" fill="#ED9017"/>
<path d="M477.576 636.278V643.262H477.124C476.708 643.656 476.317 644.08 475.954 644.53C474.794 645.963 473.892 647.619 473.294 649.411C472.653 651.357 472.329 653.408 472.336 655.474C472.297 658.978 473.264 662.41 475.102 665.294C475.67 666.176 476.336 666.978 477.084 667.685H477.523V674.669H400.237C395.535 674.669 391.025 672.646 387.7 669.047C384.376 665.447 382.508 660.564 382.508 655.474C382.508 650.383 384.376 645.5 387.7 641.9C391.025 638.301 395.535 636.278 400.237 636.278H477.576Z" fill="#FFB075"/>
<path d="M477.137 667.684H401.952C398.954 667.684 396.079 666.395 393.959 664.099C391.839 661.804 390.647 658.691 390.647 655.445C390.647 652.198 391.839 649.085 393.959 646.79C396.079 644.494 398.954 643.205 401.952 643.205H477.124C476.708 643.599 476.317 644.022 475.954 644.472C474.794 645.905 473.892 647.561 473.294 649.353C472.653 651.299 472.329 653.35 472.336 655.416C472.297 658.92 473.264 662.352 475.102 665.236C475.683 666.141 476.367 666.964 477.137 667.684Z" fill="#F5F5F5"/>
<path d="M347.902 674.654H334.602C329.9 674.654 325.391 672.632 322.066 669.032C318.741 665.433 316.873 660.55 316.873 655.459C316.873 650.368 318.741 645.486 322.066 641.886C325.391 638.286 329.9 636.264 334.602 636.264H347.902C343.2 636.264 338.691 638.286 335.366 641.886C332.041 645.486 330.173 650.368 330.173 655.459C330.173 660.55 332.041 665.433 335.366 669.032C338.691 672.632 343.2 674.654 347.902 674.654Z" fill="#713310"/>
<path d="M386.351 674.654H373.051C368.349 674.654 363.84 672.632 360.515 669.032C357.19 665.433 355.322 660.55 355.322 655.459C355.322 650.368 357.19 645.486 360.515 641.886C363.84 638.286 368.349 636.264 373.051 636.264H386.351C381.649 636.264 377.14 638.286 373.815 641.886C370.49 645.486 368.622 650.368 368.622 655.459C368.622 660.55 370.49 665.433 373.815 669.032C377.14 672.632 381.649 674.654 386.351 674.654Z" fill="#713310"/>
<path d="M308.055 597.874H385.395V636.264H308.055C305.727 636.264 303.421 635.767 301.271 634.803C299.12 633.838 297.165 632.424 295.519 630.642C293.873 628.859 292.567 626.743 291.676 624.414C290.785 622.086 290.326 619.589 290.326 617.069C290.326 614.548 290.785 612.052 291.676 609.723C292.567 607.394 293.873 605.278 295.519 603.496C297.165 601.713 299.12 600.299 301.271 599.335C303.421 598.37 305.727 597.874 308.055 597.874Z" fill="#115C40"/>
<path d="M463.159 597.874V604.8H462.707C462.291 605.194 461.9 605.617 461.536 606.067C460.377 607.501 459.475 609.156 458.876 610.949C458.236 612.894 457.912 614.946 457.919 617.011C457.88 620.516 458.846 623.947 460.685 626.832C461.253 627.713 461.919 628.516 462.667 629.222H463.106V636.206H385.806C381.104 636.206 376.595 634.184 373.27 630.584C369.945 626.984 368.077 622.102 368.077 617.011C368.077 611.92 369.945 607.038 373.27 603.438C376.595 599.838 381.104 597.816 385.806 597.816H463.146L463.159 597.874Z" fill="#40B68A"/>
<path d="M462.72 629.28H387.535C384.537 629.28 381.662 627.991 379.542 625.695C377.422 623.4 376.23 620.286 376.23 617.04C376.23 613.794 377.422 610.681 379.542 608.385C381.662 606.09 384.537 604.8 387.535 604.8H462.707C462.292 605.194 461.901 605.617 461.537 606.067C460.377 607.501 459.475 609.157 458.877 610.949C458.237 612.895 457.913 614.946 457.919 617.011C457.88 620.516 458.847 623.947 460.685 626.832C461.267 627.737 461.95 628.559 462.72 629.28Z" fill="#F5F5F5"/>
<path d="M333.484 636.264H320.184C315.482 636.264 310.973 634.242 307.648 630.642C304.323 627.042 302.455 622.16 302.455 617.069C302.455 611.978 304.323 607.095 307.648 603.496C310.973 599.896 315.482 597.874 320.184 597.874H333.484C328.782 597.874 324.273 599.896 320.948 603.496C317.623 607.095 315.755 611.978 315.755 617.069C315.755 622.16 317.623 627.042 320.948 630.642C324.273 634.242 328.782 636.264 333.484 636.264Z" fill="#023824"/>
<path d="M371.934 636.264H358.634C353.932 636.264 349.423 634.242 346.098 630.642C342.773 627.042 340.905 622.16 340.905 617.069C340.905 611.978 342.773 607.095 346.098 603.496C349.423 599.896 353.932 597.874 358.634 597.874H371.934C367.232 597.874 362.723 599.896 359.398 603.496C356.073 607.095 354.205 611.978 354.205 617.069C354.205 622.16 356.073 627.042 359.398 630.642C362.723 634.242 367.232 636.264 371.934 636.264Z" fill="#023824"/>
<path d="M331.169 559.483H408.509V597.873H331.169C326.467 597.873 321.958 595.851 318.633 592.251C315.308 588.651 313.44 583.769 313.44 578.678C313.44 576.157 313.899 573.661 314.79 571.332C315.681 569.004 316.987 566.887 318.633 565.105C320.279 563.323 322.234 561.909 324.385 560.944C326.536 559.979 328.841 559.483 331.169 559.483Z" fill="#ED9017"/>
<path d="M486.222 559.483V566.467H485.769C485.354 566.861 484.963 567.284 484.599 567.734C483.439 569.168 482.537 570.823 481.939 572.616C481.299 574.561 480.975 576.613 480.982 578.678C480.943 582.183 481.909 585.614 483.748 588.499C484.316 589.38 484.981 590.183 485.73 590.889H486.169V597.873H408.882C404.18 597.873 399.671 595.851 396.346 592.251C393.021 588.651 391.153 583.769 391.153 578.678C391.153 573.587 393.021 568.705 396.346 565.105C399.671 561.505 404.18 559.483 408.882 559.483H486.222Z" fill="#FFB075"/>
<path d="M485.795 590.89H410.597C407.599 590.89 404.723 589.6 402.603 587.305C400.483 585.009 399.292 581.896 399.292 578.65C399.292 575.403 400.483 572.29 402.603 569.995C404.723 567.699 407.599 566.41 410.597 566.41H485.769C485.353 566.804 484.962 567.227 484.598 567.677C483.439 569.111 482.536 570.766 481.938 572.558C481.298 574.504 480.974 576.555 480.981 578.621C480.942 582.126 481.908 585.557 483.747 588.442C484.332 589.348 485.02 590.17 485.795 590.89Z" fill="#F5F5F5"/>
<path d="M356.559 597.873H343.259C338.557 597.873 334.048 595.851 330.723 592.251C327.398 588.651 325.53 583.769 325.53 578.678C325.53 573.587 327.398 568.705 330.723 565.105C334.048 561.505 338.557 559.483 343.259 559.483H356.559C351.857 559.483 347.348 561.505 344.023 565.105C340.698 568.705 338.83 573.587 338.83 578.678C338.83 583.769 340.698 588.651 344.023 592.251C347.348 595.851 351.857 597.873 356.559 597.873Z" fill="#713310"/>
<path d="M395.01 597.873H381.71C377.008 597.873 372.499 595.851 369.174 592.251C365.849 588.651 363.981 583.769 363.981 578.678C363.981 573.587 365.849 568.705 369.174 565.105C372.499 561.505 377.008 559.483 381.71 559.483H395.01C390.308 559.483 385.799 561.505 382.474 565.105C379.149 568.705 377.281 573.587 377.281 578.678C377.281 583.769 379.149 588.651 382.474 592.251C385.799 595.851 390.308 597.873 395.01 597.873Z" fill="#713310"/>
<path d="M310.037 521.078H387.376V559.469H310.037C305.335 559.469 300.825 557.446 297.5 553.847C294.175 550.247 292.308 545.365 292.308 540.274C292.308 535.183 294.175 530.3 297.5 526.701C300.825 523.101 305.335 521.078 310.037 521.078Z" fill="#115C40"/>
<path d="M465.142 521.093V528.077H464.689C464.274 528.471 463.883 528.894 463.519 529.344C462.359 530.778 461.457 532.434 460.859 534.226C460.219 536.172 459.895 538.223 459.901 540.288C459.863 543.793 460.829 547.224 462.668 550.109C463.236 550.99 463.901 551.793 464.649 552.499H465.088V559.483H387.802C383.1 559.483 378.591 557.461 375.266 553.861C371.941 550.261 370.073 545.379 370.073 540.288C370.073 535.197 371.941 530.315 375.266 526.715C378.591 523.115 383.1 521.093 387.802 521.093H465.142Z" fill="#40B68A"/>
<path d="M464.702 552.499H389.517C386.519 552.499 383.643 551.21 381.523 548.914C379.403 546.619 378.212 543.506 378.212 540.259C378.212 537.013 379.403 533.9 381.523 531.604C383.643 529.309 386.519 528.019 389.517 528.019H464.688C464.273 528.413 463.882 528.837 463.518 529.286C462.358 530.72 461.456 532.376 460.858 534.168C460.218 536.114 459.894 538.165 459.9 540.23C459.862 543.735 460.828 547.167 462.667 550.051C463.248 550.956 463.932 551.779 464.702 552.499Z" fill="#F5F5F5"/>
<path d="M335.465 559.469H322.165C317.463 559.469 312.954 557.446 309.629 553.847C306.304 550.247 304.437 545.365 304.437 540.274C304.437 535.183 306.304 530.3 309.629 526.701C312.954 523.101 317.463 521.078 322.165 521.078H335.465C330.763 521.078 326.254 523.101 322.929 526.701C319.604 530.3 317.737 535.183 317.737 540.274C317.737 545.365 319.604 550.247 322.929 553.847C326.254 557.446 330.763 559.469 335.465 559.469Z" fill="#023824"/>
<path d="M373.917 559.469H360.617C355.915 559.469 351.405 557.446 348.08 553.847C344.756 550.247 342.888 545.365 342.888 540.274C342.888 535.183 344.756 530.3 348.08 526.701C351.405 523.101 355.915 521.078 360.617 521.078H373.917C369.215 521.078 364.705 523.101 361.38 526.701C358.056 530.3 356.188 535.183 356.188 540.274C356.188 545.365 358.056 550.247 361.38 553.847C364.705 557.446 369.215 559.469 373.917 559.469Z" fill="#023824"/>
<path d="M351.678 450.547C351.678 450.547 348.274 460.786 344.895 470.794C341.69 480.254 338.498 489.514 338.245 489.6C337.727 489.802 327.605 490.565 327.605 490.565L332.62 467.323L336.796 448.056L351.678 450.547Z" fill="#FFC897"/>
<path d="M351.678 450.547C351.678 450.547 348.273 460.786 344.895 470.794L332.659 467.323L336.835 448.056L351.678 450.547Z" fill="#023824"/>
<path d="M394.398 512.64V513.418L393.879 520.935L360.35 521.842L318.096 522.98C318.096 522.98 318.096 520.1 318.455 515.78C319.133 507.744 321.115 494.482 327.18 483.84C331.856 484.644 336.61 484.775 341.317 484.229C341.317 484.229 360.23 493.33 367.04 494.093H367.452C370.91 494.784 395.821 499.68 394.398 512.64Z" fill="#023824"/>
<path d="M364.592 503.079H364.419C355.16 500.482 346.043 497.319 337.115 493.603C337.033 493.567 336.96 493.515 336.897 493.448C336.835 493.381 336.785 493.301 336.751 493.214C336.717 493.126 336.7 493.032 336.699 492.937C336.699 492.842 336.716 492.748 336.749 492.66C336.782 492.572 336.831 492.492 336.893 492.425C336.954 492.357 337.028 492.304 337.109 492.267C337.19 492.23 337.276 492.211 337.364 492.21C337.452 492.21 337.539 492.228 337.62 492.264C346.496 495.959 355.559 499.103 364.765 501.682C364.909 501.737 365.031 501.844 365.111 501.985C365.19 502.126 365.223 502.292 365.203 502.456C365.182 502.62 365.111 502.771 364.999 502.885C364.888 502.998 364.745 503.066 364.592 503.079Z" fill="#2E9C73"/>
<path d="M336.158 501.575C336.666 497.276 334.592 493.446 331.525 493.021C328.458 492.595 325.559 495.736 325.05 500.035C324.541 504.334 326.615 508.164 329.683 508.589C332.75 509.015 335.649 505.875 336.158 501.575Z" fill="#ED9017"/>
<path d="M395.116 513.432C394.829 515.977 394.385 518.497 393.786 520.978L360.257 521.885C360.16 519.417 360.204 516.945 360.39 514.483C360.868 508.003 362.531 499.81 367.359 494.15C368.051 493.327 368.807 492.571 369.62 491.89C376.236 491.78 382.742 493.735 388.36 497.52C394.624 501.797 395.635 507.715 395.116 513.432Z" fill="#2E9C73"/>
<path d="M395.116 513.432C394.829 515.976 394.385 518.497 393.786 520.978L360.257 521.885L318.003 523.022C318.003 523.022 318.003 520.142 318.362 515.822L360.39 514.526L394.318 513.504L395.116 513.432Z" fill="#2E9C73"/>
<path d="M383.319 364.809C383.319 369.403 357.504 447.868 357.504 447.868L331.343 447.105L341.597 388.915L327.18 394.43L301.617 404.164L266.306 417.6C264.491 418.604 262.605 419.452 260.667 420.134C252.487 423.086 236.979 426.024 224.597 412.617C206.921 393.48 223.639 338.457 256.41 337.968C282.226 337.579 372.014 346.392 374.488 347.544C376.962 348.696 383.319 360.216 383.319 364.809Z" fill="#115C40"/>
<path d="M349.791 368.438C346.838 374.112 341.545 388.93 341.545 388.93L327.181 394.43L349.059 368.438H349.791Z" fill="#023824"/>
<path d="M301.591 404.179L266.306 417.6C264.491 418.605 262.606 419.452 260.667 420.134L271.852 404.698L280.976 393.653L301.591 404.179Z" fill="#023824"/>
<path d="M340.906 441.965H340.746C340.661 441.941 340.582 441.9 340.512 441.843C340.442 441.786 340.383 441.715 340.338 441.633C340.294 441.552 340.264 441.461 340.252 441.368C340.24 441.274 340.245 441.178 340.267 441.086C346.119 416.117 354.791 378.231 354.738 376.171C354.684 374.112 350.003 369.735 349.005 369.202C346.199 369.893 304.198 382.637 281.987 389.362C281.81 389.413 281.622 389.387 281.464 389.288C281.305 389.19 281.19 389.027 281.142 388.836C281.094 388.645 281.119 388.442 281.21 388.27C281.301 388.099 281.451 387.973 281.627 387.922C301.657 381.831 348.314 367.646 349.032 367.646C350.202 367.646 355.868 373.219 356.054 375.97C356.24 378.504 343.047 434.909 341.544 441.346C341.522 441.514 341.446 441.668 341.329 441.781C341.212 441.895 341.062 441.96 340.906 441.965Z" fill="#023824"/>
<path d="M330.052 440.64C331.263 440.237 346.997 441.691 350.787 441.504C354.578 441.317 361.427 441.403 362.278 442.656C363.13 443.909 358.568 460.929 358.395 461.981C358.222 463.032 346.997 463.32 339.775 463.219C332.553 463.118 326.475 463.032 326.169 460.152C325.863 457.272 327.791 441.36 330.052 440.64Z" fill="#A6D8FF"/>
<path d="M201.428 608.256L199.114 621.086L197.185 631.8L185.335 633.139L187.011 616.925L187.822 609.033L201.428 608.256Z" fill="#FFC897"/>
<path d="M201.429 608.256L199.115 621.086L187.012 616.925L187.823 609.033L201.429 608.256Z" fill="#023824"/>
<path d="M227.057 674.669H173.325C173.039 671.746 173.079 668.797 173.445 665.885C173.512 665.165 173.591 664.445 173.685 663.595C173.929 661.716 174.262 659.851 174.682 658.008C175.666 653.472 177.182 647.626 178.672 642.355C180.707 635.285 182.768 629.223 183.54 628.747C186.014 627.221 198.569 627.034 201.402 629.914C204.235 632.794 209.887 643.882 209.887 643.882C209.887 643.882 218.373 642.931 222.788 650.765C227.204 658.599 227.057 674.669 227.057 674.669Z" fill="#023824"/>
<path d="M197.89 651.845H197.704C186.904 648.317 186.106 633.125 186.372 631.598C186.404 631.407 186.505 631.238 186.652 631.127C186.799 631.016 186.981 630.974 187.157 631.008C187.334 631.042 187.49 631.151 187.592 631.31C187.695 631.47 187.734 631.667 187.702 631.858C187.49 633.082 188.301 647.251 198.116 650.462C198.255 650.526 198.37 650.638 198.442 650.782C198.514 650.925 198.539 651.09 198.512 651.251C198.486 651.412 198.41 651.558 198.297 651.666C198.184 651.774 198.041 651.837 197.89 651.845Z" fill="#2E9C73"/>
<path d="M227.057 674.669H173.325C173.039 671.746 173.079 668.797 173.445 665.885H194.725C194.552 644.631 209.94 643.867 209.94 643.867C209.94 643.867 218.426 642.917 222.841 650.75C227.257 658.584 227.057 674.669 227.057 674.669Z" fill="#2E9C73"/>
<path d="M183.833 652.32C182.902 657.317 179.909 660.874 177.183 660.283C176.638 660.134 176.131 659.856 175.696 659.471C175.262 659.085 174.911 658.6 174.669 658.051C175.653 653.515 177.169 647.669 178.659 642.399C179.25 642.125 179.903 642.049 180.534 642.183C183.314 642.73 184.764 647.28 183.833 652.32Z" fill="#ED9017"/>
<path d="M202.838 343.57C202.838 343.57 199.128 364.81 198.423 374.386C197.718 383.962 195.005 496.109 195.005 496.109C195.005 496.109 189.818 516.773 189.113 526.219C188.408 535.665 185.814 598.219 185.814 598.219L205.618 596.693C205.618 596.693 235.556 496.656 245.452 464.501C255.347 432.346 271.852 404.784 271.852 404.784C271.852 404.784 277.944 361.339 279.393 343.541C282.213 308.794 213.984 283.91 202.838 343.57Z" fill="#115C40"/>
<path d="M271.838 405.461C271.746 405.483 271.651 405.483 271.559 405.461C271.429 405.397 271.322 405.29 271.252 405.155C271.183 405.021 271.155 404.865 271.173 404.712L278.715 343.469C278.738 343.278 278.83 343.105 278.971 342.987C279.111 342.87 279.29 342.818 279.466 342.842C279.642 342.867 279.802 342.967 279.911 343.12C280.019 343.272 280.068 343.465 280.045 343.656L272.783 402.581L280.35 393.437C283.662 374.976 288.038 327.197 288.078 326.707C288.095 326.516 288.182 326.341 288.32 326.219C288.457 326.098 288.633 326.04 288.809 326.059C288.986 326.078 289.148 326.173 289.26 326.321C289.372 326.47 289.425 326.66 289.408 326.851C289.408 327.341 284.952 375.523 281.627 393.898C281.604 394.026 281.549 394.146 281.468 394.243L272.331 405.288C272.263 405.351 272.185 405.399 272.101 405.428C272.016 405.458 271.927 405.469 271.838 405.461Z" fill="#023824"/>
<path d="M191.001 585.892H190.934C190.847 585.883 190.762 585.856 190.684 585.811C190.607 585.766 190.538 585.705 190.482 585.632C190.427 585.558 190.385 585.473 190.36 585.382C190.335 585.291 190.326 585.195 190.336 585.1C190.588 582.436 196.494 519.624 198.316 511.761C200.138 503.899 201.867 492.48 201.893 492.48C201.893 492.019 203.543 437.76 203.769 419.04C203.995 400.32 202.957 362.793 202.944 362.419C202.94 362.324 202.954 362.23 202.984 362.141C203.015 362.052 203.061 361.971 203.12 361.901C203.179 361.832 203.251 361.775 203.33 361.736C203.409 361.696 203.495 361.674 203.582 361.67C203.758 361.666 203.928 361.736 204.057 361.865C204.186 361.994 204.264 362.172 204.274 362.361C204.274 362.736 205.338 400.363 205.099 419.04C204.859 437.716 203.223 492.004 203.21 492.48C203.21 492.681 201.521 504.172 199.659 512.035C197.797 519.897 191.679 584.51 191.679 585.172C191.679 585.268 191.661 585.363 191.627 585.451C191.593 585.54 191.543 585.62 191.48 585.687C191.416 585.754 191.341 585.806 191.259 585.842C191.177 585.877 191.089 585.894 191.001 585.892Z" fill="#023824"/>
<path d="M183.753 590.659C181.878 591.091 180.215 609.034 180.747 611.899C181.279 614.765 190.828 615.73 194.712 615.917C198.4 615.994 202.066 615.28 205.498 613.815C207.267 612.864 212.042 590.846 211.856 589.896C211.67 588.946 186.2 590.083 183.753 590.659Z" fill="#A6D8FF"/>
<path d="M368.237 210.542C367.771 213.61 361.4 224.827 358.581 226.613C357.025 227.606 341.105 228.658 323.017 228.053C311.178 227.837 299.376 226.56 287.732 224.237C285.431 223.718 283.263 223.128 281.268 222.494C256.756 214.589 261.238 170.438 300.127 177.581C301.457 177.84 334.295 184.982 334.295 184.982L330.997 167.371L340.4 167.645L357.158 168.134C357.158 168.134 368.715 207.49 368.237 210.542Z" fill="#ED9017"/>
<path d="M323.016 228.096C311.178 227.88 299.376 226.604 287.731 224.28C285.963 218.175 285.484 211.637 286.401 209.52C288.277 205.445 297.121 201.615 297.121 201.615L323.016 228.096Z" fill="#53260D"/>
<path d="M353.979 169.92L334.295 184.968L330.997 167.356L340.4 167.63C347.276 168.782 353.979 169.92 353.979 169.92Z" fill="#3A1B0A"/>
<path d="M353.98 213.754C353.819 213.755 353.663 213.694 353.541 213.581C344.644 205.33 335.134 188.885 335.028 188.726C334.934 188.564 334.904 188.368 334.944 188.182C334.984 187.996 335.091 187.834 335.24 187.733C335.39 187.632 335.571 187.599 335.743 187.642C335.915 187.685 336.065 187.801 336.158 187.963C336.251 188.122 345.654 204.379 354.406 212.443C354.526 212.533 354.615 212.663 354.66 212.813C354.705 212.963 354.703 213.125 354.655 213.274C354.607 213.423 354.514 213.551 354.392 213.637C354.27 213.724 354.126 213.765 353.98 213.754Z" fill="#FFC897"/>
<path d="M326.941 157.723C326.661 158.703 327.473 175.335 327.646 176.098C327.819 176.861 341.252 180.504 349.218 179.352C357.185 178.2 362.119 173.031 362.306 171.691C362.492 170.352 357.358 155.045 356.826 154.656C351.76 153.518 346.619 152.815 341.451 152.554C337.368 152.554 327.646 155.232 326.941 157.723Z" fill="#BC4E11"/>
<path d="M329.468 145.987C330.488 149.971 331.275 154.021 331.822 158.112C331.822 158.112 338.179 160.531 342.661 160.287C345.335 160.131 347.892 159.057 349.963 157.219L342.422 142.287C342.422 142.287 342.302 127.109 341.092 123.567C339.882 120.024 338.259 116.165 338.259 116.165L319.998 119.736C319.998 119.736 320.876 131.155 320.876 134.511C320.876 137.866 329.468 145.987 329.468 145.987Z" fill="#FFC897"/>
<path d="M322.671 335.318C322.671 336.845 319.718 341.942 316.659 343.094C313.6 344.246 295.207 351.518 264.098 352.281C232.989 353.045 197.984 345.009 197.984 345.009C197.984 345.009 195.151 343.094 196.215 336.585C197.279 330.077 202.466 320.27 201.056 296.265C200.976 294.969 200.923 293.472 200.923 291.859C200.803 280.339 202.173 261.115 203.836 242.395C206.256 215.035 209.289 188.654 209.289 188.654C220.054 179.939 232.505 173.982 245.704 171.23C269.152 169.459 298.625 177.35 298.625 177.35C311.579 224.049 309.265 307.886 310.515 312.609C311.765 317.333 315.236 321.249 316.061 322.805C316.886 324.36 316.766 329.184 316.766 329.184C316.766 329.184 322.671 333.792 322.671 335.318Z" fill="#ED9017"/>
<path d="M306.605 226.296C306.44 226.297 306.28 226.231 306.157 226.111C306.034 225.991 305.957 225.826 305.94 225.648C304.729 211.088 302.506 196.647 299.29 182.448C299.246 182.257 299.274 182.055 299.367 181.886C299.461 181.717 299.612 181.596 299.789 181.548C299.965 181.5 300.152 181.53 300.308 181.632C300.464 181.733 300.576 181.897 300.62 182.088C303.828 196.36 306.037 210.873 307.23 225.504C307.239 225.599 307.231 225.694 307.206 225.786C307.181 225.877 307.139 225.962 307.083 226.035C307.028 226.109 306.959 226.17 306.882 226.215C306.804 226.259 306.719 226.287 306.632 226.296H306.565H306.605Z" fill="#FFC897"/>
<path d="M224.943 233.28C224.397 233.481 207.998 274.248 200.936 291.888C200.816 280.368 202.186 261.144 203.849 242.424L224.943 233.28Z" fill="#53260D"/>
<path d="M274.06 336.038C259.647 336.005 245.259 334.72 231.035 332.193C230.948 332.178 230.864 332.145 230.788 332.094C230.713 332.044 230.648 331.979 230.596 331.901C230.544 331.823 230.507 331.736 230.486 331.642C230.466 331.549 230.462 331.453 230.476 331.358C230.49 331.264 230.521 331.173 230.568 331.091C230.614 331.01 230.675 330.939 230.746 330.883C230.818 330.827 230.899 330.786 230.985 330.764C231.071 330.742 231.16 330.738 231.248 330.753C279.939 339.307 312.045 330.854 312.378 330.753C312.465 330.731 312.556 330.727 312.644 330.742C312.733 330.757 312.818 330.791 312.895 330.842C312.971 330.893 313.038 330.959 313.091 331.038C313.143 331.117 313.181 331.206 313.202 331.301C313.223 331.395 313.227 331.493 313.213 331.589C313.199 331.685 313.167 331.777 313.12 331.86C313.073 331.943 313.012 332.015 312.939 332.072C312.866 332.13 312.784 332.171 312.697 332.193C312.484 332.251 298.093 336.038 274.06 336.038Z" fill="#FFC897"/>
<path d="M217.402 344.721C217.294 344.72 217.188 344.691 217.093 344.636C216.998 344.581 216.917 344.501 216.857 344.404C212.867 337.968 213.984 332.985 215.527 326.102C217.01 320.434 217.902 314.604 218.187 308.721C218.878 289.915 218.187 259.257 218.187 258.94C218.185 258.846 218.2 258.752 218.232 258.664C218.264 258.576 218.312 258.495 218.372 258.427C218.433 258.359 218.505 258.304 218.585 258.266C218.665 258.228 218.751 258.208 218.838 258.206C219.012 258.213 219.177 258.288 219.302 258.418C219.427 258.549 219.504 258.724 219.517 258.912C219.517 259.214 220.222 289.929 219.517 308.779C219.242 314.758 218.35 320.684 216.857 326.448C215.274 333.216 214.197 337.68 217.934 343.584C218.004 343.691 218.046 343.816 218.056 343.947C218.065 344.078 218.04 344.209 217.986 344.327C217.931 344.444 217.848 344.542 217.745 344.612C217.642 344.682 217.523 344.719 217.402 344.721Z" fill="#FFC897"/>
<path d="M260.945 162.72C256.091 162.518 248.31 162.907 248.31 162.907L239.918 176.976C239.918 176.976 248.935 184.536 258.033 185.976L266.425 177.336L273.141 184.795C276.397 182.177 279.416 179.231 282.159 175.997L275.974 165.571C275.974 165.571 265.72 162.936 260.945 162.72Z" fill="#115C40"/>
<path d="M208.809 188.957C190.708 201.773 162.139 273.11 161.9 281.779C161.661 290.448 178.405 331.79 178.405 331.79L200.417 313.834L192.078 283.594C192.078 283.594 208.583 259.114 225.075 237.658C241.567 216.202 225.993 176.76 208.809 188.957Z" fill="#ED9017"/>
<path d="M207.972 261.461C207.846 261.463 207.723 261.426 207.615 261.355C207.508 261.284 207.421 261.182 207.366 261.06C207.31 260.938 207.287 260.801 207.301 260.665C207.314 260.53 207.362 260.401 207.44 260.294C213.571 251.654 219.33 243.936 224.544 237.168C230.276 229.723 232.524 219.24 230.862 208.368C229.452 199.555 225.542 192.11 220.581 188.957C220.432 188.858 220.326 188.7 220.284 188.516C220.242 188.333 220.269 188.139 220.358 187.977C220.447 187.814 220.591 187.696 220.759 187.648C220.928 187.6 221.107 187.625 221.259 187.718C226.579 191.088 230.702 198.907 232.178 208.123C233.974 219.355 231.566 230.242 225.528 238.018C220.315 244.786 214.582 252.547 208.451 261.058C208.406 261.161 208.34 261.252 208.257 261.322C208.173 261.392 208.076 261.44 207.972 261.461Z" fill="#FFC897"/>
<path d="M188.993 284.285C188.892 284.285 188.792 284.26 188.701 284.213C182.849 281.045 172.142 283.233 172.036 283.248C171.859 283.284 171.677 283.243 171.528 283.134C171.38 283.024 171.278 282.856 171.244 282.665C171.211 282.474 171.249 282.276 171.35 282.115C171.451 281.955 171.607 281.844 171.783 281.808C172.235 281.707 183.035 279.504 189.299 282.888C189.458 282.943 189.592 283.062 189.675 283.22C189.757 283.377 189.781 283.563 189.742 283.739C189.704 283.915 189.605 284.07 189.466 284.171C189.327 284.272 189.159 284.312 188.993 284.285Z" fill="#FFC897"/>
<path d="M207.373 322.934C207.506 324.101 205.671 328.694 202.785 332.913C201.441 334.986 199.834 336.842 198.01 338.429C192.517 343.022 183.38 345.139 182.622 344.937C181.864 344.736 174.642 334.224 174.137 330.005C174.137 330.005 176.797 316.425 184.777 309.528C192.757 302.63 200.87 305.496 201.388 307.037C201.907 308.577 207.201 321.206 207.373 322.934Z" fill="#BC4E11"/>
<path d="M202.786 332.913C201.442 334.986 199.834 336.843 198.011 338.429C192.518 343.022 183.381 345.139 182.623 344.937C182.623 344.937 189.273 325.339 202.786 332.913Z" fill="#3A1B0A"/>
<path d="M187.81 336.96C187.81 336.96 191.933 326.247 199.128 326.117L211.617 348.322C211.617 348.322 206.669 358.013 201.602 362.362L200.072 352.671C200.072 352.671 190.762 341.871 187.81 336.96Z" fill="#FFC897"/>
<path d="M200.431 364.032C200.296 364.03 200.164 363.984 200.053 363.899C199.943 363.815 199.859 363.696 199.812 363.558C199.766 363.42 199.76 363.27 199.794 363.128C199.829 362.987 199.902 362.86 200.005 362.764C204.445 358.442 208.209 353.37 211.151 347.745C211.191 347.658 211.247 347.579 211.316 347.516C211.384 347.452 211.464 347.405 211.551 347.376C211.637 347.347 211.728 347.337 211.818 347.348C211.908 347.358 211.995 347.388 212.073 347.436C212.152 347.484 212.221 347.549 212.276 347.627C212.331 347.705 212.37 347.794 212.392 347.889C212.414 347.984 212.418 348.083 212.404 348.179C212.389 348.276 212.356 348.368 212.308 348.451C209.294 354.238 205.415 359.444 200.83 363.859C200.718 363.963 200.578 364.023 200.431 364.032Z" fill="#023824"/>
<path d="M267.636 148.594V166.608L265.162 168.048C261.385 167.651 257.793 166.086 254.814 163.541C254.814 163.541 255.346 144.504 255.346 144.216H255.479L267.636 148.594Z" fill="#FFC897"/>
<path d="M267.636 148.593V160.517C257.222 160.517 255.666 148.824 255.479 144.273L267.636 148.593Z" fill="#023824"/>
<path d="M246.847 131.04C246.847 131.04 254.256 157.262 270.162 154.224C286.069 151.186 278.329 101.981 261.358 105.61C244.387 109.238 242.791 117.518 246.847 131.04Z" fill="#FFC897"/>
<path d="M250.386 135.519L252.86 134.079C252.86 134.079 251.53 129.096 250.2 123.84C248.87 118.584 252.155 115.704 255.52 117.72C255.52 117.72 257.382 112.263 261.797 113.328C266.213 114.394 268.939 133.143 280.696 130.608C292.454 128.074 289.541 113.487 289.541 113.487C289.541 113.487 286.096 118.843 281.76 116.827C277.425 114.811 280.803 100.987 277.77 90.9074C274.738 80.8274 251.011 76.3202 240.145 111.269C240.145 111.269 232.018 111.01 229.704 118.858C227.39 126.706 236.155 147.355 256.052 148.608C253.262 145.395 250.98 141.708 249.295 137.693L250.386 135.519Z" fill="#04274C"/>
<path d="M249.282 132.48C249.282 132.48 245.744 127.426 241.302 130.55C236.86 133.675 242.632 143.87 253.512 139.637L249.282 132.48Z" fill="#FFC897"/>
<path d="M250.346 137.736C250.243 137.736 250.141 137.71 250.048 137.66C249.956 137.61 249.876 137.537 249.814 137.448C246.436 132.581 242.539 133.43 242.499 133.43C242.412 133.45 242.321 133.451 242.234 133.433C242.146 133.416 242.062 133.379 241.988 133.326C241.913 133.274 241.849 133.205 241.798 133.126C241.748 133.046 241.713 132.956 241.694 132.862C241.676 132.767 241.675 132.67 241.691 132.575C241.708 132.48 241.741 132.389 241.79 132.308C241.839 132.227 241.902 132.158 241.976 132.103C242.049 132.049 242.132 132.01 242.22 131.99C242.419 131.99 246.994 130.939 250.878 136.541C250.964 136.647 251.02 136.779 251.038 136.919C251.056 137.059 251.035 137.202 250.978 137.329C250.921 137.457 250.831 137.564 250.719 137.636C250.606 137.708 250.476 137.743 250.346 137.736Z" fill="#023824"/>
<path d="M246.356 138.341C246.249 138.341 246.144 138.314 246.049 138.262C245.954 138.209 245.873 138.133 245.811 138.038C245.39 137.29 245.168 136.431 245.168 135.554C245.168 134.678 245.39 133.819 245.811 133.07C245.895 132.902 246.038 132.778 246.208 132.724C246.377 132.67 246.56 132.691 246.715 132.782C246.87 132.874 246.986 133.029 247.035 133.212C247.085 133.396 247.066 133.594 246.981 133.762C246.693 134.284 246.541 134.881 246.541 135.49C246.541 136.098 246.693 136.695 246.981 137.218C247.054 137.332 247.094 137.466 247.098 137.604C247.102 137.742 247.069 137.879 247.003 137.997C246.937 138.116 246.841 138.211 246.726 138.272C246.611 138.333 246.483 138.357 246.356 138.341Z" fill="#023824"/>
<path d="M255.268 128.995C255.268 128.995 256.598 123.019 260.761 124.114C260.705 123.796 260.757 123.468 260.906 123.188C261.054 122.908 261.291 122.695 261.572 122.587C262.556 122.314 263.367 125.626 263.367 125.626C260.486 126.151 257.732 127.297 255.268 128.995Z" fill="#023824"/>
<path d="M276.959 126.231C276.959 126.231 275.483 120.845 272.89 123.092C272.834 122.851 272.715 122.634 272.547 122.465C272.38 122.296 272.171 122.184 271.945 122.141C270.815 122.213 271.267 125.41 271.267 125.41C273.197 125.018 275.192 125.306 276.959 126.231Z" fill="#023824"/>
<path d="M274.776 134.108C275.928 133.858 276.631 132.404 276.345 130.86C276.06 129.316 274.894 128.267 273.742 128.517C272.589 128.766 271.887 130.22 272.172 131.764C272.458 133.309 273.623 134.358 274.776 134.108Z" fill="#023824"/>
<path d="M274.659 130.831C274.969 130.763 275.17 130.437 275.108 130.102C275.046 129.767 274.744 129.549 274.435 129.616C274.125 129.683 273.924 130.01 273.986 130.345C274.048 130.68 274.35 130.898 274.659 130.831Z" fill="#F5F5F5"/>
<path d="M269.817 141.969H269.617C269.53 141.966 269.444 141.943 269.365 141.904C269.285 141.864 269.214 141.808 269.155 141.738C269.095 141.669 269.049 141.587 269.019 141.498C268.989 141.409 268.975 141.315 268.979 141.22C268.989 141.031 269.067 140.853 269.196 140.724C269.325 140.595 269.495 140.525 269.67 140.529C269.763 140.529 272.051 140.616 272.33 138.916C272.364 138.82 272.373 138.716 272.356 138.615C272.34 138.513 272.299 138.419 272.237 138.34C271.503 137.962 270.67 137.875 269.883 138.096C269.712 138.13 269.536 138.09 269.392 137.985C269.248 137.88 269.147 137.718 269.112 137.534L268.061 132.077C268.026 131.886 268.062 131.687 268.162 131.525C268.262 131.363 268.417 131.251 268.593 131.213C268.769 131.174 268.953 131.214 269.102 131.322C269.252 131.43 269.356 131.598 269.391 131.788L270.309 136.598C270.81 136.501 271.324 136.515 271.82 136.639C272.316 136.763 272.783 136.994 273.195 137.318C273.414 137.558 273.573 137.855 273.656 138.18C273.74 138.505 273.746 138.848 273.674 139.176C273.275 141.393 271.08 141.969 269.817 141.969Z" fill="#023824"/>
<path d="M258.685 133.92C258.552 133.921 258.422 133.879 258.311 133.799C258.201 133.719 258.115 133.605 258.065 133.472C258.015 133.338 258.003 133.192 258.03 133.051C258.058 132.91 258.123 132.782 258.219 132.682C259.076 131.878 260.142 131.38 261.27 131.256C262.399 131.132 263.535 131.389 264.523 131.991C264.608 132.029 264.684 132.085 264.747 132.157C264.811 132.228 264.86 132.313 264.891 132.406C264.923 132.498 264.937 132.597 264.932 132.696C264.926 132.795 264.902 132.892 264.861 132.98C264.82 133.068 264.762 133.147 264.692 133.21C264.621 133.273 264.54 133.32 264.452 133.347C264.364 133.374 264.272 133.382 264.181 133.369C264.09 133.356 264.003 133.323 263.925 133.272C263.181 132.811 262.324 132.608 261.471 132.69C260.617 132.773 259.807 133.136 259.15 133.733C259.023 133.858 258.856 133.925 258.685 133.92Z" fill="#023824"/>
<path d="M272.277 146.88C272.277 146.88 267.569 152.136 262.502 145.627L272.277 146.88Z" fill="#F5F5F5"/>
<path d="M297.919 142.416L290.591 142.502C290.591 142.502 284.393 136.382 290.059 127.958L295.778 126.446C297.619 128.266 298.786 130.748 299.063 133.43C299.258 136.479 298.868 139.538 297.919 142.416Z" fill="#115C40"/>
<path d="M297.919 142.416C296.214 141.649 294.789 140.296 293.863 138.565C292.938 136.835 292.564 134.823 292.799 132.84C293.032 130.388 294.087 128.113 295.765 126.446C297.605 128.266 298.773 130.748 299.05 133.43C299.249 136.478 298.864 139.537 297.919 142.416Z" fill="#023824"/>
<path d="M295.593 128.376L354.219 114.206L355.549 135.892L296.271 139.852C296.271 139.852 291.935 133.732 295.593 128.376Z" fill="#115C40"/>
<path d="M383.945 138.585C383.945 138.585 369.847 139.334 359.712 139.781C354.006 140.054 349.564 140.227 349.564 140.112C349.564 139.997 337.594 125.712 347.184 109.195L356.494 106.905L380.819 100.886L383.945 138.585Z" fill="#115C40"/>
<path d="M359.712 139.78C354.006 140.054 349.564 140.227 349.564 140.112C349.564 139.996 337.594 125.712 347.184 109.195L356.493 106.905C353.408 113.76 348.58 128.894 359.712 139.78Z" fill="#023824"/>
<path d="M429.803 139.104C429.803 139.104 410.079 140.155 395.888 140.774C387.908 141.163 381.684 141.393 381.684 141.249C381.684 140.846 364.859 121.089 378.359 98.0495L391.326 94.8383L425.361 86.3999L429.803 139.104Z" fill="#115C40"/>
<path d="M395.888 140.775C387.908 141.164 381.684 141.394 381.684 141.25C381.684 140.847 364.859 121.09 378.359 98.0501L391.326 94.8389C387.03 104.285 380.38 125.54 395.888 140.775Z" fill="#023824"/>
<path d="M447.426 141.005L430.695 142.445C430.695 142.445 422.209 128.549 421.385 113.472C420.56 98.3952 425.747 81.4608 425.747 81.4608L444.021 78.3936C447.045 88.2718 448.834 98.5438 449.341 108.936C449.503 119.664 448.862 130.389 447.426 141.005Z" fill="#023824"/>
<path d="M447.426 141.005C442.695 131.533 439.794 121.116 438.901 110.391C437.704 94.81 444.021 78.3652 444.021 78.3652C444.021 78.3652 450.033 93.298 450.498 108.85C450.586 119.659 449.555 130.444 447.426 141.005Z" fill="#A6D8FF"/>
<path d="M319.918 115.934C319.918 115.934 317.644 121.162 317.644 122.602C317.644 124.042 318.708 128.722 320.383 130.061C320.92 130.435 321.541 130.642 322.179 130.659C322.817 130.677 323.447 130.505 324.001 130.162C325.166 130.579 326.395 130.74 327.619 130.637C328.295 130.353 328.945 130.001 329.56 129.586C330.596 129.889 331.679 129.952 332.739 129.773C333.516 129.476 334.234 129.022 334.854 128.434C335.623 129.031 336.579 129.275 337.514 129.11C338.578 128.635 339.19 124.229 339.549 121.55C339.908 118.872 339.11 114.566 338.405 113.602C337.7 112.637 335.133 113.314 335.133 113.314C334.25 112.7 333.223 112.374 332.174 112.374C331.125 112.374 330.098 112.7 329.215 113.314C329.215 113.314 325.677 111.586 323.562 114.494C322.898 114.198 322.156 114.181 321.482 114.448C320.807 114.714 320.249 115.245 319.918 115.934Z" fill="#FFC897"/>
<path d="M322.419 116.395C322.419 116.395 322.047 117.273 321.661 118.368C321.235 119.488 320.975 120.674 320.89 121.881C320.925 122.578 321.051 123.267 321.262 123.926C321.811 125.675 322.455 127.386 323.191 129.053C323.274 129.211 323.409 129.329 323.57 129.384C323.73 129.438 323.904 129.425 324.055 129.346C324.207 129.268 324.326 129.13 324.387 128.961C324.449 128.791 324.449 128.603 324.388 128.433L324.042 127.627C323.736 126.878 323.27 125.726 322.885 124.603C322.698 124.041 322.526 123.48 322.406 123.005C322.304 122.644 322.241 122.272 322.22 121.896C322.31 120.856 322.543 119.837 322.911 118.872C323.084 118.353 323.27 117.878 323.403 117.547L323.629 117.014C323.703 116.84 323.711 116.642 323.65 116.462C323.589 116.283 323.464 116.137 323.304 116.057C323.143 115.976 322.96 115.969 322.794 116.035C322.628 116.101 322.493 116.236 322.419 116.409V116.395Z" fill="#023824"/>
<path d="M327.646 115.675C327.646 115.675 327.273 116.554 326.888 117.648C326.461 118.768 326.201 119.954 326.116 121.162C326.152 121.859 326.277 122.547 326.489 123.207C327.033 124.955 327.673 126.666 328.404 128.333C328.487 128.491 328.622 128.609 328.783 128.664C328.943 128.718 329.117 128.705 329.269 128.627C329.42 128.548 329.539 128.41 329.601 128.241C329.662 128.072 329.662 127.883 329.601 127.714L329.255 126.907C328.949 126.159 328.484 125.007 328.098 123.883C327.912 123.322 327.739 122.76 327.619 122.285C327.517 121.924 327.455 121.552 327.433 121.176C327.523 120.136 327.756 119.117 328.125 118.152C328.297 117.634 328.484 117.159 328.617 116.827L328.843 116.295C328.879 116.208 328.9 116.115 328.904 116.021C328.907 115.926 328.893 115.832 328.863 115.743C328.833 115.654 328.787 115.572 328.727 115.503C328.668 115.433 328.596 115.377 328.517 115.337C328.437 115.297 328.351 115.275 328.264 115.271C328.177 115.267 328.089 115.282 328.007 115.315C327.925 115.348 327.85 115.398 327.785 115.462C327.721 115.526 327.669 115.604 327.632 115.69L327.646 115.675Z" fill="#023824"/>
<path d="M333.83 114.955C333.83 114.955 333.417 115.805 333.005 116.899C332.536 118.002 332.231 119.178 332.101 120.384C332.104 121.066 332.194 121.744 332.367 122.4C332.848 124.168 333.425 125.904 334.096 127.599C334.166 127.774 334.298 127.912 334.463 127.983C334.627 128.053 334.811 128.049 334.973 127.973C335.136 127.897 335.263 127.753 335.328 127.575C335.393 127.397 335.39 127.198 335.319 127.023L335 126.202C334.721 125.439 334.295 124.272 333.949 123.12C333.776 122.544 333.63 121.982 333.524 121.507C333.434 121.14 333.385 120.763 333.377 120.384C333.504 119.348 333.773 118.339 334.175 117.389C334.375 116.87 334.561 116.41 334.707 116.078L334.947 115.546C334.987 115.462 335.011 115.37 335.019 115.275C335.026 115.181 335.016 115.086 334.99 114.996C334.963 114.905 334.92 114.822 334.864 114.749C334.808 114.677 334.739 114.617 334.661 114.574C334.583 114.53 334.498 114.504 334.411 114.496C334.324 114.488 334.236 114.498 334.153 114.527C334.069 114.556 333.992 114.602 333.925 114.663C333.858 114.724 333.803 114.799 333.763 114.883L333.83 114.955Z" fill="#023824"/>
<path d="M320.862 124.676C318.632 127.623 316.621 130.757 314.85 134.05C314.265 135.49 321.394 142.215 323.748 143.496C325.608 144.446 327.518 145.278 329.467 145.988C329.467 145.988 334.242 143.496 334.242 138.456C334.242 133.416 322.578 131.948 322.578 131.948C322.578 131.948 324.812 122.703 320.862 124.676Z" fill="#FFC897"/>
<path d="M162.871 78.4803C153.561 78.4803 166.063 55.2243 179.496 64.4259C179.496 64.4259 179.257 51.6819 189.391 50.6595C199.526 49.6371 204.128 60.0627 204.181 64.4259C207.513 63.8145 210.929 64.0361 214.169 65.0739C220.819 67.6227 219.037 78.4659 211.935 78.4659H162.871V78.4803Z" fill="#FFB075"/>
<path d="M482.949 193.521C473.639 193.521 486.141 170.265 499.574 179.467C499.574 179.467 499.335 166.723 509.47 165.7C519.604 164.678 524.206 175.104 524.259 179.467C527.591 178.855 531.007 179.077 534.247 180.115C540.897 182.664 539.115 193.507 532.013 193.507H482.949V193.521Z" fill="#FFB075"/>
<path d="M346.904 271.037C349.835 271.037 352.211 268.464 352.211 265.291C352.211 262.118 349.835 259.545 346.904 259.545C343.974 259.545 341.598 262.118 341.598 265.291C341.598 268.464 343.974 271.037 346.904 271.037Z" fill="#2E9C73"/>
<path d="M410.371 424.527C412.031 424.527 413.377 423.07 413.377 421.272C413.377 419.475 412.031 418.018 410.371 418.018C408.711 418.018 407.365 419.475 407.365 421.272C407.365 423.07 408.711 424.527 410.371 424.527Z" fill="#2E9C73"/>
<path d="M536.415 273.326C539.148 273.326 541.363 270.928 541.363 267.969C541.363 265.011 539.148 262.612 536.415 262.612C533.683 262.612 531.468 265.011 531.468 267.969C531.468 270.928 533.683 273.326 536.415 273.326Z" fill="#2E9C73"/>
<path d="M212.919 127.094C215.652 127.094 217.867 124.696 217.867 121.738C217.867 118.779 215.652 116.381 212.919 116.381C210.187 116.381 207.972 118.779 207.972 121.738C207.972 124.696 210.187 127.094 212.919 127.094Z" fill="#2E9C73"/>
<path d="M306.605 85.752C310.315 85.752 313.322 82.4962 313.322 78.48C313.322 74.4638 310.315 71.208 306.605 71.208C302.896 71.208 299.889 74.4638 299.889 78.48C299.889 82.4962 302.896 85.752 306.605 85.752Z" fill="#2E9C73"/>
<path d="M499.056 394.056C498.879 394.056 498.71 393.98 498.585 393.845C498.461 393.71 498.391 393.527 498.391 393.336V386.885C498.391 386.694 498.461 386.511 498.585 386.376C498.71 386.241 498.879 386.165 499.056 386.165C499.232 386.165 499.401 386.241 499.526 386.376C499.651 386.511 499.721 386.694 499.721 386.885V393.336C499.721 393.527 499.651 393.71 499.526 393.845C499.401 393.98 499.232 394.056 499.056 394.056Z" fill="#2E9C73"/>
<path d="M509.071 398.448H503.112C502.936 398.448 502.767 398.372 502.642 398.237C502.517 398.102 502.447 397.919 502.447 397.728C502.447 397.537 502.517 397.354 502.642 397.219C502.767 397.084 502.936 397.008 503.112 397.008H509.071C509.247 397.008 509.416 397.084 509.541 397.219C509.666 397.354 509.736 397.537 509.736 397.728C509.736 397.919 509.666 398.102 509.541 398.237C509.416 398.372 509.247 398.448 509.071 398.448Z" fill="#2E9C73"/>
<path d="M499.056 409.291C498.879 409.291 498.71 409.215 498.585 409.08C498.461 408.945 498.391 408.762 498.391 408.571V402.12C498.391 401.929 498.461 401.746 498.585 401.611C498.71 401.476 498.879 401.4 499.056 401.4C499.232 401.4 499.401 401.476 499.526 401.611C499.651 401.746 499.721 401.929 499.721 402.12V408.571C499.721 408.762 499.651 408.945 499.526 409.08C499.401 409.215 499.232 409.291 499.056 409.291Z" fill="#2E9C73"/>
<path d="M494.999 398.448H489.041C488.865 398.448 488.695 398.372 488.571 398.237C488.446 398.102 488.376 397.919 488.376 397.728C488.376 397.537 488.446 397.354 488.571 397.219C488.695 397.084 488.865 397.008 489.041 397.008H494.999C495.176 397.008 495.345 397.084 495.47 397.219C495.594 397.354 495.664 397.537 495.664 397.728C495.664 397.919 495.594 398.102 495.47 398.237C495.345 398.372 495.176 398.448 494.999 398.448Z" fill="#2E9C73"/>
<path d="M339.669 300.557C339.493 300.557 339.323 300.481 339.199 300.346C339.074 300.211 339.004 300.028 339.004 299.837V293.386C339.004 293.195 339.074 293.012 339.199 292.877C339.323 292.742 339.493 292.666 339.669 292.666C339.845 292.666 340.014 292.742 340.139 292.877C340.264 293.012 340.334 293.195 340.334 293.386V299.837C340.334 300.028 340.264 300.211 340.139 300.346C340.014 300.481 339.845 300.557 339.669 300.557Z" fill="#2E9C73"/>
<path d="M349.684 304.949H343.726C343.549 304.949 343.38 304.873 343.255 304.738C343.131 304.603 343.061 304.42 343.061 304.229C343.061 304.038 343.131 303.855 343.255 303.72C343.38 303.585 343.549 303.509 343.726 303.509H349.684C349.86 303.509 350.029 303.585 350.154 303.72C350.279 303.855 350.349 304.038 350.349 304.229C350.349 304.42 350.279 304.603 350.154 304.738C350.029 304.873 349.86 304.949 349.684 304.949Z" fill="#2E9C73"/>
<path d="M339.669 315.807C339.493 315.807 339.323 315.731 339.199 315.596C339.074 315.461 339.004 315.278 339.004 315.087V308.636C339.004 308.445 339.074 308.261 339.199 308.126C339.323 307.991 339.493 307.916 339.669 307.916C339.845 307.916 340.014 307.991 340.139 308.126C340.264 308.261 340.334 308.445 340.334 308.636V315.087C340.334 315.278 340.264 315.461 340.139 315.596C340.014 315.731 339.845 315.807 339.669 315.807Z" fill="#2E9C73"/>
<path d="M335.599 304.949H329.641C329.464 304.949 329.295 304.873 329.17 304.738C329.046 304.603 328.976 304.42 328.976 304.229C328.976 304.038 329.046 303.855 329.17 303.72C329.295 303.585 329.464 303.509 329.641 303.509H335.599C335.775 303.509 335.944 303.585 336.069 303.72C336.194 303.855 336.264 304.038 336.264 304.229C336.264 304.42 336.194 304.603 336.069 304.738C335.944 304.873 335.775 304.949 335.599 304.949Z" fill="#2E9C73"/>
<path d="M173.91 155.765C173.734 155.765 173.565 155.689 173.44 155.554C173.315 155.419 173.245 155.236 173.245 155.045V148.594C173.245 148.403 173.315 148.219 173.44 148.084C173.565 147.949 173.734 147.874 173.91 147.874C174.086 147.874 174.256 147.949 174.38 148.084C174.505 148.219 174.575 148.403 174.575 148.594V155.045C174.575 155.236 174.505 155.419 174.38 155.554C174.256 155.689 174.086 155.765 173.91 155.765Z" fill="#FFB075"/>
<path d="M183.925 160.157H177.967C177.79 160.157 177.621 160.081 177.497 159.946C177.372 159.811 177.302 159.628 177.302 159.437C177.302 159.246 177.372 159.063 177.497 158.928C177.621 158.793 177.79 158.717 177.967 158.717H183.925C184.102 158.717 184.271 158.793 184.395 158.928C184.52 159.063 184.59 159.246 184.59 159.437C184.59 159.628 184.52 159.811 184.395 159.946C184.271 160.081 184.102 160.157 183.925 160.157Z" fill="#FFB075"/>
<path d="M173.91 171C173.734 171 173.565 170.924 173.44 170.789C173.315 170.654 173.245 170.471 173.245 170.28V163.828C173.245 163.637 173.315 163.454 173.44 163.319C173.565 163.184 173.734 163.108 173.91 163.108C174.086 163.108 174.256 163.184 174.38 163.319C174.505 163.454 174.575 163.637 174.575 163.828V170.28C174.575 170.471 174.505 170.654 174.38 170.789C174.256 170.924 174.086 171 173.91 171Z" fill="#FFB075"/>
<path d="M169.855 160.157H163.896C163.72 160.157 163.551 160.081 163.426 159.946C163.302 159.811 163.231 159.628 163.231 159.437C163.231 159.246 163.302 159.063 163.426 158.928C163.551 158.793 163.72 158.717 163.896 158.717H169.855C170.031 158.717 170.2 158.793 170.325 158.928C170.45 159.063 170.52 159.246 170.52 159.437C170.52 159.628 170.45 159.811 170.325 159.946C170.2 160.081 170.031 160.157 169.855 160.157Z" fill="#FFB075"/>
<path d="M390.394 179.928L430.52 180.879C431.754 181.369 433.07 181.572 434.381 181.473C435.692 181.373 436.969 180.975 438.128 180.303L469.596 169.2L461.11 249.207L431.052 267.581C431.052 267.581 429.816 272.175 422.74 271.023L378.371 288.821L390.394 179.928Z" fill="#115C40"/>
<path d="M379.608 181.843L390.395 179.928L378.371 288.821L368.117 287.481L379.608 181.843Z" fill="#A6D8FF"/>
<path d="M431.212 265.118C431.038 265.1 430.878 265.008 430.765 264.862C430.653 264.717 430.599 264.529 430.614 264.34L437.37 182.174C437.39 181.987 437.476 181.815 437.61 181.695C437.743 181.574 437.915 181.514 438.088 181.526C438.263 181.544 438.423 181.636 438.535 181.782C438.647 181.927 438.702 182.115 438.687 182.304L431.93 264.47C431.914 264.659 431.829 264.832 431.694 264.954C431.56 265.075 431.387 265.134 431.212 265.118Z" fill="#023824"/>
<path d="M423.02 267.84C422.933 267.831 422.848 267.803 422.77 267.758C422.693 267.714 422.624 267.653 422.568 267.579C422.513 267.505 422.471 267.421 422.446 267.329C422.421 267.238 422.412 267.143 422.422 267.048L429.989 183.686C430.009 183.496 430.097 183.323 430.234 183.202C430.37 183.081 430.545 183.022 430.721 183.038C430.808 183.047 430.893 183.075 430.971 183.12C431.048 183.165 431.117 183.226 431.173 183.299C431.228 183.373 431.27 183.458 431.295 183.549C431.32 183.64 431.328 183.736 431.319 183.83L423.752 267.192C423.743 267.287 423.718 267.379 423.676 267.463C423.635 267.547 423.579 267.621 423.511 267.681C423.443 267.741 423.364 267.786 423.28 267.814C423.196 267.841 423.108 267.85 423.02 267.84Z" fill="#023824"/>
<path d="M444.14 194.285L442.544 214.56L459.422 207.864L461.629 188.352L444.14 194.285Z" fill="#A6D8FF"/>
<path d="M442.372 232.517C442.284 232.535 442.195 232.534 442.108 232.514C442.02 232.495 441.938 232.457 441.864 232.403C441.791 232.348 441.728 232.279 441.679 232.199C441.63 232.118 441.597 232.028 441.58 231.934C441.564 231.839 441.564 231.742 441.583 231.648C441.601 231.553 441.636 231.464 441.686 231.384C441.736 231.305 441.8 231.237 441.874 231.184C441.948 231.131 442.032 231.095 442.119 231.077L456.084 224.856C456.242 224.804 456.412 224.817 456.562 224.894C456.711 224.97 456.829 225.104 456.892 225.27C456.955 225.435 456.959 225.62 456.903 225.789C456.847 225.957 456.735 226.097 456.589 226.181L442.624 232.402C442.548 232.459 442.462 232.498 442.372 232.517Z" fill="#023824"/>
<path d="M515.548 268.459H443.888C441.809 268.459 440.124 270.284 440.124 272.534V327.153C440.124 329.404 441.809 331.229 443.888 331.229H515.548C517.627 331.229 519.312 329.404 519.312 327.153V272.534C519.312 270.284 517.627 268.459 515.548 268.459Z" fill="#A6D8FF"/>
<path d="M506.397 288.907H481.007C479.766 288.907 478.76 289.997 478.76 291.341V291.643C478.76 292.987 479.766 294.077 481.007 294.077H506.397C507.639 294.077 508.645 292.987 508.645 291.643V291.341C508.645 289.997 507.639 288.907 506.397 288.907Z" fill="#2E9C73"/>
<path d="M506.397 302.774H481.007C479.766 302.774 478.76 303.864 478.76 305.208V305.51C478.76 306.854 479.766 307.944 481.007 307.944H506.397C507.639 307.944 508.645 306.854 508.645 305.51V305.208C508.645 303.864 507.639 302.774 506.397 302.774Z" fill="#2E9C73"/>
<path d="M506.398 316.656H491.715C490.473 316.656 489.467 317.745 489.467 319.089V319.392C489.467 320.736 490.473 321.825 491.715 321.825H506.398C507.639 321.825 508.645 320.736 508.645 319.392V319.089C508.645 317.745 507.639 316.656 506.398 316.656Z" fill="#2E9C73"/>
<path d="M485.583 281.434C486.802 281.434 487.791 280.363 487.791 279.043C487.791 277.723 486.802 276.653 485.583 276.653C484.363 276.653 483.375 277.723 483.375 279.043C483.375 280.363 484.363 281.434 485.583 281.434Z" fill="#2E9C73"/>
<path d="M496.011 281.434C497.23 281.434 498.218 280.363 498.218 279.043C498.218 277.723 497.23 276.653 496.011 276.653C494.791 276.653 493.803 277.723 493.803 279.043C493.803 280.363 494.791 281.434 496.011 281.434Z" fill="#2E9C73"/>
<path d="M506.438 281.434C507.658 281.434 508.646 280.363 508.646 279.043C508.646 277.723 507.658 276.653 506.438 276.653C505.219 276.653 504.23 277.723 504.23 279.043C504.23 280.363 505.219 281.434 506.438 281.434Z" fill="#2E9C73"/>
<path d="M411.13 280.8C411.015 280.801 410.902 280.771 410.801 280.711C410.701 280.651 410.616 280.564 410.556 280.458C410.496 280.352 410.462 280.231 410.457 280.107C410.453 279.982 410.479 279.859 410.532 279.749C411.117 278.51 411.502 277.819 411.502 277.819C411.594 277.658 411.74 277.543 411.909 277.498C412.079 277.453 412.258 277.481 412.408 277.578C412.558 277.674 412.667 277.83 412.711 278.013C412.756 278.195 412.733 278.389 412.646 278.554C412.646 278.554 412.274 279.23 411.715 280.411C411.66 280.527 411.576 280.625 411.473 280.694C411.369 280.762 411.251 280.799 411.13 280.8Z" fill="#2E9C73"/>
<path d="M461.896 358.819C461.178 358.819 460.46 358.791 459.742 358.733C459.568 358.718 459.406 358.63 459.291 358.487C459.177 358.344 459.119 358.158 459.13 357.97C459.147 357.783 459.229 357.61 459.36 357.486C459.491 357.363 459.661 357.299 459.835 357.307C461.123 357.397 462.416 357.397 463.705 357.307C463.881 357.296 464.055 357.361 464.187 357.488C464.319 357.615 464.399 357.793 464.41 357.984C464.42 358.175 464.361 358.363 464.243 358.506C464.126 358.649 463.961 358.736 463.785 358.747C463.155 358.795 462.526 358.819 461.896 358.819ZM467.682 358.215C467.505 358.234 467.329 358.176 467.192 358.055C467.055 357.933 466.968 357.757 466.95 357.567C466.933 357.376 466.986 357.185 467.098 357.036C467.21 356.888 467.372 356.794 467.549 356.775C468.294 356.616 469.038 356.415 469.77 356.199L471.313 355.695C471.489 355.635 471.68 355.654 471.843 355.748C472.007 355.841 472.129 356 472.184 356.191C472.238 356.382 472.221 356.589 472.135 356.766C472.049 356.943 471.901 357.075 471.725 357.135L470.142 357.653C469.384 357.883 468.599 358.099 467.815 358.258H467.682V358.215ZM455.858 358.215H455.725C454.402 357.932 453.096 357.562 451.815 357.106C451.638 357.047 451.491 356.914 451.405 356.737C451.319 356.56 451.301 356.353 451.356 356.163C451.411 355.972 451.533 355.812 451.697 355.719C451.86 355.626 452.051 355.607 452.227 355.666C453.456 356.104 454.708 356.46 455.978 356.731C456.156 356.748 456.32 356.842 456.435 356.99C456.55 357.139 456.605 357.33 456.589 357.523C456.574 357.716 456.488 357.894 456.35 358.019C456.213 358.143 456.036 358.203 455.858 358.186V358.215ZM475.209 355.68C475.033 355.718 474.85 355.679 474.7 355.571C474.551 355.463 474.447 355.295 474.412 355.104C474.376 354.913 474.412 354.715 474.512 354.553C474.612 354.391 474.767 354.278 474.944 354.24C476.154 353.679 477.338 353.059 478.441 352.397C478.597 352.305 478.779 352.284 478.949 352.338C479.033 352.365 479.111 352.409 479.179 352.469C479.247 352.528 479.304 352.602 479.346 352.685C479.388 352.768 479.414 352.859 479.423 352.954C479.433 353.048 479.425 353.143 479.4 353.234C479.375 353.325 479.334 353.41 479.279 353.484C479.224 353.557 479.157 353.619 479.08 353.664C477.9 354.363 476.688 354.998 475.449 355.565C475.377 355.62 475.296 355.66 475.209 355.68ZM448.33 355.579C448.238 355.601 448.143 355.601 448.051 355.579C446.829 354.949 445.647 354.232 444.513 353.434C444.375 353.326 444.28 353.165 444.248 352.984C444.217 352.803 444.25 352.615 444.342 352.46C444.435 352.305 444.578 352.194 444.743 352.15C444.909 352.106 445.083 352.133 445.231 352.224C446.314 352.986 447.443 353.669 448.61 354.269C448.7 354.355 448.768 354.466 448.805 354.59C448.842 354.714 448.847 354.847 448.82 354.975C448.793 355.102 448.734 355.219 448.65 355.313C448.566 355.406 448.46 355.474 448.344 355.507L448.33 355.579ZM482.139 351.547C481.997 351.549 481.858 351.5 481.743 351.41C481.628 351.32 481.543 351.192 481.5 351.046C481.457 350.9 481.458 350.742 481.504 350.596C481.549 350.451 481.637 350.325 481.753 350.237C482.814 349.433 483.831 348.563 484.799 347.631C484.931 347.503 485.105 347.437 485.282 347.448C485.459 347.458 485.625 347.545 485.743 347.688C485.861 347.831 485.922 348.02 485.912 348.211C485.902 348.403 485.822 348.583 485.69 348.711C484.683 349.659 483.626 350.544 482.524 351.36C482.414 351.438 482.284 351.478 482.152 351.475L482.139 351.547ZM441.72 350.899C441.559 350.901 441.403 350.84 441.281 350.727C440.262 349.758 439.314 348.703 438.448 347.573C438.392 347.5 438.35 347.416 438.324 347.326C438.299 347.235 438.289 347.14 438.297 347.046C438.305 346.952 438.33 346.86 438.371 346.776C438.412 346.692 438.468 346.618 438.535 346.558C438.602 346.497 438.68 346.452 438.763 346.424C438.847 346.396 438.934 346.386 439.022 346.394C439.109 346.403 439.193 346.43 439.271 346.474C439.348 346.518 439.417 346.579 439.472 346.651C440.285 347.724 441.174 348.726 442.132 349.647C442.21 349.745 442.262 349.863 442.282 349.99C442.303 350.118 442.291 350.248 442.249 350.369C442.207 350.49 442.136 350.596 442.043 350.677C441.949 350.757 441.838 350.809 441.72 350.827V350.899ZM488.031 345.831C487.902 345.832 487.776 345.793 487.668 345.718C487.56 345.644 487.474 345.537 487.42 345.41C487.367 345.284 487.348 345.143 487.367 345.006C487.386 344.868 487.441 344.74 487.525 344.635C488.377 343.58 489.167 342.469 489.893 341.309C489.942 341.23 490.004 341.163 490.077 341.111C490.15 341.059 490.232 341.022 490.318 341.004C490.404 340.986 490.492 340.987 490.577 341.006C490.663 341.025 490.745 341.062 490.817 341.115C490.89 341.167 490.952 341.235 491 341.314C491.048 341.393 491.082 341.482 491.098 341.575C491.115 341.668 491.115 341.763 491.097 341.856C491.08 341.949 491.046 342.037 490.997 342.115C490.238 343.326 489.412 344.485 488.523 345.586C488.456 345.649 488.377 345.696 488.293 345.726C488.208 345.756 488.119 345.767 488.031 345.759V345.831ZM436.706 344.16C436.588 344.162 436.471 344.129 436.368 344.066C436.265 344.003 436.18 343.911 436.121 343.8C435.447 342.513 434.89 341.158 434.458 339.754C434.411 339.575 434.43 339.383 434.511 339.218C434.591 339.054 434.728 338.929 434.891 338.872C435.055 338.814 435.233 338.827 435.388 338.908C435.543 338.989 435.662 339.133 435.722 339.307C436.126 340.621 436.647 341.89 437.278 343.095C437.333 343.203 437.361 343.325 437.36 343.449C437.358 343.573 437.327 343.695 437.27 343.802C437.212 343.909 437.13 343.998 437.031 344.061C436.932 344.124 436.82 344.158 436.706 344.16ZM434.246 336.067C434.094 336.072 433.945 336.02 433.824 335.921C433.703 335.821 433.617 335.68 433.581 335.52C433.491 334.674 433.447 333.823 433.448 332.971V332.784C433.448 332.199 433.448 331.632 433.448 331.085C433.558 331.084 433.665 331.045 433.753 330.974C433.841 330.903 433.906 330.803 433.939 330.69C433.972 330.576 433.97 330.454 433.934 330.341C433.898 330.228 433.83 330.131 433.74 330.063C433.718 329.971 433.713 329.875 433.725 329.781C433.737 329.688 433.767 329.597 433.811 329.516C433.856 329.434 433.915 329.363 433.985 329.306C434.054 329.249 434.134 329.208 434.219 329.184C435.465 328.816 436.679 328.334 437.85 327.744C438.008 327.679 438.183 327.682 438.34 327.752C438.496 327.823 438.622 327.955 438.691 328.122C438.761 328.289 438.769 328.478 438.714 328.652C438.659 328.825 438.545 328.969 438.395 329.055C437.153 329.65 435.868 330.132 434.551 330.495C434.629 330.567 434.689 330.659 434.728 330.761C434.767 330.863 434.784 330.974 434.778 331.085C434.778 331.603 434.778 332.151 434.778 332.712L434.113 332.871H434.778C434.779 333.665 434.824 334.458 434.911 335.247C434.929 335.435 434.878 335.625 434.769 335.773C434.659 335.921 434.5 336.017 434.325 336.039H434.246V336.067ZM427.689 331.474H426.545C426.457 331.47 426.372 331.448 426.292 331.408C426.213 331.368 426.142 331.312 426.082 331.243C426.023 331.173 425.977 331.092 425.947 331.003C425.917 330.914 425.903 330.819 425.906 330.725C425.908 330.63 425.927 330.536 425.963 330.449C425.999 330.362 426.051 330.284 426.116 330.219C426.181 330.155 426.257 330.105 426.339 330.073C426.422 330.041 426.51 330.028 426.598 330.034H427.715C428.63 330.034 429.545 329.981 430.455 329.875C430.631 329.854 430.808 329.91 430.947 330.03C431.085 330.15 431.174 330.325 431.193 330.516C431.213 330.707 431.161 330.899 431.05 331.048C430.939 331.198 430.778 331.294 430.601 331.315C429.591 331.474 428.633 331.517 427.689 331.531V331.474ZM422.648 330.912H422.515C421.182 330.604 419.878 330.165 418.618 329.602C418.529 329.572 418.447 329.523 418.377 329.458C418.307 329.392 418.25 329.311 418.211 329.221C418.171 329.13 418.149 329.031 418.147 328.931C418.145 328.831 418.162 328.731 418.197 328.638C418.233 328.545 418.285 328.462 418.353 328.392C418.42 328.323 418.499 328.27 418.586 328.236C418.674 328.202 418.767 328.188 418.859 328.195C418.951 328.202 419.042 328.23 419.123 328.277C420.31 328.804 421.539 329.214 422.794 329.501C422.972 329.522 423.136 329.619 423.248 329.77C423.36 329.921 423.412 330.114 423.393 330.307C423.373 330.5 423.284 330.677 423.144 330.798C423.005 330.92 422.826 330.976 422.648 330.955V330.912ZM415.373 327.629C415.241 327.631 415.111 327.591 415 327.514C413.862 326.693 412.802 325.753 411.835 324.706C411.71 324.57 411.639 324.386 411.639 324.195C411.639 324.003 411.71 323.819 411.835 323.683C411.96 323.548 412.13 323.472 412.307 323.472C412.484 323.472 412.654 323.548 412.779 323.683C413.686 324.66 414.68 325.538 415.745 326.304C415.915 326.358 416.057 326.482 416.142 326.649C416.227 326.817 416.247 327.014 416.197 327.197C416.148 327.38 416.033 327.535 415.879 327.627C415.724 327.718 415.542 327.74 415.373 327.687V327.629ZM434.711 327.543H434.565C434.394 327.498 434.246 327.382 434.154 327.22C434.062 327.059 434.033 326.864 434.073 326.679C434.37 325.212 434.854 323.797 435.509 322.474C435.595 322.306 435.74 322.182 435.911 322.129C436.082 322.076 436.265 322.099 436.42 322.193C436.575 322.286 436.69 322.443 436.738 322.628C436.787 322.813 436.766 323.011 436.679 323.179C436.074 324.383 435.626 325.672 435.349 327.01C435.322 327.173 435.243 327.32 435.127 327.428C435.011 327.535 434.864 327.596 434.711 327.6V327.543ZM441.587 326.923C441.45 326.922 441.316 326.876 441.204 326.789C441.092 326.703 441.008 326.581 440.963 326.44C440.918 326.3 440.914 326.147 440.952 326.005C440.99 325.862 441.068 325.735 441.175 325.642C441.988 324.996 442.637 324.14 443.063 323.151C443.127 322.972 443.18 322.789 443.223 322.603C443.245 322.509 443.284 322.42 443.337 322.341C443.391 322.263 443.458 322.197 443.535 322.147C443.613 322.097 443.698 322.064 443.787 322.049C443.876 322.035 443.967 322.04 444.054 322.063C444.142 322.087 444.224 322.129 444.296 322.187C444.368 322.245 444.43 322.318 444.476 322.401C444.522 322.485 444.553 322.578 444.566 322.674C444.579 322.77 444.575 322.869 444.553 322.963C444.496 323.208 444.425 323.448 444.34 323.683C443.835 324.906 443.047 325.968 442.053 326.765C441.989 326.836 441.912 326.891 441.827 326.928C441.743 326.966 441.652 326.983 441.561 326.981L441.587 326.923ZM409.787 321.624C409.68 321.625 409.575 321.598 409.48 321.545C409.385 321.492 409.303 321.416 409.242 321.322C408.464 320.117 407.779 318.846 407.193 317.52C407.132 317.351 407.132 317.162 407.194 316.993C407.255 316.824 407.374 316.686 407.526 316.607C407.677 316.529 407.851 316.515 408.011 316.57C408.172 316.624 408.307 316.743 408.39 316.901C408.946 318.156 409.595 319.36 410.332 320.501C410.416 320.609 410.469 320.742 410.483 320.883C410.498 321.024 410.474 321.166 410.415 321.292C410.355 321.418 410.262 321.522 410.148 321.591C410.034 321.661 409.904 321.692 409.774 321.682L409.787 321.624ZM438.714 320.371C438.571 320.371 438.431 320.32 438.317 320.227C438.202 320.134 438.118 320.003 438.078 319.854C438.038 319.705 438.043 319.546 438.093 319.4C438.143 319.255 438.235 319.131 438.355 319.047C438.992 318.572 439.726 318.274 440.493 318.179C441.261 318.084 442.038 318.194 442.758 318.499C442.918 318.58 443.042 318.725 443.104 318.905C443.165 319.085 443.157 319.283 443.083 319.457C443.009 319.631 442.875 319.765 442.709 319.832C442.543 319.898 442.359 319.89 442.199 319.81C441.68 319.605 441.124 319.541 440.577 319.621C440.03 319.701 439.51 319.924 439.06 320.271C438.958 320.361 438.833 320.416 438.701 320.429L438.714 320.371ZM406.369 313.92C406.225 313.92 406.085 313.87 405.97 313.776C405.855 313.683 405.771 313.551 405.73 313.402C405.351 311.986 405.066 310.542 404.879 309.082C404.867 308.987 404.872 308.891 404.894 308.799C404.916 308.706 404.955 308.619 405.008 308.543C405.061 308.467 405.128 308.403 405.204 308.354C405.28 308.306 405.364 308.274 405.451 308.261C405.538 308.248 405.627 308.253 405.713 308.277C405.798 308.301 405.878 308.343 405.949 308.401C406.019 308.458 406.078 308.53 406.123 308.612C406.168 308.695 406.197 308.786 406.209 308.88C406.389 310.263 406.66 311.629 407.02 312.97C407.07 313.153 407.05 313.35 406.965 313.518C406.88 313.685 406.738 313.809 406.568 313.863L406.369 313.92ZM405.238 305.453C405.064 305.453 404.897 305.379 404.773 305.247C404.648 305.115 404.577 304.936 404.573 304.747V304.215C404.573 302.976 404.573 301.68 404.746 300.384C404.766 300.197 404.852 300.025 404.986 299.905C405.119 299.784 405.291 299.724 405.464 299.736C405.639 299.754 405.799 299.846 405.911 299.992C406.023 300.137 406.078 300.325 406.063 300.514C405.956 301.767 405.903 303.005 405.903 304.2V304.719C405.905 304.813 405.89 304.907 405.858 304.995C405.826 305.083 405.778 305.164 405.718 305.232C405.657 305.3 405.585 305.355 405.505 305.393C405.425 305.431 405.339 305.451 405.252 305.453H405.238ZM405.956 296.914H405.837C405.664 296.879 405.511 296.771 405.412 296.615C405.312 296.458 405.274 296.266 405.305 296.079C405.544 294.639 405.85 293.271 406.209 291.845C406.232 291.75 406.272 291.662 406.326 291.584C406.38 291.506 406.448 291.44 406.526 291.391C406.604 291.341 406.69 291.309 406.779 291.295C406.869 291.282 406.96 291.288 407.047 291.312C407.134 291.337 407.216 291.38 407.288 291.439C407.36 291.497 407.421 291.571 407.467 291.655C407.512 291.74 407.542 291.833 407.555 291.93C407.567 292.026 407.562 292.125 407.539 292.219C407.193 293.659 406.887 294.999 406.661 296.352C406.635 296.53 406.548 296.691 406.418 296.803C406.287 296.915 406.123 296.97 405.956 296.957V296.914ZM408.031 288.634C407.924 288.634 407.819 288.606 407.725 288.552C407.63 288.499 407.548 288.422 407.487 288.327C407.426 288.233 407.386 288.123 407.372 288.009C407.358 287.894 407.37 287.778 407.406 287.669C407.845 286.315 408.337 284.962 408.856 283.623C408.929 283.454 409.06 283.323 409.22 283.256C409.381 283.19 409.559 283.193 409.717 283.266C409.875 283.339 410.002 283.475 410.069 283.646C410.137 283.817 410.14 284.01 410.079 284.184C409.561 285.495 409.082 286.819 408.656 288.144C408.619 288.294 408.538 288.427 408.425 288.523C408.313 288.619 408.175 288.673 408.031 288.677V288.634Z" fill="#2E9C73"/>
<path d="M492.539 338.515C492.424 338.517 492.311 338.486 492.211 338.426C492.11 338.366 492.025 338.279 491.965 338.173C491.905 338.067 491.871 337.946 491.867 337.822C491.862 337.698 491.888 337.574 491.941 337.464C492.287 336.73 492.566 336.024 492.792 335.549C492.824 335.457 492.873 335.373 492.936 335.302C493 335.232 493.076 335.176 493.159 335.138C493.243 335.101 493.333 335.082 493.424 335.084C493.515 335.085 493.604 335.107 493.687 335.147C493.77 335.187 493.844 335.246 493.905 335.318C493.967 335.391 494.013 335.476 494.043 335.569C494.072 335.662 494.084 335.761 494.077 335.859C494.07 335.957 494.045 336.052 494.002 336.139C493.776 336.686 493.497 337.349 493.138 338.112C493.083 338.233 492.998 338.335 492.892 338.406C492.786 338.478 492.664 338.515 492.539 338.515Z" fill="#2E9C73"/>
<path d="M490.77 334.916L496.09 337.148C496.209 337.198 496.338 337.214 496.465 337.195C496.591 337.175 496.711 337.121 496.812 337.037C496.914 336.953 496.993 336.843 497.044 336.716C497.095 336.589 497.114 336.45 497.101 336.312L496.436 329.429C496.422 329.28 496.369 329.138 496.284 329.019C496.199 328.901 496.085 328.81 495.955 328.758C495.825 328.705 495.684 328.693 495.549 328.723C495.413 328.752 495.287 328.823 495.186 328.925L490.557 333.576C490.465 333.668 490.395 333.783 490.355 333.911C490.314 334.039 490.304 334.176 490.325 334.309C490.346 334.443 490.398 334.568 490.476 334.674C490.554 334.78 490.655 334.863 490.77 334.916Z" fill="#2E9C73"/>
</svg>
